<svg width="100%" height="100%" id="svg" viewBox="0 0 1440 490" xmlns="http://www.w3.org/2000/svg" class="transition duration-300 ease-in-out delay-150"><defs><linearGradient id="gradient" x1="0%" y1="50%" x2="100%" y2="50%"><stop offset="5%" stop-color="#F78DA7"></stop><stop offset="95%" stop-color="#8ED1FC"></stop></linearGradient></defs><path d="M 0,500 L 0,93 C 44.817562592047125,69.01767304860088 89.63512518409425,45.03534609720177 148,58 C 206.36487481590575,70.96465390279823 278.2770618556702,120.87628865979381 348,119 C 417.7229381443298,117.12371134020619 485.25662739322524,63.45949926362297 553,64 C 620.7433726067748,64.54050073637703 688.6964285714287,119.28571428571428 751,130 C 813.3035714285713,140.71428571428572 869.9576583210604,107.39764359351989 921,96 C 972.0423416789396,84.60235640648011 1017.4729381443299,95.12371134020617 1070,105 C 1122.5270618556701,114.87628865979383 1182.15058910162,124.10751104565537 1245,122 C 1307.84941089838,119.89248895434463 1373.92470544919,106.44624447717231 1440,93 L 1440,500 L 0,500 Z" stroke="none" stroke-width="0" fill="url(#gradient)" fill-opacity="0.4" class="transition-all duration-300 ease-in-out delay-150 path-0"></path><defs><linearGradient id="gradient" x1="0%" y1="50%" x2="100%" y2="50%"><stop offset="5%" stop-color="#F78DA7"></stop><stop offset="95%" stop-color="#8ED1FC"></stop></linearGradient></defs><path d="M 0,500 L 0,218 C 48.04326215022091,206.2025036818851 96.08652430044182,194.40500736377024 149,203 C 201.91347569955818,211.59499263622976 259.69716494845363,240.58247422680412 327,234 C 394.30283505154637,227.41752577319588 471.12481590574373,185.26509572901324 538,190 C 604.8751840942563,194.73490427098676 661.8035714285714,246.3571428571429 726,253 C 790.1964285714286,259.6428571428571 861.6608983799707,221.30633284241534 911,215 C 960.3391016200293,208.69366715758466 987.5528350515465,234.41752577319585 1051,249 C 1114.4471649484535,263.58247422680415 1214.127761413844,267.0235640648012 1285,260 C 1355.872238586156,252.97643593519882 1397.936119293078,235.4882179675994 1440,218 L 1440,500 L 0,500 Z" stroke="none" stroke-width="0" fill="url(#gradient)" fill-opacity="0.53" class="transition-all duration-300 ease-in-out delay-150 path-1"></path><defs><linearGradient id="gradient" x1="0%" y1="50%" x2="100%" y2="50%"><stop offset="5%" stop-color="#F78DA7"></stop><stop offset="95%" stop-color="#8ED1FC"></stop></linearGradient></defs><path d="M 0,500 L 0,343 C 52.07418998527247,327.8236377025037 104.14837997054494,312.64727540500735 171,309 C 237.85162002945506,305.35272459499265 319.4806701030928,313.2345360824742 374,314 C 428.5193298969072,314.7654639175258 455.928939617084,308.4145802650957 512,300 C 568.071060382916,291.5854197349043 652.8035714285714,281.1071428571429 715,304 C 777.1964285714286,326.8928571428571 816.8567746686305,383.15684830633285 878,384 C 939.1432253313695,384.84315169366715 1021.7693298969073,330.2654639175257 1087,324 C 1152.2306701030927,317.7345360824743 1200.0659057437408,359.7812960235641 1256,371 C 1311.9340942562592,382.2187039764359 1375.9670471281297,362.60935198821795 1440,343 L 1440,500 L 0,500 Z" stroke="none" stroke-width="0" fill="url(#gradient)" fill-opacity="1" class="transition-all duration-300 ease-in-out delay-150 path-2"></path></svg>
