<svg width="880" height="267" viewBox="0 0 880 267" fill="none" xmlns="http://www.w3.org/2000/svg">
<g clip-path="url(#clip0_1_60)">
<path d="M86.1304 83.3966C97.4544 84.3069 108.199 85.7658 118.221 87.8998C128.278 90.0395 137.624 92.8631 146.119 96.4886C158.336 101.703 168.794 108.548 177.105 117.364C185.442 126.203 191.605 137.01 195.202 150.113L206.182 82.4055C206.843 78.3142 207.839 74.8687 209.078 72.0375C210.474 68.844 212.2 66.3739 214.124 64.5772C215.551 63.2481 217.09 62.2532 218.704 61.5868C220.386 60.8865 222.153 60.5398 223.964 60.5254C225.639 60.5135 227.289 60.7887 228.864 61.3291C230.44 61.8689 231.971 62.6814 233.432 63.7352C235.794 65.4429 238.01 67.8685 239.894 70.8633C241.653 73.6568 243.155 76.9889 244.243 80.7348L257.872 127.583C258.988 131.43 260.129 134.604 261.258 137.083L261.27 137.092C261.783 138.213 262.282 139.18 262.765 139.99C263.097 139.263 263.433 138.419 263.762 137.454C264.59 135.032 265.37 131.952 266.074 128.206L283.371 36.2668C284.36 30.9887 286.086 26.3219 288.247 22.4407C290.632 18.1632 293.585 14.8048 296.723 12.583C298.273 11.4884 299.876 10.639 301.5 10.0616C303.15 9.47664 304.859 9.15504 306.578 9.11993C308.467 9.08231 310.327 9.38449 312.095 10.044C313.817 10.6891 315.449 11.6589 316.933 12.9673C319.25 15.0092 321.246 17.9413 322.713 21.8169C324 25.2274 324.891 29.3982 325.232 34.3684L331.053 118.774L332.832 144.59C333.102 148.52 333.691 151.74 334.479 154.244C335.05 156.058 335.706 157.446 336.395 158.413C336.951 157.542 337.479 156.322 337.945 154.744C338.65 152.357 339.171 149.247 339.404 145.396C340.09 134.03 341.722 124.542 344.129 116.647C346.578 108.623 349.837 102.225 353.747 97.1481C357.88 91.7811 362.679 87.8979 367.971 85.1545C372.727 82.6857 377.869 81.1473 383.282 80.2746V79.9423H385.939H460.525H463.184V82.5992V92.186V94.8448H460.525H386.324C382.21 95.4529 378.342 96.5526 374.859 98.36C371.365 100.174 368.205 102.725 365.506 106.234C362.549 110.076 360.052 115.104 358.142 121.597C356.19 128.226 354.851 136.358 354.252 146.268C353.912 151.857 352.979 156.584 351.648 160.429C350.118 164.845 348.039 168.15 345.697 170.323C344.343 171.582 342.866 172.532 341.316 173.166C339.715 173.826 338.032 174.143 336.322 174.123C334.647 174.101 333.005 173.751 331.436 173.089H331.423C329.914 172.447 328.464 171.501 327.114 170.263H327.101C324.656 168.018 322.458 164.592 320.823 160.059C319.392 156.096 318.372 151.25 317.985 145.581L316.204 119.762L310.386 35.3584C310.171 32.215 309.719 29.7142 309.108 27.8059C308.527 26.0022 307.833 24.8023 307.089 24.1484V24.1378C306.997 24.0544 306.911 23.9954 306.846 23.971C306.739 23.9729 306.56 24.0205 306.332 24.1114L306.328 24.1027C306.032 24.2212 305.676 24.4255 305.28 24.7032L305.276 24.6976C303.75 25.7797 302.246 27.6052 300.953 30.0753C299.685 32.4921 298.639 35.4969 297.981 38.9995L280.685 130.943C279.77 135.805 278.668 139.928 277.422 143.296C276.075 146.942 274.531 149.787 272.85 151.82C271.552 153.39 270.12 154.6 268.569 155.435C266.951 156.307 265.219 156.769 263.392 156.821C261.622 156.873 259.9 156.524 258.249 155.773C256.669 155.057 255.159 153.976 253.744 152.542C251.82 150.594 249.958 147.795 248.216 144.179V144.168C246.584 140.774 245.029 136.614 243.607 131.72L229.976 84.8668C229.331 82.6343 228.497 80.6978 227.561 79.1211C226.669 77.6158 225.7 76.4824 224.735 75.784L224.738 75.7783C224.563 75.6542 224.396 75.5508 224.243 75.4743C223.616 76.0648 222.995 77.0773 222.416 78.5631C221.794 80.1605 221.255 82.2061 220.847 84.7333L209.381 155.455C208.836 158.822 208.163 161.607 207.4 163.851C206.53 166.406 205.507 168.367 204.382 169.785C203.192 171.283 201.858 172.35 200.421 173.019H200.408C198.864 173.734 197.206 173.995 195.473 173.828C194.038 173.693 192.692 173.261 191.452 172.565C190.243 171.886 189.113 170.942 188.079 169.765L188.074 169.77C186.668 168.171 185.326 165.937 184.107 163.238C182.929 160.626 181.83 157.491 180.878 154.022C177.962 143.393 172.929 134.618 166.098 127.426C159.229 120.199 150.518 114.531 140.292 110.17C132.646 106.906 124.137 104.347 114.907 102.39C105.643 100.429 95.6521 99.0709 85.0716 98.2195C83.7952 98.2108 69.6211 98.3687 53.4071 98.5499C30.2889 98.8095 3.02479 99.1135 2.35649 99.037L0 98.7618V96.3996V86.8855V84.2693L2.63544 84.2374L11.9139 84.1289C33.1057 83.8788 83.2447 83.2794 86.1304 83.3966Z" fill="black"/>
<path d="M27.0821 250.511H2.32367V207.386H26.2005L25.6862 211.794L10.6989 212.015V225.973L24.8781 226.194L24.4373 230.088L10.6989 230.455V245.883L27.3759 246.324L27.0821 250.511ZM67.7645 250.732L38.8184 220.463H38.745C38.745 223.035 38.8184 225.312 38.8919 227.443C38.8919 228.398 38.8919 229.279 39.0388 230.088C39.0388 231.043 39.0388 231.924 39.0388 232.659C39.0388 233.467 39.0388 234.128 39.0388 234.716C39.0388 235.304 39.0388 235.671 39.0388 235.965V250.511H34.1165V207.092H37.7899L66.8094 237.214C66.8094 234.863 66.7359 232.659 66.7359 230.675C66.7359 229.794 66.7359 228.986 66.7359 228.104C66.7359 227.149 66.7359 226.267 66.589 225.533C66.589 224.651 66.589 223.99 66.589 223.329C66.589 222.667 66.589 222.08 66.589 221.639V207.386H71.5113V250.732H67.7645ZM106.757 233.834L97.6472 233.394L98.0145 229.941H115.279V247.426C114.324 247.793 113.149 248.307 111.826 248.675C110.504 249.189 108.961 249.556 107.418 249.85C105.802 250.218 104.112 250.511 102.423 250.732C100.806 251.026 99.043 251.099 97.5002 251.099C94.3412 251.099 91.6229 250.511 89.4189 249.483C87.2148 248.307 85.3782 246.838 83.9088 244.854C82.5129 242.944 81.5579 240.52 80.8967 237.802C80.162 235.01 79.9416 231.924 79.9416 228.545C79.9416 225.239 80.4559 222.227 81.5579 219.582C82.6599 216.863 84.2027 214.586 86.2598 212.676C88.2434 210.839 90.6678 209.443 93.3861 208.488C96.1778 207.386 99.2634 206.945 102.643 206.945C103.378 206.945 104.333 206.945 105.361 207.019C106.316 207.092 107.418 207.092 108.373 207.239C109.402 207.313 110.284 207.533 111.239 207.607C112.12 207.754 112.855 207.9 113.369 208.047L111.973 214.292C111.312 214.072 110.357 213.925 109.328 213.631C108.3 213.411 107.198 213.264 105.949 213.043C104.847 212.896 103.671 212.676 102.496 212.602C101.394 212.455 100.292 212.382 99.4838 212.382C97.941 212.382 96.5452 212.455 95.2228 212.749C93.9003 212.97 92.6514 213.557 91.6229 214.366C91.0351 214.88 90.5209 215.541 90.0801 216.57C89.7127 217.672 89.4189 218.774 89.1985 220.023C88.978 221.418 88.8311 222.814 88.7577 224.284C88.6107 225.826 88.6107 227.222 88.6107 228.692C88.6107 234.422 89.4189 238.83 90.7413 241.916C92.1371 244.928 94.4881 246.471 97.5002 246.471C98.3084 246.471 99.043 246.471 99.9246 246.397C100.806 246.324 101.688 246.177 102.496 246.103C103.378 246.03 104.112 245.883 104.847 245.81C105.582 245.589 106.243 245.516 106.757 245.442L106.757 233.834ZM148.799 250.511H124.04V207.386H147.917L147.403 211.794L132.415 212.015V225.973L146.595 226.194L146.154 230.088L132.416 230.455V245.883L149.093 246.324L148.799 250.511ZM189.481 250.732L160.535 220.463H160.462C160.462 223.035 160.535 225.312 160.608 227.443C160.608 228.398 160.608 229.279 160.755 230.088C160.755 231.043 160.755 231.924 160.755 232.659C160.755 233.467 160.755 234.128 160.755 234.716C160.755 235.304 160.755 235.671 160.755 235.965V250.511H155.833V207.092H159.506L188.526 237.214C188.526 234.863 188.452 232.659 188.452 230.675C188.452 229.794 188.452 228.986 188.452 228.104C188.452 227.149 188.452 226.267 188.306 225.533C188.306 224.651 188.306 223.99 188.306 223.329C188.306 222.667 188.306 222.08 188.306 221.639V207.386H193.228V250.732H189.481ZM229.723 250.511V231.043H211.135V250.511H202.76V207.386H211.135V226.267H229.723V207.386H238.024V250.511H229.723ZM273.38 250.511L268.605 235.965L253.177 236.259L248.181 250.511H242.892L259.128 207.754L267.283 206.358L282.417 250.511H273.38ZM267.283 231.924L261.111 213.337L254.72 231.924H267.283ZM298.231 232.659H295.512V250.511H287.137V207.533C288.9 207.313 290.664 207.239 292.868 207.092C294.998 207.019 297.055 207.019 298.965 207.019C303.888 207.019 307.634 207.974 310.206 209.884C312.851 211.794 314.1 214.806 314.1 218.774C314.1 220.61 313.879 222.153 313.365 223.476C312.998 224.871 312.41 225.973 311.675 227.075C311.014 228.03 310.132 228.839 309.177 229.5C308.296 230.234 307.267 230.749 306.312 231.263C307.488 233.467 308.59 235.598 309.765 237.508C310.94 239.491 311.969 241.255 313.144 242.65C314.173 244.12 315.348 245.369 316.45 246.177C317.626 246.985 318.801 247.426 320.124 247.426H320.418V250.218C319.756 250.438 318.948 250.585 318.067 250.805C317.259 250.879 316.304 251.026 315.201 251.026C313.659 251.026 312.336 250.879 311.308 250.585C310.132 250.291 309.03 249.63 307.928 248.675C306.9 247.793 305.724 246.397 304.622 244.561C303.447 242.724 302.124 240.373 300.582 237.214L298.231 232.659ZM297.055 228.471C298.157 228.471 299.259 228.251 300.288 228.03C301.39 227.737 302.198 227.296 302.859 226.928C303.153 226.782 303.447 226.488 303.814 226.047C304.108 225.68 304.402 225.312 304.622 224.724C304.843 224.137 305.063 223.476 305.283 222.52C305.357 221.639 305.43 220.61 305.43 219.288C305.43 217.819 305.283 216.57 304.99 215.615C304.696 214.586 304.108 213.851 303.52 213.264C302.859 212.602 301.977 212.162 301.022 211.868C300.067 211.647 299.039 211.5 297.79 211.5C297.423 211.5 297.055 211.5 296.614 211.5C296.247 211.5 295.88 211.647 295.512 211.647V228.471H297.055ZM332.962 250.511H324.587V207.386H332.962V250.511ZM368.373 250.511L363.598 235.965L348.17 236.259L343.174 250.511H337.884L354.121 207.754L362.276 206.358L377.41 250.511H368.373ZM362.276 231.924L356.104 213.337L349.713 231.924H362.276ZM420.259 250.511L415.484 235.965L400.056 236.259L395.06 250.511H389.771L406.007 207.754L414.162 206.358L429.296 250.511H420.259ZM414.162 231.924L407.99 213.337L401.599 231.924H414.162ZM450.473 251.099C447.24 251.099 444.595 250.511 442.244 249.483C440.04 248.307 438.277 246.838 436.808 244.854C435.339 242.944 434.384 240.52 433.722 237.802C433.061 235.01 432.767 231.924 432.767 228.545C432.767 225.9 433.061 223.476 433.722 221.272C434.31 219.214 435.192 217.378 436.294 215.761C437.396 214.072 438.645 212.749 440.04 211.647C441.436 210.472 442.906 209.59 444.595 208.929C446.138 208.194 447.755 207.68 449.371 207.386C450.987 207.092 452.603 206.945 454.146 206.945C455.101 206.945 456.13 206.945 457.232 207.019C458.334 207.092 459.436 207.092 460.391 207.313C461.419 207.386 462.374 207.533 463.256 207.68C464.138 207.754 464.799 207.9 465.387 208.047L463.844 214.219C463.256 213.998 462.448 213.851 461.419 213.631C460.391 213.411 459.289 213.264 458.187 213.043C456.938 212.896 455.762 212.676 454.734 212.602C453.558 212.455 452.603 212.382 451.869 212.382C450.987 212.382 450.252 212.382 449.665 212.455C449.003 212.455 448.269 212.602 447.828 212.749C447.24 212.896 446.799 213.043 446.285 213.337C445.844 213.557 445.257 213.925 444.742 214.219C443.493 215.174 442.685 216.863 442.171 219.361C441.73 221.859 441.51 225.018 441.51 228.765C441.51 234.643 442.391 238.904 444.081 241.916C445.844 244.854 448.563 246.397 452.309 246.397C454.513 246.397 456.717 246.177 459.142 245.81C461.419 245.516 463.55 244.928 465.46 244.414V247.94C464.432 248.381 463.256 248.895 462.007 249.262C460.758 249.63 459.509 249.997 458.26 250.218C456.938 250.511 455.615 250.732 454.367 250.879C452.971 251.026 451.722 251.099 450.473 251.099ZM507.649 235.304C507.649 237.508 507.281 239.491 506.547 241.401C505.665 243.312 504.489 244.928 503.02 246.397C501.33 247.793 499.42 248.969 497.143 249.85C494.718 250.732 492.074 251.099 488.988 251.099C486.49 251.099 484.213 250.805 482.229 250.291C480.172 249.777 478.335 248.895 476.939 247.72C475.47 246.471 474.368 244.928 473.56 243.018C472.825 241.034 472.458 238.757 472.458 235.818V207.386H480.76V236.7C480.76 238.83 480.98 240.52 481.347 241.769C481.715 243.165 482.302 244.12 483.037 244.781C483.698 245.442 484.727 245.883 485.829 246.103C486.857 246.324 488.253 246.397 489.649 246.397C491.412 246.397 492.955 246.177 494.204 245.81C495.526 245.442 496.555 244.928 497.437 244.267C498.318 243.679 498.759 242.724 499.053 241.401C499.273 240.079 499.347 238.463 499.347 236.553V207.386H507.649V235.304ZM492.661 189.901L496.849 194.162L486.417 203.272L483.698 200.627L492.661 189.901ZM541.811 237.875C541.811 239.418 541.37 240.961 540.635 242.577C539.974 244.12 538.799 245.516 537.476 246.765C536.007 248.014 534.317 249.042 532.407 249.85C530.35 250.732 528.146 251.099 525.721 251.099C524.472 251.099 523.224 251.026 522.048 250.879C521.02 250.732 519.918 250.511 518.889 250.218C517.934 249.924 516.979 249.63 516.097 249.262C515.142 248.895 514.261 248.381 513.305 247.94L515.436 241.475C516.024 241.989 516.758 242.357 517.86 242.871C518.816 243.312 519.844 243.679 521.02 244.12C522.122 244.561 523.297 244.854 524.472 245.148C525.721 245.442 526.75 245.516 527.705 245.516C528.734 245.516 529.689 245.442 530.35 245.369C531.085 245.148 531.746 244.928 532.333 244.781C532.848 244.487 533.362 243.899 533.729 242.871C534.097 241.916 534.317 240.52 534.317 239.051C534.317 237.508 533.803 236.332 532.848 235.451C531.893 234.643 530.644 233.834 529.248 233.247C527.779 232.585 526.236 231.924 524.546 231.336C522.93 230.675 521.313 229.794 519.844 228.839C518.375 227.81 517.199 226.561 516.171 224.945C515.216 223.329 514.775 221.271 514.775 218.7C514.775 217.451 515.142 216.129 515.73 214.806C516.391 213.337 517.346 212.088 518.595 210.913C519.844 209.664 521.46 208.709 523.297 208.047C525.134 207.313 527.191 206.945 529.542 206.945C531.452 206.945 533.289 207.019 534.978 207.239C536.741 207.386 538.358 207.607 539.974 207.974L538.652 214.292C537.917 213.998 537.109 213.851 536.154 213.557C535.199 213.264 534.244 213.043 533.289 212.896C532.187 212.676 531.231 212.602 530.35 212.455C529.395 212.309 528.587 212.309 527.925 212.309C527.044 212.309 526.236 212.309 525.574 212.382C524.913 212.455 524.326 212.676 523.738 213.043C523.224 213.337 522.783 213.925 522.636 214.659C522.342 215.468 522.269 216.276 522.269 217.378C522.269 218.406 522.562 219.361 523.077 220.023C523.664 220.831 524.326 221.418 525.281 221.933C526.236 222.52 527.191 223.035 528.44 223.476C529.615 223.843 530.791 224.431 532.04 224.945C533.289 225.386 534.391 225.973 535.64 226.635C536.815 227.296 537.844 228.177 538.725 229.132C539.68 230.234 540.341 231.336 540.929 232.806C541.517 234.128 541.811 235.818 541.811 237.875ZM556.908 250.511V211.868L544.345 211.721L544.713 207.386H577.92L577.479 211.647L565.21 211.868V250.511H556.908ZM591.603 250.511H583.228V207.386H591.603V250.511ZM617.684 251.099C614.451 251.099 611.806 250.511 609.456 249.483C607.252 248.307 605.488 246.838 604.019 244.854C602.55 242.944 601.595 240.52 600.933 237.802C600.272 235.01 599.978 231.924 599.978 228.545C599.978 225.9 600.272 223.476 600.933 221.272C601.521 219.214 602.403 217.378 603.505 215.761C604.607 214.072 605.856 212.749 607.252 211.647C608.647 210.472 610.117 209.59 611.806 208.929C613.349 208.194 614.966 207.68 616.582 207.386C618.198 207.092 619.814 206.945 621.357 206.945C622.312 206.945 623.341 206.945 624.443 207.019C625.545 207.092 626.647 207.092 627.602 207.313C628.63 207.386 629.586 207.533 630.467 207.68C631.349 207.754 632.01 207.9 632.598 208.047L631.055 214.219C630.467 213.998 629.659 213.851 628.63 213.631C627.602 213.411 626.5 213.264 625.398 213.043C624.149 212.896 622.973 212.676 621.945 212.602C620.769 212.455 619.814 212.382 619.08 212.382C618.198 212.382 617.463 212.382 616.876 212.455C616.214 212.455 615.48 212.602 615.039 212.749C614.451 212.896 614.01 213.043 613.496 213.337C613.055 213.557 612.468 213.925 611.953 214.219C610.704 215.174 609.896 216.863 609.382 219.361C608.941 221.859 608.721 225.018 608.721 228.765C608.721 234.643 609.602 238.904 611.292 241.916C613.055 244.854 615.774 246.397 619.521 246.397C621.725 246.397 623.929 246.177 626.353 245.81C628.63 245.516 630.761 244.928 632.671 244.414V247.94C631.643 248.381 630.467 248.895 629.218 249.262C627.969 249.63 626.72 249.997 625.471 250.218C624.149 250.511 622.827 250.732 621.578 250.879C620.182 251.026 618.933 251.099 617.684 251.099ZM665.603 250.511L660.827 235.965L645.399 236.259L640.404 250.511H635.114L651.35 207.754L659.505 206.358L674.639 250.511H665.603ZM659.505 231.924L653.334 213.337L646.942 231.924H659.505ZM692.051 199.452H696.385V266.38H692.051V199.452ZM753.763 235.304C753.763 237.508 753.396 239.491 752.661 241.401C751.78 243.312 750.604 244.928 749.135 246.397C747.445 247.793 745.535 248.969 743.257 249.85C740.833 250.732 738.188 251.099 735.103 251.099C732.605 251.099 730.327 250.805 728.344 250.291C726.287 249.777 724.45 248.895 723.054 247.72C721.585 246.471 720.483 244.928 719.674 243.018C718.94 241.034 718.573 238.757 718.573 235.818V207.386H726.874V236.7C726.874 238.83 727.095 240.52 727.462 241.769C727.829 243.165 728.417 244.12 729.151 244.781C729.813 245.442 730.841 245.883 731.943 246.103C732.972 246.324 734.368 246.397 735.763 246.397C737.527 246.397 739.07 246.177 740.318 245.81C741.641 245.442 742.669 244.928 743.551 244.267C744.433 243.679 744.873 242.724 745.167 241.401C745.388 240.079 745.461 238.463 745.461 236.553V207.386H753.763L753.763 235.304ZM771.524 250.511H763.149V207.386H787.393L787.025 211.721L771.524 211.868V227.222L786.438 227.443L786.07 231.336L771.524 231.704L771.524 250.511ZM818.469 237.875C818.469 239.418 818.029 240.961 817.294 242.577C816.633 244.12 815.457 245.516 814.135 246.765C812.665 248.014 810.976 249.042 809.066 249.85C807.008 250.732 804.805 251.099 802.38 251.099C801.131 251.099 799.882 251.026 798.707 250.879C797.678 250.732 796.576 250.511 795.548 250.218C794.593 249.924 793.637 249.63 792.756 249.262C791.801 248.895 790.919 248.381 789.964 247.94L792.095 241.475C792.682 241.989 793.417 242.357 794.519 242.871C795.474 243.312 796.503 243.679 797.678 244.12C798.78 244.561 799.956 244.854 801.131 245.148C802.38 245.442 803.409 245.516 804.364 245.516C805.392 245.516 806.347 245.442 807.008 245.369C807.743 245.148 808.404 244.928 808.992 244.781C809.506 244.487 810.021 243.899 810.388 242.871C810.755 241.916 810.975 240.52 810.975 239.051C810.975 237.508 810.461 236.332 809.506 235.451C808.551 234.643 807.302 233.834 805.906 233.247C804.437 232.585 802.894 231.924 801.204 231.336C799.588 230.675 797.972 229.794 796.502 228.839C795.033 227.81 793.858 226.561 792.829 224.945C791.874 223.329 791.433 221.271 791.433 218.7C791.433 217.451 791.801 216.129 792.388 214.806C793.049 213.337 794.004 212.088 795.253 210.913C796.502 209.664 798.119 208.709 799.955 208.047C801.792 207.313 803.849 206.945 806.2 206.945C808.11 206.945 809.947 207.019 811.637 207.239C813.4 207.386 815.016 207.607 816.632 207.974L815.31 214.292C814.575 213.998 813.767 213.851 812.812 213.557C811.857 213.264 810.902 213.043 809.947 212.896C808.845 212.676 807.89 212.602 807.008 212.455C806.053 212.309 805.245 212.309 804.584 212.309C803.702 212.309 802.894 212.309 802.233 212.382C801.572 212.455 800.984 212.676 800.396 213.043C799.882 213.337 799.441 213.925 799.294 214.659C799 215.468 798.927 216.276 798.927 217.378C798.927 218.406 799.221 219.361 799.735 220.023C800.323 220.831 800.984 221.418 801.939 221.933C802.894 222.52 803.849 223.035 805.098 223.476C806.273 223.843 807.449 224.431 808.698 224.945C809.947 225.386 811.049 225.973 812.298 226.635C813.473 227.296 814.502 228.177 815.383 229.132C816.338 230.234 817 231.336 817.587 232.806C818.175 234.128 818.469 235.818 818.469 237.875ZM867.509 250.511L864.129 217.672L849.362 250.511H846.791L831.363 217.672L828.571 250.511H823.796L827.91 207.092H835.771L850.17 237.655L863.762 207.092H871.402L875.884 250.511H867.509Z" fill="black"/>
<path d="M566.385 2.79882V21.1656H496.151V77.5883H566.385V95.9551H496.151V152.378H566.385V170.745H475.139V2.79882H566.385ZM666.227 82.8045L649.991 38.1365L633.975 82.8045H666.227ZM659.321 2.79882L720.005 170.745H698.259L672.986 100.951H627.29L601.503 170.745H579.316L640.955 2.79882H659.321ZM864.056 133.717L878.676 146.868C859.795 164.059 839.003 172.655 816.302 172.655C791.911 172.655 771.12 164.059 754.443 147.309C737.472 130.632 729.097 110.281 729.097 86.6247C729.097 63.4826 737.472 43.1322 754.443 26.2348C771.12 9.26391 791.911 0.888672 816.302 0.888672C839.003 0.888672 859.795 9.48432 878.676 26.6756L864.056 39.8262C848.554 26.2348 832.759 19.4758 816.302 19.4758C798.376 19.4758 782.875 25.9409 769.944 38.8711C756.794 52.0217 750.329 68.0376 750.329 86.6247C750.329 105.726 756.794 121.742 769.944 134.672C782.875 147.602 798.376 154.288 816.302 154.288C832.759 154.288 848.554 147.309 864.056 133.717Z" fill="black" stroke="black" stroke-width="0.378" stroke-miterlimit="22.9256"/>
</g>
<defs>
<clipPath id="clip0_1_60">
<rect width="880" height="266.38" fill="white"/>
</clipPath>
</defs>
</svg>
