<svg width="1978" height="353" viewBox="0 0 1978 353" fill="none" xmlns="http://www.w3.org/2000/svg">
<path d="M1185.13 169.508C1196.45 170.418 1207.2 171.877 1217.22 174.011C1227.28 176.151 1236.62 178.974 1245.12 182.6C1257.34 187.814 1267.79 194.659 1276.11 203.476C1284.44 212.315 1290.6 223.121 1294.2 236.224L1305.18 168.517C1305.84 164.425 1306.84 160.98 1308.08 158.149C1309.47 154.955 1311.2 152.485 1313.12 150.688C1314.55 149.359 1316.09 148.364 1317.7 147.698C1319.39 146.998 1321.15 146.651 1322.96 146.637C1324.64 146.625 1326.29 146.9 1327.86 147.44C1329.44 147.98 1330.97 148.793 1332.43 149.846C1334.79 151.554 1337.01 153.98 1338.89 156.975C1340.65 159.768 1342.15 163.1 1343.24 166.846L1356.87 213.694C1357.99 217.541 1359.13 220.715 1360.26 223.194L1360.27 223.203C1360.78 224.324 1361.28 225.291 1361.76 226.101C1362.1 225.375 1362.43 224.531 1362.76 223.565C1363.59 221.143 1364.37 218.063 1365.07 214.318L1382.37 122.378C1383.36 117.1 1385.09 112.433 1387.25 108.552C1389.63 104.274 1392.58 100.916 1395.72 98.6943C1397.27 97.5997 1398.88 96.7502 1400.5 96.1728C1402.15 95.5879 1403.86 95.2663 1405.58 95.2312C1407.47 95.1936 1409.33 95.4958 1411.1 96.1553C1412.82 96.8004 1414.45 97.7702 1415.93 99.0786C1418.25 101.12 1420.25 104.053 1421.71 107.928C1423 111.339 1423.89 115.509 1424.23 120.48L1430.05 204.885L1431.83 230.701C1432.1 234.632 1432.69 237.852 1433.48 240.355C1434.05 242.17 1434.71 243.558 1435.4 244.524C1435.95 243.654 1436.48 242.433 1436.95 240.855C1437.65 238.468 1438.17 235.358 1438.4 231.507C1439.09 220.141 1440.72 210.653 1443.13 202.758C1445.58 194.734 1448.84 188.336 1452.75 183.259C1456.88 177.892 1461.68 174.009 1466.97 171.266C1471.73 168.797 1476.87 167.259 1482.28 166.386V166.054H1484.94H1559.53H1562.18V168.71V178.297V180.956H1559.53H1485.32C1481.21 181.564 1477.34 182.664 1473.86 184.471C1470.36 186.286 1467.21 188.836 1464.51 192.345C1461.55 196.188 1459.05 201.215 1457.14 207.709C1455.19 214.337 1453.85 222.469 1453.25 232.38C1452.91 237.969 1451.98 242.696 1450.65 246.54C1449.12 250.956 1447.04 254.261 1444.7 256.435C1443.34 257.693 1441.87 258.643 1440.32 259.278C1438.71 259.937 1437.03 260.254 1435.32 260.234C1433.65 260.212 1432 259.863 1430.44 259.2H1430.42C1428.91 258.558 1427.46 257.613 1426.11 256.374H1426.1C1423.66 254.129 1421.46 250.703 1419.82 246.17C1418.39 242.207 1417.37 237.361 1416.98 231.692L1415.2 205.873L1409.39 121.47C1409.17 118.326 1408.72 115.825 1408.11 113.917C1407.53 112.113 1406.83 110.914 1406.09 110.26V110.249C1406 110.166 1405.91 110.107 1405.85 110.082C1405.74 110.084 1405.56 110.132 1405.33 110.223L1405.33 110.214C1405.03 110.332 1404.68 110.537 1404.28 110.815L1404.28 110.809C1402.75 111.891 1401.25 113.717 1399.95 116.187C1398.69 118.603 1397.64 121.608 1396.98 125.111L1379.68 217.054C1378.77 221.916 1377.67 226.039 1376.42 229.407C1375.07 233.054 1373.53 235.899 1371.85 237.932C1370.55 239.501 1369.12 240.711 1367.57 241.546C1365.95 242.419 1364.22 242.881 1362.39 242.932C1360.62 242.984 1358.9 242.636 1357.25 241.884C1355.67 241.168 1354.16 240.087 1352.74 238.653C1350.82 236.706 1348.96 233.906 1347.22 230.29V230.28C1345.58 226.885 1344.03 222.725 1342.61 217.831L1328.98 170.978C1328.33 168.746 1327.5 166.809 1326.56 165.232C1325.67 163.727 1324.7 162.594 1323.73 161.895L1323.74 161.89C1323.56 161.765 1323.4 161.662 1323.24 161.586C1322.62 162.176 1322 163.189 1321.42 164.674C1320.79 166.272 1320.26 168.317 1319.85 170.845L1308.38 241.566C1307.84 244.933 1307.16 247.718 1306.4 249.962C1305.53 252.518 1304.51 254.478 1303.38 255.896C1302.19 257.394 1300.86 258.461 1299.42 259.13H1299.41C1297.86 259.845 1296.21 260.106 1294.47 259.939C1293.04 259.804 1291.69 259.372 1290.45 258.676C1289.24 257.997 1288.11 257.053 1287.08 255.877L1287.07 255.882C1285.67 254.282 1284.33 252.049 1283.11 249.349C1281.93 246.737 1280.83 243.602 1279.88 240.133C1276.96 229.505 1271.93 220.729 1265.1 213.538C1258.23 206.31 1249.52 200.643 1239.29 196.282C1231.65 193.017 1223.14 190.458 1213.91 188.502C1204.64 186.54 1194.65 185.182 1184.07 184.331C1182.8 184.322 1168.62 184.48 1152.41 184.661C1129.29 184.921 1102.02 185.225 1101.36 185.148L1099 184.873V182.511V172.997V170.381L1101.64 170.349L1110.91 170.24C1132.11 169.99 1182.24 169.391 1185.13 169.508Z" fill="white"/>
<path d="M1126.08 336.623H1101.32V293.498H1125.2L1124.69 297.906L1109.7 298.126V312.085L1123.88 312.305L1123.44 316.199L1109.7 316.566V331.994L1126.38 332.435L1126.08 336.623ZM1166.76 336.843L1137.82 306.575H1137.75C1137.75 309.146 1137.82 311.424 1137.89 313.554C1137.89 314.509 1137.89 315.391 1138.04 316.199C1138.04 317.154 1138.04 318.036 1138.04 318.77C1138.04 319.578 1138.04 320.24 1138.04 320.827C1138.04 321.415 1138.04 321.782 1138.04 322.076V336.623H1133.12V293.204H1136.79L1165.81 323.325C1165.81 320.974 1165.74 318.77 1165.74 316.787C1165.74 315.905 1165.74 315.097 1165.74 314.215C1165.74 313.26 1165.74 312.379 1165.59 311.644C1165.59 310.762 1165.59 310.101 1165.59 309.44C1165.59 308.779 1165.59 308.191 1165.59 307.75V293.498H1170.51V336.843H1166.76ZM1205.76 319.946L1196.65 319.505L1197.01 316.052H1214.28V333.537C1213.32 333.905 1212.15 334.419 1210.83 334.786C1209.5 335.3 1207.96 335.668 1206.42 335.962C1204.8 336.329 1203.11 336.623 1201.42 336.843C1199.81 337.137 1198.04 337.211 1196.5 337.211C1193.34 337.211 1190.62 336.623 1188.42 335.594C1186.21 334.419 1184.38 332.949 1182.91 330.966C1181.51 329.056 1180.56 326.631 1179.9 323.913C1179.16 321.121 1178.94 318.036 1178.94 314.656C1178.94 311.35 1179.46 308.338 1180.56 305.693C1181.66 302.975 1183.2 300.697 1185.26 298.787C1187.24 296.951 1189.67 295.555 1192.39 294.6C1195.18 293.498 1198.26 293.057 1201.64 293.057C1202.38 293.057 1203.33 293.057 1204.36 293.13C1205.32 293.204 1206.42 293.204 1207.37 293.351C1208.4 293.424 1209.28 293.645 1210.24 293.718C1211.12 293.865 1211.85 294.012 1212.37 294.159L1210.97 300.404C1210.31 300.183 1209.36 300.036 1208.33 299.742C1207.3 299.522 1206.2 299.375 1204.95 299.155C1203.85 299.008 1202.67 298.787 1201.5 298.714C1200.39 298.567 1199.29 298.493 1198.48 298.493C1196.94 298.493 1195.55 298.567 1194.22 298.861C1192.9 299.081 1191.65 299.669 1190.62 300.477C1190.04 300.991 1189.52 301.652 1189.08 302.681C1188.71 303.783 1188.42 304.885 1188.2 306.134C1187.98 307.53 1187.83 308.926 1187.76 310.395C1187.61 311.938 1187.61 313.334 1187.61 314.803C1187.61 320.534 1188.42 324.942 1189.74 328.027C1191.14 331.039 1193.49 332.582 1196.5 332.582C1197.31 332.582 1198.04 332.582 1198.92 332.509C1199.81 332.435 1200.69 332.288 1201.5 332.215C1202.38 332.141 1203.11 331.994 1203.85 331.921C1204.58 331.7 1205.24 331.627 1205.76 331.554L1205.76 319.946ZM1247.8 336.623H1223.04V293.498H1246.92L1246.4 297.906L1231.42 298.126V312.085L1245.59 312.305L1245.15 316.199L1231.42 316.566V331.994L1248.09 332.435L1247.8 336.623ZM1288.48 336.843L1259.54 306.575H1259.46C1259.46 309.146 1259.54 311.424 1259.61 313.554C1259.61 314.509 1259.61 315.391 1259.76 316.199C1259.76 317.154 1259.76 318.036 1259.76 318.77C1259.76 319.578 1259.76 320.24 1259.76 320.827C1259.76 321.415 1259.76 321.782 1259.76 322.076V336.623H1254.83V293.204H1258.51L1287.53 323.325C1287.53 320.974 1287.45 318.77 1287.45 316.787C1287.45 315.905 1287.45 315.097 1287.45 314.215C1287.45 313.26 1287.45 312.379 1287.31 311.644C1287.31 310.762 1287.31 310.101 1287.31 309.44C1287.31 308.779 1287.31 308.191 1287.31 307.75V293.498H1292.23V336.843H1288.48ZM1328.72 336.623V317.154H1310.14V336.623H1301.76V293.498H1310.14V312.379H1328.72V293.498H1337.02V336.623H1328.72ZM1372.38 336.623L1367.61 322.076L1352.18 322.37L1347.18 336.623H1341.89L1358.13 293.865L1366.28 292.469L1381.42 336.623H1372.38ZM1366.28 318.036L1360.11 299.448L1353.72 318.036H1366.28ZM1397.23 318.77H1394.51V336.623H1386.14V293.645C1387.9 293.424 1389.66 293.351 1391.87 293.204C1394 293.13 1396.06 293.13 1397.97 293.13C1402.89 293.13 1406.63 294.085 1409.21 295.995C1411.85 297.906 1413.1 300.918 1413.1 304.885C1413.1 306.722 1412.88 308.264 1412.36 309.587C1412 310.983 1411.41 312.085 1410.68 313.187C1410.01 314.142 1409.13 314.95 1408.18 315.611C1407.3 316.346 1406.27 316.86 1405.31 317.374C1406.49 319.578 1407.59 321.709 1408.77 323.619C1409.94 325.603 1410.97 327.366 1412.14 328.762C1413.17 330.231 1414.35 331.48 1415.45 332.288C1416.63 333.096 1417.8 333.537 1419.12 333.537H1419.42V336.329C1418.76 336.549 1417.95 336.696 1417.07 336.917C1416.26 336.99 1415.3 337.137 1414.2 337.137C1412.66 337.137 1411.34 336.99 1410.31 336.696C1409.13 336.402 1408.03 335.741 1406.93 334.786C1405.9 333.905 1404.72 332.509 1403.62 330.672C1402.45 328.835 1401.12 326.484 1399.58 323.325L1397.23 318.77ZM1396.06 314.583C1397.16 314.583 1398.26 314.362 1399.29 314.142C1400.39 313.848 1401.2 313.407 1401.86 313.04C1402.15 312.893 1402.45 312.599 1402.81 312.158C1403.11 311.791 1403.4 311.424 1403.62 310.836C1403.84 310.248 1404.06 309.587 1404.28 308.632C1404.36 307.75 1404.43 306.722 1404.43 305.399C1404.43 303.93 1404.28 302.681 1403.99 301.726C1403.7 300.697 1403.11 299.963 1402.52 299.375C1401.86 298.714 1400.98 298.273 1400.02 297.979C1399.07 297.759 1398.04 297.612 1396.79 297.612C1396.42 297.612 1396.06 297.612 1395.61 297.612C1395.25 297.612 1394.88 297.759 1394.51 297.759V314.583H1396.06ZM1431.96 336.623H1423.59V293.498H1431.96V336.623ZM1467.37 336.623L1462.6 322.076L1447.17 322.37L1442.17 336.623H1436.88L1453.12 293.865L1461.28 292.469L1476.41 336.623H1467.37ZM1461.28 318.036L1455.1 299.448L1448.71 318.036H1461.28ZM1519.26 336.623L1514.48 322.076L1499.06 322.37L1494.06 336.623H1488.77L1505.01 293.865L1513.16 292.469L1528.3 336.623H1519.26ZM1513.16 318.036L1506.99 299.448L1500.6 318.036H1513.16ZM1549.47 337.211C1546.24 337.211 1543.6 336.623 1541.24 335.594C1539.04 334.419 1537.28 332.949 1535.81 330.966C1534.34 329.056 1533.38 326.631 1532.72 323.913C1532.06 321.121 1531.77 318.036 1531.77 314.656C1531.77 312.011 1532.06 309.587 1532.72 307.383C1533.31 305.326 1534.19 303.489 1535.29 301.873C1536.4 300.183 1537.64 298.861 1539.04 297.759C1540.44 296.583 1541.91 295.702 1543.6 295.04C1545.14 294.306 1546.75 293.791 1548.37 293.498C1549.99 293.204 1551.6 293.057 1553.15 293.057C1554.1 293.057 1555.13 293.057 1556.23 293.13C1557.33 293.204 1558.44 293.204 1559.39 293.424C1560.42 293.498 1561.37 293.645 1562.26 293.791C1563.14 293.865 1563.8 294.012 1564.39 294.159L1562.84 300.33C1562.26 300.11 1561.45 299.963 1560.42 299.742C1559.39 299.522 1558.29 299.375 1557.19 299.155C1555.94 299.008 1554.76 298.787 1553.73 298.714C1552.56 298.567 1551.6 298.493 1550.87 298.493C1549.99 298.493 1549.25 298.493 1548.66 298.567C1548 298.567 1547.27 298.714 1546.83 298.861C1546.24 299.008 1545.8 299.155 1545.29 299.448C1544.84 299.669 1544.26 300.036 1543.74 300.33C1542.49 301.285 1541.69 302.975 1541.17 305.473C1540.73 307.971 1540.51 311.13 1540.51 314.877C1540.51 320.754 1541.39 325.015 1543.08 328.027C1544.84 330.966 1547.56 332.509 1551.31 332.509C1553.51 332.509 1555.72 332.288 1558.14 331.921C1560.42 331.627 1562.55 331.039 1564.46 330.525V334.051C1563.43 334.492 1562.26 335.007 1561.01 335.374C1559.76 335.741 1558.51 336.109 1557.26 336.329C1555.94 336.623 1554.62 336.843 1553.37 336.99C1551.97 337.137 1550.72 337.211 1549.47 337.211ZM1606.65 321.415C1606.65 323.619 1606.28 325.603 1605.55 327.513C1604.66 329.423 1603.49 331.039 1602.02 332.509C1600.33 333.905 1598.42 335.08 1596.14 335.962C1593.72 336.843 1591.07 337.211 1587.99 337.211C1585.49 337.211 1583.21 336.917 1581.23 336.402C1579.17 335.888 1577.34 335.007 1575.94 333.831C1574.47 332.582 1573.37 331.039 1572.56 329.129C1571.83 327.146 1571.46 324.868 1571.46 321.929V293.498H1579.76V322.811C1579.76 324.942 1579.98 326.631 1580.35 327.88C1580.71 329.276 1581.3 330.231 1582.04 330.892C1582.7 331.554 1583.73 331.994 1584.83 332.215C1585.86 332.435 1587.25 332.509 1588.65 332.509C1590.41 332.509 1591.96 332.288 1593.2 331.921C1594.53 331.554 1595.56 331.039 1596.44 330.378C1597.32 329.79 1597.76 328.835 1598.05 327.513C1598.27 326.19 1598.35 324.574 1598.35 322.664V293.498H1606.65V321.415ZM1591.66 276.012L1595.85 280.274L1585.42 289.383L1582.7 286.739L1591.66 276.012ZM1640.81 323.986C1640.81 325.529 1640.37 327.072 1639.64 328.688C1638.97 330.231 1637.8 331.627 1636.48 332.876C1635.01 334.125 1633.32 335.153 1631.41 335.962C1629.35 336.843 1627.15 337.211 1624.72 337.211C1623.47 337.211 1622.22 337.137 1621.05 336.99C1620.02 336.843 1618.92 336.623 1617.89 336.329C1616.93 336.035 1615.98 335.741 1615.1 335.374C1614.14 335.007 1613.26 334.492 1612.31 334.051L1614.44 327.586C1615.02 328.101 1615.76 328.468 1616.86 328.982C1617.82 329.423 1618.84 329.79 1620.02 330.231C1621.12 330.672 1622.3 330.966 1623.47 331.26C1624.72 331.554 1625.75 331.627 1626.71 331.627C1627.73 331.627 1628.69 331.554 1629.35 331.48C1630.08 331.26 1630.75 331.039 1631.33 330.892C1631.85 330.598 1632.36 330.011 1632.73 328.982C1633.1 328.027 1633.32 326.631 1633.32 325.162C1633.32 323.619 1632.8 322.444 1631.85 321.562C1630.89 320.754 1629.64 319.946 1628.25 319.358C1626.78 318.697 1625.24 318.036 1623.55 317.448C1621.93 316.787 1620.31 315.905 1618.84 314.95C1617.37 313.921 1616.2 312.673 1615.17 311.056C1614.22 309.44 1613.77 307.383 1613.77 304.812C1613.77 303.563 1614.14 302.24 1614.73 300.918C1615.39 299.448 1616.35 298.2 1617.6 297.024C1618.84 295.775 1620.46 294.82 1622.3 294.159C1624.13 293.424 1626.19 293.057 1628.54 293.057C1630.45 293.057 1632.29 293.13 1633.98 293.351C1635.74 293.498 1637.36 293.718 1638.97 294.085L1637.65 300.404C1636.92 300.11 1636.11 299.963 1635.15 299.669C1634.2 299.375 1633.24 299.155 1632.29 299.008C1631.19 298.787 1630.23 298.714 1629.35 298.567C1628.39 298.42 1627.59 298.42 1626.93 298.42C1626.04 298.42 1625.24 298.42 1624.57 298.493C1623.91 298.567 1623.33 298.787 1622.74 299.155C1622.22 299.448 1621.78 300.036 1621.64 300.771C1621.34 301.579 1621.27 302.387 1621.27 303.489C1621.27 304.518 1621.56 305.473 1622.08 306.134C1622.66 306.942 1623.33 307.53 1624.28 308.044C1625.24 308.632 1626.19 309.146 1627.44 309.587C1628.62 309.954 1629.79 310.542 1631.04 311.056C1632.29 311.497 1633.39 312.085 1634.64 312.746C1635.82 313.407 1636.84 314.289 1637.73 315.244C1638.68 316.346 1639.34 317.448 1639.93 318.917C1640.52 320.24 1640.81 321.929 1640.81 323.986ZM1655.91 336.623V297.979L1643.35 297.832L1643.71 293.498H1676.92L1676.48 297.759L1664.21 297.979V336.623H1655.91ZM1690.6 336.623H1682.23V293.498H1690.6V336.623ZM1716.68 337.211C1713.45 337.211 1710.81 336.623 1708.46 335.594C1706.25 334.419 1704.49 332.949 1703.02 330.966C1701.55 329.056 1700.59 326.631 1699.93 323.913C1699.27 321.121 1698.98 318.036 1698.98 314.656C1698.98 312.011 1699.27 309.587 1699.93 307.383C1700.52 305.326 1701.4 303.489 1702.5 301.873C1703.61 300.183 1704.86 298.861 1706.25 297.759C1707.65 296.583 1709.12 295.702 1710.81 295.04C1712.35 294.306 1713.97 293.791 1715.58 293.498C1717.2 293.204 1718.81 293.057 1720.36 293.057C1721.31 293.057 1722.34 293.057 1723.44 293.13C1724.54 293.204 1725.65 293.204 1726.6 293.424C1727.63 293.498 1728.59 293.645 1729.47 293.791C1730.35 293.865 1731.01 294.012 1731.6 294.159L1730.05 300.33C1729.47 300.11 1728.66 299.963 1727.63 299.742C1726.6 299.522 1725.5 299.375 1724.4 299.155C1723.15 299.008 1721.97 298.787 1720.94 298.714C1719.77 298.567 1718.81 298.493 1718.08 298.493C1717.2 298.493 1716.46 298.493 1715.88 298.567C1715.21 298.567 1714.48 298.714 1714.04 298.861C1713.45 299.008 1713.01 299.155 1712.5 299.448C1712.06 299.669 1711.47 300.036 1710.95 300.33C1709.7 301.285 1708.9 302.975 1708.38 305.473C1707.94 307.971 1707.72 311.13 1707.72 314.877C1707.72 320.754 1708.6 325.015 1710.29 328.027C1712.06 330.966 1714.77 332.509 1718.52 332.509C1720.72 332.509 1722.93 332.288 1725.35 331.921C1727.63 331.627 1729.76 331.039 1731.67 330.525V334.051C1730.64 334.492 1729.47 335.007 1728.22 335.374C1726.97 335.741 1725.72 336.109 1724.47 336.329C1723.15 336.623 1721.83 336.843 1720.58 336.99C1719.18 337.137 1717.93 337.211 1716.68 337.211ZM1764.6 336.623L1759.83 322.076L1744.4 322.37L1739.4 336.623H1734.11L1750.35 293.865L1758.51 292.469L1773.64 336.623H1764.6ZM1758.51 318.036L1752.33 299.448L1745.94 318.036H1758.51ZM1791.05 285.563H1795.39V352.492H1791.05V285.563ZM1852.76 321.415C1852.76 323.619 1852.4 325.603 1851.66 327.513C1850.78 329.423 1849.6 331.039 1848.13 332.509C1846.45 333.905 1844.54 335.08 1842.26 335.962C1839.83 336.843 1837.19 337.211 1834.1 337.211C1831.6 337.211 1829.33 336.917 1827.34 336.402C1825.29 335.888 1823.45 335.007 1822.05 333.831C1820.58 332.582 1819.48 331.039 1818.67 329.129C1817.94 327.146 1817.57 324.868 1817.57 321.929V293.498H1825.87V322.811C1825.87 324.942 1826.1 326.631 1826.46 327.88C1826.83 329.276 1827.42 330.231 1828.15 330.892C1828.81 331.554 1829.84 331.994 1830.94 332.215C1831.97 332.435 1833.37 332.509 1834.76 332.509C1836.53 332.509 1838.07 332.288 1839.32 331.921C1840.64 331.554 1841.67 331.039 1842.55 330.378C1843.43 329.79 1843.87 328.835 1844.17 327.513C1844.39 326.19 1844.46 324.574 1844.46 322.664V293.498H1852.76L1852.76 321.415ZM1870.52 336.623H1862.15V293.498H1886.39L1886.03 297.832L1870.52 297.979V313.334L1885.44 313.554L1885.07 317.448L1870.52 317.815L1870.52 336.623ZM1917.47 323.986C1917.47 325.529 1917.03 327.072 1916.29 328.688C1915.63 330.231 1914.46 331.627 1913.13 332.876C1911.67 334.125 1909.98 335.153 1908.07 335.962C1906.01 336.843 1903.8 337.211 1901.38 337.211C1900.13 337.211 1898.88 337.137 1897.71 336.99C1896.68 336.843 1895.58 336.623 1894.55 336.329C1893.59 336.035 1892.64 335.741 1891.76 335.374C1890.8 335.007 1889.92 334.492 1888.96 334.051L1891.09 327.586C1891.68 328.101 1892.42 328.468 1893.52 328.982C1894.47 329.423 1895.5 329.79 1896.68 330.231C1897.78 330.672 1898.96 330.966 1900.13 331.26C1901.38 331.554 1902.41 331.627 1903.36 331.627C1904.39 331.627 1905.35 331.554 1906.01 331.48C1906.74 331.26 1907.4 331.039 1907.99 330.892C1908.51 330.598 1909.02 330.011 1909.39 328.982C1909.76 328.027 1909.98 326.631 1909.98 325.162C1909.98 323.619 1909.46 322.444 1908.51 321.562C1907.55 320.754 1906.3 319.946 1904.91 319.358C1903.44 318.697 1901.89 318.036 1900.2 317.448C1898.59 316.787 1896.97 315.905 1895.5 314.95C1894.03 313.921 1892.86 312.673 1891.83 311.056C1890.87 309.44 1890.43 307.383 1890.43 304.812C1890.43 303.563 1890.8 302.24 1891.39 300.918C1892.05 299.448 1893 298.2 1894.25 297.024C1895.5 295.775 1897.12 294.82 1898.96 294.159C1900.79 293.424 1902.85 293.057 1905.2 293.057C1907.11 293.057 1908.95 293.13 1910.64 293.351C1912.4 293.498 1914.02 293.718 1915.63 294.085L1914.31 300.404C1913.58 300.11 1912.77 299.963 1911.81 299.669C1910.86 299.375 1909.9 299.155 1908.95 299.008C1907.84 298.787 1906.89 298.714 1906.01 298.567C1905.05 298.42 1904.24 298.42 1903.58 298.42C1902.7 298.42 1901.89 298.42 1901.23 298.493C1900.57 298.567 1899.98 298.787 1899.4 299.155C1898.88 299.448 1898.44 300.036 1898.29 300.771C1898 301.579 1897.93 302.387 1897.93 303.489C1897.93 304.518 1898.22 305.473 1898.73 306.134C1899.32 306.942 1899.98 307.53 1900.94 308.044C1901.89 308.632 1902.85 309.146 1904.1 309.587C1905.27 309.954 1906.45 310.542 1907.7 311.056C1908.95 311.497 1910.05 312.085 1911.3 312.746C1912.47 313.407 1913.5 314.289 1914.38 315.244C1915.34 316.346 1916 317.448 1916.59 318.917C1917.17 320.24 1917.47 321.929 1917.47 323.986ZM1966.51 336.623L1963.13 303.783L1948.36 336.623H1945.79L1930.36 303.783L1927.57 336.623H1922.8L1926.91 293.204H1934.77L1949.17 323.766L1962.76 293.204H1970.4L1974.88 336.623H1966.51Z" fill="white"/>
<path d="M1665.39 88.9101V107.277H1595.15V163.7H1665.39V182.066H1595.15V238.489H1665.39V256.856H1574.14V88.9101H1665.39ZM1765.23 168.916L1748.99 124.248L1732.98 168.916H1765.23ZM1758.32 88.9101L1819.01 256.856H1797.26L1771.99 187.062H1726.29L1700.5 256.856H1678.32L1739.95 88.9101H1758.32ZM1963.06 219.828L1977.68 232.979C1958.79 250.17 1938 258.766 1915.3 258.766C1890.91 258.766 1870.12 250.17 1853.44 233.42C1836.47 216.743 1828.1 196.392 1828.1 172.736C1828.1 149.594 1836.47 129.244 1853.44 112.346C1870.12 95.3752 1890.91 87 1915.3 87C1938 87 1958.79 95.5956 1977.68 112.787L1963.06 125.938C1947.55 112.346 1931.76 105.587 1915.3 105.587C1897.38 105.587 1881.87 112.052 1868.94 124.982C1855.79 138.133 1849.33 154.149 1849.33 172.736C1849.33 191.838 1855.79 207.853 1868.94 220.784C1881.87 233.714 1897.38 240.399 1915.3 240.399C1931.76 240.399 1947.55 233.42 1963.06 219.828Z" fill="white" stroke="white" stroke-width="0.378" stroke-miterlimit="22.9256"/>
<path fill-rule="evenodd" clip-rule="evenodd" d="M140.56 4.70787e-05C134.155 0.898714 127.134 0.148039 122.482 4.29204C118.25 8.06404 115.132 14.6841 110.58 18.5481C104.719 23.5227 99.3698 22.9321 95.2191 30.8494C91.8991 37.1881 93.6085 45.5241 100.186 50.2014C98.5898 45.5107 99.6484 36.8734 105.334 33.4147C104.71 37.2841 105.728 43.984 108.154 47.1627C107.734 39.52 113.176 28.8147 121.838 24.1934C120.694 27.0214 115.96 35.6347 120.588 46.7481C121.994 40.6214 126.242 36.0734 132.146 34.1347C129.978 37.7561 127.699 46.3627 130.176 51.3681C137.423 48.6707 135.875 42.9081 140.111 36.1401C145.094 28.1761 141.483 24.5361 140.839 17.2721C138.238 20.6561 139.126 26.5387 131.711 28.4387C128.21 29.3347 126.662 26.1707 128.384 23.464C134.939 13.1574 130.568 9.74271 140.56 4.70787e-05ZM76.753 4.70787e-05C70.3478 0.898714 63.3259 0.148039 58.6739 4.29204C54.4421 8.06404 51.3265 14.6841 46.7723 18.5481C40.913 23.5227 35.5625 22.9321 31.4139 30.8494C28.0915 37.1881 29.801 45.5241 36.3791 50.2014C34.7822 45.5107 35.8406 36.8734 41.5259 33.4147C40.9021 37.2841 41.9223 43.984 44.3463 47.1627C43.9286 39.52 49.3713 28.8147 58.0302 24.1934C56.8863 27.0214 52.1521 35.6347 56.7806 46.7481C58.1879 40.6214 62.4327 36.0734 68.3379 34.1347C66.1718 37.7561 63.8915 46.3627 66.3687 51.3681C73.6161 48.6707 72.0682 42.9081 76.3035 36.1401C81.2858 28.1761 77.677 24.5361 77.0311 17.2721C74.4306 20.6561 75.3182 26.5387 67.9051 28.4387C64.4025 29.3347 62.8551 26.1707 64.577 23.464C71.1333 13.1574 66.7614 9.74271 76.753 4.70787e-05ZM204.491 4.70787e-05C198.086 0.898714 191.064 0.148039 186.412 4.29204C182.18 8.06404 179.063 14.6841 174.511 18.5481C168.65 23.5227 163.3 22.9321 159.15 30.8494C155.83 37.1881 157.539 45.5241 164.118 50.2014C162.52 45.5107 163.582 36.8734 169.264 33.4147C168.64 37.2841 169.66 43.984 172.084 47.1627C171.667 39.52 177.11 28.8147 185.77 24.1934C184.624 27.0214 179.891 35.6347 184.519 46.7481C185.927 40.6214 190.174 36.0734 196.076 34.1347C193.908 37.7561 191.632 46.3627 194.107 51.3681C201.356 48.6707 199.81 42.9081 204.043 36.1401C209.026 28.1787 205.414 24.5361 204.771 17.2721C202.17 20.6561 203.056 26.5414 195.643 28.4387C192.14 29.3347 190.595 26.1707 192.315 23.464C198.872 13.16 194.5 9.74271 204.491 4.70787e-05ZM123.956 292.563C123.874 294.427 123.818 295.997 123.74 297.861C123.643 300.182 123.764 300.576 126.032 300.751C126.024 300.991 125.991 301.292 125.982 301.529C121.603 301.271 117.64 301.265 113.022 301.284C113.02 301.047 113.016 300.811 113.014 300.572C114.138 300.473 115.004 300.027 114.679 298.854C114.354 297.674 113.564 295.717 113.195 294.718C111.08 294.797 109.074 294.888 106.962 294.998C106.65 295.9 105.888 297.952 105.542 299.168C105.183 300.436 106.268 300.744 107.347 300.767L107.352 301.478C105.694 301.567 103.758 301.669 101.923 301.824L101.915 301.127C103.172 300.782 103.478 300.509 103.94 299.36C105.695 294.991 109.363 284.325 110.336 281.156C110.522 281.149 110.71 281.138 110.898 281.133C111.779 283.468 115.819 294.66 117.456 298.581C117.911 299.676 118.34 300.387 119.659 300.422C120.968 300.458 121.122 299.123 121.188 297.73C121.394 293.496 121.524 289.129 121.695 284.894C121.79 282.529 121.688 282.133 119.4 282.004C119.41 281.764 119.416 281.524 119.426 281.282C121.515 281.384 123.6 281.38 125.687 281.528C128.072 281.694 130.084 282.31 131.392 284.461C132.682 286.584 132.41 289.921 130.607 291.67C128.824 293.403 126.104 293.236 123.956 292.563ZM112.768 293.476C111.843 290.996 110.916 288.515 109.983 286.036C109.083 288.597 108.294 291.152 107.399 293.714C109.227 293.622 110.943 293.545 112.768 293.476ZM187.618 310.422L187.698 309.617C189.775 309.724 190.03 309.091 190.295 306.972C190.846 302.571 191.27 298.721 191.876 294.331C192.203 291.979 191.604 291.785 189.839 291.655L189.907 290.706C192.815 290.861 195.187 290.803 197.546 290.701L197.435 291.658C195.434 291.797 194.882 292.236 194.518 294.591C193.839 298.965 193.379 302.804 192.772 307.187C192.53 308.924 192.506 310.05 194.343 310.051C195.783 310.055 196.452 309.64 197.24 307.362C199.15 301.838 201.128 295.644 203.104 290.172C207.203 289.611 209.935 288.864 212.895 287.949C212.983 289.344 212.968 289.862 213.055 291.232L212.459 291.541C212.255 290.063 211.79 289.428 210.203 289.933C209.071 290.297 207.324 290.73 206.204 290.955C206.328 293.418 206.51 296.067 206.618 298.53C207.492 298.281 208.372 298.023 209.251 297.724C210.93 297.155 211.072 296.391 211.08 294.731C211.274 294.66 211.468 294.587 211.663 294.513C211.714 296.701 211.755 298.299 211.798 300.487C211.607 300.576 211.42 300.651 211.235 300.727C211.07 299.299 211.084 298.321 209.311 298.932C208.431 299.234 207.547 299.505 206.672 299.761C206.748 301.754 206.816 303.746 206.888 305.725C206.922 306.627 206.695 307.794 207.843 307.363C208.518 307.109 209.456 306.748 210.135 306.454C211.484 305.865 212.436 304.675 213.179 302.213C213.384 302.104 213.588 301.997 213.794 301.887C213.419 303.662 213.295 304.434 212.931 306.207C210.128 308.112 206.412 309.471 203.41 310.046L203.396 309.305C205.228 308.765 205.04 307.873 204.966 306.089C204.884 304.161 204.788 302.227 204.695 300.283C203.44 300.594 202.196 300.885 200.954 301.156C200.16 303.355 199.412 305.598 198.627 307.765C197.948 309.642 198.26 310.235 200.291 309.799L200.339 310.528C195.683 311.017 191.386 310.775 187.618 310.422ZM204.24 291.553C203.252 294.153 202.322 297.084 201.507 299.74C202.543 299.52 203.588 299.296 204.636 299.052C204.54 297.272 204.32 293.307 204.24 291.553ZM188.843 290.634C188.724 292.312 188.54 293.891 188.42 295.57C188.21 295.567 187.992 295.564 187.779 295.551C187.806 293.623 187.634 291.934 185.347 291.688C184.614 291.609 183.786 291.512 183.034 291.45C182.443 296.588 181.964 301.069 181.37 306.203C181.107 308.447 181.302 309.027 183.415 309.238C183.386 309.486 183.355 309.726 183.328 309.967C180.916 309.708 178.236 309.264 175.99 308.908C176.02 308.667 176.051 308.425 176.08 308.184C178.079 308.486 178.512 308.222 178.798 305.834C179.407 300.736 179.903 296.239 180.507 291.137C179.871 291.063 179.232 290.975 178.599 290.901C176.219 290.617 175.434 291.712 174.98 294.047C174.767 294.022 174.552 293.991 174.339 293.963C174.604 292.347 174.846 290.644 175.115 289.021C179.428 289.715 184.231 290.401 188.843 290.634ZM157.47 285.752C158.911 286.027 160.347 286.3 161.776 286.573C164.244 291.91 166.832 296.695 169.374 301.998C169.804 298.365 170.154 295.384 170.575 291.752C170.827 289.599 170.592 289.002 168.716 288.67C168.75 288.416 168.776 288.166 168.804 287.909C170.6 288.238 172.414 288.595 174.342 288.893C174.312 289.149 174.287 289.408 174.256 289.661C172.358 289.357 172.052 289.662 171.807 291.796C171.17 297.33 170.588 302.324 169.931 307.86C169.736 307.829 169.538 307.798 169.34 307.769C166.588 302.062 163.8 296.895 161.119 291.157C160.634 295.038 160.126 298.612 159.707 302.498C159.472 304.699 159.707 305.052 161.526 305.477L161.383 306.274C159.543 305.903 157.619 305.612 155.748 305.239C155.791 304.992 155.876 304.701 155.923 304.448C157.71 304.741 158.248 304.39 158.472 302.276C158.96 297.755 159.571 293.552 160.139 289.039C159.463 287.64 158.987 286.8 157.367 286.501C157.403 286.252 157.434 286.003 157.47 285.752ZM147.496 285.35C147.216 287.849 146.94 290.348 146.662 292.847C147.855 293.049 149.05 293.251 150.236 293.474C152.296 293.867 152.756 293.327 153.086 291.317C153.292 291.366 153.506 291.408 153.716 291.455C153.446 293.773 153.231 295.718 152.966 298.034C152.756 297.99 152.548 297.946 152.338 297.897C152.343 296.15 152.174 295.118 150.123 294.705C148.93 294.463 147.724 294.276 146.526 294.073C146.279 296.337 146.051 297.801 145.816 300.065C145.676 301.431 145.41 302.12 146.91 302.38C147.836 302.54 148.991 302.737 149.927 302.877C152.627 303.282 153.32 302.478 154.846 300.076C155.066 300.13 155.286 300.192 155.51 300.251C154.816 301.805 154.222 303.302 153.536 304.855C148.728 303.988 144.858 303.462 140.591 302.88C140.616 302.648 140.64 302.299 140.666 302.062C142.83 302.229 143.099 302.002 143.338 299.79C143.806 295.418 144.218 291.543 144.688 287.171C144.939 284.847 144.678 284.415 142.583 284.064C142.608 283.828 142.654 283.488 142.679 283.246C147.126 283.896 151.388 284.644 155.84 285.449C155.728 286.952 155.56 288.065 155.454 289.566C155.231 289.518 155.011 289.467 154.791 289.413C154.74 287.28 154.351 286.573 152.082 286.116C150.587 285.814 149.054 285.578 147.496 285.35ZM138.588 301.82L138.516 302.624C135.907 302.311 133.82 302.097 131.022 301.873L131.107 301.036C133.42 301.058 133.531 300.818 133.743 298.432C134.12 294.174 134.508 290.075 134.91 285.82C135.127 283.517 135.09 282.979 132.679 282.818C132.702 282.55 132.72 282.33 132.748 282.053C135.374 282.218 137.988 282.702 140.528 282.948C140.5 283.222 140.471 283.494 140.444 283.764C138.316 283.495 137.891 283.766 137.654 286.125C137.228 290.388 136.83 294.444 136.428 298.708C136.204 301.096 136.33 301.513 138.588 301.82ZM101.798 281.857C101.843 284.117 101.879 285.83 101.927 288.091C101.708 288.116 101.492 288.138 101.278 288.164C100.939 285.892 99.9831 283.91 97.7644 283.557C96.4738 283.352 95.1698 283.701 94.2991 284.714C92.7058 286.578 93.5431 288.2 95.3725 289.302C97.2165 290.412 99.6005 291.094 101.295 292.338C104.306 294.547 103.356 299.178 100.639 301.313C98.7538 302.794 96.9365 302.559 94.6631 302.054C93.2378 301.738 92.5938 301.203 92.4031 302.794L91.7338 302.88C91.6818 300.636 91.6738 299.082 91.6258 296.837L92.2751 296.695C92.6405 298.648 93.0244 299.782 94.9311 300.689C96.4871 301.429 98.5338 301.438 99.6845 300.111C101.075 298.512 100.992 296.178 99.3138 295.016C97.4764 293.744 95.1111 293.168 93.2845 291.817C90.7645 289.953 90.6658 286.552 92.6751 284.226C93.9551 282.744 95.8831 282.046 97.8151 282.246C99.5058 282.422 100.768 284.061 101.148 281.924C101.367 281.9 101.582 281.877 101.798 281.857ZM123.998 291.541C125.515 291.972 126.87 292.079 128.114 290.706C129.306 289.388 129.424 286.925 128.834 285.309C128.335 283.944 127.36 283.015 125.875 282.91C125.462 282.883 125.007 282.91 124.339 283.046C124.219 285.725 124.103 288.862 123.998 291.541ZM43.2302 310.54C43.2135 310.289 43.2119 310.051 43.2259 309.778C45.4942 309.662 45.4906 308.94 45.3541 306.776C45.0885 302.548 44.7739 298.532 44.5139 294.302C44.3754 292.039 44.2469 291.474 42.0349 291.601C42.0202 291.347 42.0005 290.996 41.9874 290.737C44.2759 290.612 46.465 290.564 48.7223 290.204C52.3103 289.633 55.2437 289.983 57.3915 293.456C59.5869 297.008 59.6906 302.033 57.5849 305.675C56.0879 308.267 53.5869 309.397 50.6921 309.749C48.2035 310.055 45.7363 310.386 43.2302 310.54ZM48.0437 308.418C49.0786 308.575 49.8718 308.589 50.5593 308.505C52.5521 308.258 53.9311 307.218 54.9275 305.525C56.5989 302.686 56.4333 298.95 55.3239 295.955C54.2947 293.172 52.2775 290.985 49.2275 291.479C48.5218 291.592 47.7639 291.701 46.8765 292.101C47.2473 297.619 47.6582 302.9 48.0437 308.418ZM62.8639 289.494C62.977 292.085 63.0915 294.209 63.2057 296.801C64.4025 296.618 65.5994 296.418 66.7921 296.202C68.7655 295.846 69.2567 295.008 69.2494 293.216C69.4582 293.171 69.6729 293.12 69.8822 293.072C69.9802 295.453 70.0442 296.986 70.1406 299.366C69.9311 299.412 69.7259 299.461 69.5166 299.505C69.2349 297.77 68.627 297.161 66.8483 297.472C65.6541 297.681 64.4573 297.895 63.2639 298.076C63.3639 300.258 63.4515 302.029 63.5421 304.212C63.5953 305.496 63.4078 306.416 64.9302 306.158C65.8666 305.999 66.8125 305.81 67.7469 305.606C70.815 304.937 71.577 303.035 72.3885 300.465L73.0687 300.256C72.7578 302.184 72.201 304.281 71.7697 306.136C67.6363 306.89 63.6082 307.727 58.7379 308.505C58.727 308.258 58.7139 308.013 58.7046 307.765C60.9926 307.458 61.0926 306.668 60.9947 304.508C60.7926 300.133 60.5759 296.486 60.3781 292.112C60.2781 289.894 59.8505 289.523 57.8573 289.67C57.8447 289.418 57.8338 289.167 57.8245 288.918C62.2713 288.202 66.0775 287.429 70.9155 286.527C71.0625 288.062 71.2229 289.377 71.3625 290.868C71.1463 290.925 70.9317 290.979 70.7187 291.026C70.1969 288.605 69.8369 288.082 67.3635 288.608C65.8849 288.921 64.6463 289.153 62.8639 289.494ZM82.9311 284.244C83.0484 286.551 83.1551 288.371 83.2765 290.675C83.0711 290.724 82.8645 290.774 82.6578 290.823C82.3405 289.024 81.7005 287.216 79.8298 286.527C76.7442 285.39 73.2161 288.829 75.3713 291.228C76.7895 292.809 80.8791 294.387 82.8098 295.649C85.5391 297.437 85.5991 300.23 83.8445 302.677C82.1418 305.043 78.9991 305.357 76.7494 304.728C75.3453 304.333 74.5363 303.95 74.4327 305.61L73.7921 305.747C73.6833 303.48 73.7759 302.38 73.6759 300.112L74.3431 299.92C74.7249 301.77 74.9401 302.686 76.8385 303.451C78.4951 304.117 81.0218 303.862 82.1018 302.406C83.3165 300.767 82.4831 299.527 80.7671 298.423C78.5338 296.986 74.6947 295.821 73.2775 293.262C70.7639 288.729 75.7911 283.934 80.4391 285.155C81.6818 285.482 82.1578 285.694 82.3205 284.404C82.5245 284.352 82.7271 284.299 82.9311 284.244ZM26.5494 289.799C26.5838 291.774 26.6259 293.182 26.8297 295.446L26.1729 295.276C25.4395 292.339 23.0505 289.544 19.951 289.17C17.3103 288.849 16.9374 291.93 19.0401 293.638C21.477 295.618 26.7567 298.383 28.3515 301.367C30.8306 306.009 27.5582 310.702 23.5645 308.522C22.3953 307.885 21.1062 306.779 20.1406 305.856C19.4401 305.183 19.1254 305.336 19.5458 306.282L18.9109 305.844C18.2598 304.261 17.4885 301.651 17.103 299.716L17.8415 300.082C19.1109 303.201 21.0915 305.859 23.6739 307.502C25.8671 308.894 27.6639 306.849 26.3947 304.117C24.9958 301.107 20.5078 299.101 17.7926 296.204C15.0858 293.32 15.1245 288.529 18.8218 288.013C20.9207 287.72 22.9411 288.82 24.5745 289.984C25.4947 290.639 25.8437 290.855 25.8802 289.648L26.5494 289.799ZM32.7306 291.792C32.8926 294.303 33.1906 297.328 33.351 299.839C34.5021 299.983 35.6535 300.098 36.8046 300.13C38.8849 300.19 39.0963 299.349 39.0614 297.432C39.2802 297.428 39.4999 297.419 39.7197 297.415C39.8707 299.763 40.0087 301.98 40.1562 304.328C39.9379 304.335 39.7218 304.341 39.503 304.346C39.1619 302.455 39.0473 301.497 36.8702 301.422C35.7259 301.382 34.5806 301.275 33.4363 301.133C33.5707 303.249 33.6963 305.263 33.8379 307.374C33.9223 308.656 34.1369 309.491 35.2587 309.567C36.2297 309.635 37.1139 309.613 38.0213 309.648C40.5458 309.746 41.5035 308.435 42.2895 305.879L42.9573 305.963C42.5895 308.071 42.3915 308.951 41.9041 310.632C37.0469 310.924 33.0437 310.885 29.263 310.115C29.2463 309.856 29.2317 309.599 29.2155 309.339C31.1431 309.709 31.4797 309.275 31.3483 307.252C31.0759 302.991 30.6098 297.823 30.3499 293.56C30.2395 291.747 29.7879 291.203 27.8806 290.744C27.8645 290.485 27.8478 290.224 27.8354 289.961C32.4619 290.724 35.6317 290.842 40.5254 290.764C40.6838 292.267 40.8401 293.773 40.9983 295.275C40.7707 295.28 40.5421 295.293 40.3145 295.304C39.7707 292.956 39.1729 292.074 37.0207 292.027C35.5661 291.99 34.2223 291.939 32.7306 291.792ZM73.2687 155.044C71.3973 156.788 69.8515 158.323 71.9245 160.749C72.1953 160.457 73.3687 159.148 75.9385 156.751L90.6018 143.079C93.1738 140.68 94.5618 139.603 94.8685 139.352C92.5938 137.113 90.9551 138.548 89.0818 140.295L73.2687 155.044ZM86.4311 169.159C84.5604 170.904 82.9205 172.339 80.6458 170.1C80.9525 169.849 82.3418 168.773 84.9125 166.376L99.5751 152.701C102.146 150.304 103.318 148.995 103.591 148.704C105.664 151.129 104.119 152.665 102.246 154.411L86.4311 169.159ZM135.234 224.435L153.984 206.951L152.128 198.708L127.139 222.011L135.234 224.435ZM173.231 225.135C175.11 224.927 177.704 223.065 178.54 220.411C180.81 213.753 170.055 200.908 178.839 195.924C176.38 194.937 174.067 195.355 172.482 196.74C167.946 200.692 169.675 221.048 155.127 208.241L150.788 212.288C156.559 218.42 168.359 218.723 173.231 225.135ZM152.031 244.904C151.692 246.764 149.654 249.223 146.948 249.872C140.15 251.669 128.084 240.047 122.502 248.463C121.688 245.94 122.264 243.661 123.756 242.176C128.015 237.927 148.203 241.072 136.442 225.665L140.779 221.621C146.495 227.805 145.974 239.596 152.031 244.904ZM220.444 223.208C210.391 222.16 200.259 224.679 191.295 229.225L191.014 232.599C190.831 234.777 190.45 236.847 189.894 238.817C192.855 240.28 197.099 241.656 201.663 243.135C203.786 243.821 205.974 244.531 208.155 245.287C210.451 237.495 214.472 229.275 220.444 223.208ZM44.1229 232.368L32.6614 95.1587H199.664L188.206 232.368C183.898 283.959 48.4311 283.965 44.1229 232.368ZM11.8781 223.208C21.9317 222.16 32.0635 224.679 41.0275 229.225L41.3093 232.599C41.4915 234.777 41.8729 236.847 42.4297 238.817C39.4671 240.28 35.2239 241.656 30.6609 243.135C28.5369 243.821 26.3489 244.531 24.1687 245.287C21.8713 237.495 17.8505 229.275 11.8781 223.208ZM3.30513 272.763C39.3363 295.955 66.4849 273.798 116.162 273.798C165.838 273.798 192.987 295.955 229.018 272.763C227.363 281.988 225.622 289.666 221.802 298.239C215.556 312.255 206.819 318.221 191.972 317.89C170.434 317.406 147.895 308.362 116.162 308.362C84.4298 308.362 61.889 317.406 40.353 317.89C25.5035 318.221 16.7682 312.255 10.5213 298.239C6.70046 289.666 4.9598 281.988 3.30513 272.763ZM188.911 64.2547C190.407 64.2547 198.724 64.3547 201.398 65.132C203.407 65.7134 203.362 67.0974 203.406 68.0547C203.479 69.6641 203.436 69.4774 203.38 71.0241C203.319 72.7441 202.44 73.3134 200.191 73.6974C197.535 74.1481 192.01 74.2508 188.983 74.2508H171.248C168.222 74.2508 162.696 74.1481 160.042 73.6974C157.791 73.3134 156.914 72.7441 156.85 71.0241C156.794 69.4774 156.752 69.6641 156.827 68.0547C156.868 67.0974 156.823 65.7134 158.832 65.132C161.507 64.3547 169.82 64.2547 171.319 64.2547H188.911ZM195.336 79.4974C195.57 79.4974 195.704 79.3627 195.704 79.1414V76.9134C185.33 77.1774 174.9 77.1774 164.527 76.9134V79.1414C164.527 79.3601 164.662 79.4974 164.895 79.4974H195.336ZM170.098 82.3201L169.806 92.3347H171.482L171.752 83.8347H175.255L174.914 92.3347H177.772L178.178 83.8347H181.679L181.204 92.3347H184.079L184.603 83.8347H188.106L187.515 92.3347H189.895L190.608 82.3201H170.098ZM37.1322 59.2654C36.8994 59.2654 36.7645 59.4014 36.7645 59.6214V61.8467C47.1363 61.5854 57.5682 61.5854 67.9395 61.8467V59.6214C67.9395 59.4014 67.8073 59.2654 67.5723 59.2654H37.1322ZM43.5573 64.3814C42.0603 64.3814 33.7458 64.4814 31.0702 65.2587C29.0609 65.8427 29.1062 67.2241 29.063 68.1814C28.9901 69.7934 29.0317 69.6054 29.0879 71.1507C29.1499 72.8734 30.0286 73.4428 32.2781 73.8241C34.9333 74.2774 40.4567 74.3774 43.4849 74.3774H61.2202C64.2478 74.3774 69.7713 74.2774 72.4265 73.8241C74.6781 73.4428 75.5546 72.8734 75.6182 71.1507C75.6729 69.6054 75.7145 69.7934 75.6421 68.1814C75.5983 67.2241 75.6437 65.8427 73.6338 65.2587C70.9609 64.4814 62.6478 64.3814 61.1489 64.3814H43.5573ZM37.1322 79.4974C36.8994 79.4974 36.7645 79.3627 36.7645 79.1414V76.9134C47.1363 77.1774 57.5682 77.1774 67.9395 76.9134V79.1414C67.9395 79.3627 67.8073 79.4974 67.5723 79.4974H37.1322ZM62.3713 82.3201L62.6619 92.3347H60.8437L60.5729 83.8347H57.0697L57.4098 92.3347H54.5546L54.1473 83.8347H50.6447L51.1191 92.3347H48.2437L47.7202 83.8347H44.2177L44.8103 92.3347H42.5713L41.8609 82.3201H62.3713ZM48.3078 326.172C51.5666 326.712 53.5218 324.834 56.9317 328.167L60.4103 331.562L61.4311 330.922L59.5541 327.079C58.1849 324.273 61.915 321.163 64.0535 320.312C66.3082 320.779 70.5223 323.193 69.6603 326.194L68.4786 330.305L69.5947 330.759L72.4322 326.81C75.2125 322.937 77.4625 324.444 80.5778 323.349C81.6951 328.244 72.301 326.636 74.4234 334.723C74.8833 336.497 73.8885 337.089 72.4245 337.394C71.1442 330.427 58.8245 331.512 58.7739 338.588C57.2827 338.544 56.1989 338.132 56.3463 336.305C57.0317 327.971 48.0582 331.188 48.3078 326.172ZM60.4854 339.044C59.9958 333.457 70.3333 332.553 70.8191 338.139C71.3082 343.718 60.9723 344.622 60.4854 339.044ZM69.1781 316.831L69.3035 321.174C67.7926 319.798 65.9197 318.972 63.8989 318.557C61.9327 319.337 60.2197 320.505 58.9469 322.189L58.703 318.755C62.1202 318.181 65.5994 317.518 69.1781 316.831ZM57.8025 278.621L55.8661 278.938L54.2437 256.165C54.9275 256.732 55.6311 257.283 56.353 257.82L57.8025 278.621ZM61.4854 277.976L59.7197 278.292V278.29L58.5505 259.361C59.1921 259.789 59.8489 260.205 60.5166 260.611L61.4838 277.976H61.4854ZM64.8338 277.353L63.3983 277.625L62.6458 261.847C63.1734 262.139 63.7057 262.427 64.2447 262.704L64.8338 277.353ZM67.6546 264.361L68.0145 276.75L66.7469 276.992L66.3234 263.739C66.763 263.951 67.2067 264.157 67.6546 264.361ZM164.895 59.2654C164.663 59.2654 164.527 59.4014 164.527 59.6214V61.8467C174.9 61.5854 185.33 61.5854 195.704 61.8467V59.6214C195.704 59.4014 195.57 59.2654 195.336 59.2654H164.895ZM116.168 313.645C118.375 314.309 122.367 317.077 121.248 319.99L119.715 323.983L120.784 324.532L123.954 320.843C127.062 317.227 129.172 318.926 132.374 318.106C133.059 323.08 123.839 320.659 125.25 328.902C125.552 330.708 124.512 331.212 123.031 331.386C122.362 324.344 109.976 324.344 109.308 331.386C107.824 331.212 106.786 330.708 107.09 328.902C108.499 320.659 99.2804 323.08 99.9658 318.106C103.166 318.926 105.275 317.227 108.383 320.843L111.555 324.532L112.624 323.983L111.091 319.99C109.971 317.077 113.964 314.309 116.168 313.645ZM121.363 331.991C121.363 337.591 110.974 337.591 110.974 331.991C110.974 326.381 121.363 326.381 121.363 331.991ZM184.027 326.172C180.767 326.712 178.812 324.834 175.403 328.167L171.923 331.562L170.903 330.922L172.779 327.079C174.147 324.273 170.419 321.163 168.28 320.312C166.026 320.779 161.811 323.193 162.672 326.194L163.855 330.305L162.739 330.759L159.902 326.81C157.122 322.937 154.871 324.444 151.756 323.349C150.639 328.244 160.032 326.636 157.911 334.723C157.45 336.497 158.446 337.089 159.91 337.394C161.19 330.427 173.507 331.512 173.56 338.588C175.051 338.544 176.135 338.132 175.988 336.305C175.302 327.971 184.275 331.188 184.027 326.172ZM171.848 339.044C172.338 333.457 162 332.553 161.515 338.139C161.026 343.718 171.362 344.622 171.848 339.044ZM163.155 316.831L163.03 321.174C164.542 319.798 166.415 318.972 168.435 318.557C170.4 319.337 172.114 320.505 173.386 322.189L173.631 318.755C170.214 318.181 166.732 317.518 163.155 316.831ZM174.531 278.621L176.466 278.938L178.09 256.165C177.407 256.732 176.703 257.283 175.98 257.82L174.531 278.621ZM170.848 277.976L172.614 278.292V278.29L173.783 259.361C173.142 259.789 172.486 260.205 171.818 260.611L170.848 277.976ZM167.5 277.353L168.935 277.625L169.688 261.847C169.16 262.139 168.628 262.427 168.09 262.704L167.5 277.353ZM164.679 264.361L164.319 276.75L165.587 276.992L166.011 263.739C165.571 263.951 165.124 264.157 164.679 264.361ZM126.227 92.3347L126.426 82.3201H105.904L106.1 92.3347H108.447L108.31 83.8347H111.642L111.711 92.3347H114.448L114.424 83.8347H117.752L117.711 92.3347H120.428L120.535 83.8347H123.866L123.694 92.3347H126.227ZM131.388 79.4974C131.624 79.4974 131.756 79.3627 131.756 79.1414V76.9134C121.364 77.1774 110.966 77.1774 100.574 76.9134V79.1414C100.574 79.3627 100.704 79.4974 100.939 79.4974H131.388ZM125.036 74.3774C128.064 74.3774 133.588 74.2774 136.243 73.8241C138.492 73.4428 139.371 72.8734 139.435 71.1507C139.488 69.6054 139.531 69.7934 139.458 68.1814C139.415 67.2241 139.46 65.8427 137.45 65.2587C134.775 64.4814 126.46 64.3814 124.966 64.3814H107.364C105.868 64.3814 97.5525 64.4814 94.8778 65.2587C92.8685 65.8427 92.9138 67.2241 92.8698 68.1814C92.7978 69.7934 92.8391 69.6054 92.8951 71.1507C92.9591 72.8734 93.8351 73.4428 96.0858 73.8241C98.7405 74.2774 104.266 74.3774 107.291 74.3774H125.036ZM131.756 61.8467V59.6214C131.756 59.4014 131.624 59.2654 131.388 59.2654H100.939C100.704 59.2654 100.574 59.4014 100.574 59.6214V61.8467C110.966 61.5854 121.364 61.5854 131.756 61.8467ZM110.695 311.29L110.771 315.22C112.206 313.56 114.088 312.515 116.168 311.879C118.25 312.515 120.131 313.56 121.567 315.22L121.644 311.29C117.995 311.164 114.343 311.164 110.695 311.29ZM93.1978 236.948C82.4244 221.324 44.5229 223.515 50.163 199.389C54.7109 179.957 86.6724 181.408 102.782 186.059L121.178 202.989C113.09 197.539 102.491 193.407 93.7538 192.719C86.1298 192.117 78.6698 193.921 74.1125 200.468C67.6614 209.755 72.4739 214.277 80.3071 219.781C85.9045 223.715 92.2951 228.211 93.1978 236.948ZM122.916 211.263C115.068 206.377 97.7351 196.545 89.7151 205.125C79.8151 215.721 97.8898 221.801 94.3058 236.432C93.2138 227.437 86.6938 222.852 80.9738 218.833C73.8177 213.807 69.1218 209.684 75.0598 201.135C79.3698 194.941 86.4698 193.311 93.6631 193.876C104.404 194.721 118.104 200.933 126.094 208.299L122.934 211.245L122.916 211.263ZM127.782 206.727L87.9644 170.084L103.062 156.005L136.838 198.28L127.782 206.727ZM169.395 165.887C154.564 154.049 159.391 116.397 134.934 120.339C115.232 123.521 114.452 155.505 117.963 171.899L133.57 191.433C128.698 182.984 125.316 172.127 125.24 163.36C125.174 155.711 127.484 148.393 134.339 144.307C144.099 138.487 148.216 143.615 153.174 151.832C156.707 157.689 160.743 164.377 169.395 165.887ZM141.7 193.744C137.376 185.573 128.778 167.599 137.898 160.196C149.155 151.059 153.96 169.509 168.8 166.96C159.907 165.243 155.79 158.417 152.179 152.432C147.646 144.913 143.947 139.94 134.936 145.3C128.455 149.165 126.335 156.133 126.396 163.352C126.491 174.12 131.738 188.227 138.526 196.705L141.684 193.76L141.7 193.744ZM124.108 212.505L142.859 195.02L150.954 197.448L125.964 220.749L124.108 212.505ZM142.035 220.449C147.888 226.775 147.644 237.895 152.647 243.131C157.104 247.795 168.471 247.512 174.472 247.719C174.686 241.717 175.76 230.397 171.418 225.625C166.543 220.269 155.435 219.736 149.534 213.457L142.035 220.449ZM75.0983 101.589C72.1557 110.207 66.8759 109.076 64.2557 112.731C62.4093 115.297 62.213 119.557 59.6557 122.739C55.1619 128.333 44.4191 129.301 45.9702 140.869C47.1729 149.86 56.1858 156.091 67.2999 152.592C63.3786 150.444 62.1494 145.501 62.1765 141.793C64.0587 144.359 68.8931 146.445 71.9499 146.241C67.027 142.623 66.1666 136.827 68.313 131.217C69.4843 134.613 74.1437 139.531 77.8245 140.253C75.3401 136.772 75.2707 132.74 78.4311 127.724C78.2938 130.796 82.1831 134.599 84.8285 135.369C83.2911 126.981 92.7698 122.503 84.3351 113.404C83.2205 119.645 77.3259 119.185 75.5275 124.703C74.6286 127.469 70.2171 127.825 69.953 123.691C69.215 112.056 84.1498 113.064 75.0983 101.589ZM3.0338 269.206C0.23113 251.371 30.5135 247.628 43.3207 241.511C45.0811 246.125 47.851 250.141 51.3593 253.619C41.9843 259.28 26.8999 267.775 25.7671 279.22C16.9197 277.383 9.97593 273.807 3.0338 269.206ZM229.288 269.206C232.091 251.372 201.815 247.628 189.006 241.511C187.246 246.125 184.474 250.141 180.966 253.619C190.34 259.28 205.423 267.775 206.555 279.22C215.406 277.383 222.348 273.807 229.288 269.206ZM83.9791 165.373C82.0258 167.196 80.2591 168.7 78.1297 170.252C75.9603 171.599 75.353 171.792 74.227 170.939C73.0431 170.063 71.4338 168.335 70.6406 167.092C69.8677 165.912 70.1025 165.32 71.5989 163.245C73.2942 161.231 74.9182 159.575 76.8713 157.753L91.5351 144.079C93.4885 142.257 95.2551 140.755 97.3831 139.201C99.5538 137.853 100.163 137.661 101.287 138.516C102.471 139.392 104.08 141.12 104.874 142.363C105.648 143.541 105.411 144.136 103.916 146.207C102.219 148.223 100.595 149.879 98.6418 151.701L83.9791 165.373ZM52.9958 279.358L51.3958 256.881C43.7259 261.481 29.3171 269.799 28.5463 279.727C36.5973 281.008 44.5994 280.554 52.9958 279.358ZM70.4333 265.589L70.7426 276.213C78.3511 274.755 86.4298 273.246 95.2338 272.223C86.9218 270.926 78.2925 268.797 70.4333 265.589ZM179.323 279.358L180.924 256.881C188.595 261.481 203.003 269.799 203.775 279.727C195.722 281.008 187.72 280.554 179.323 279.358ZM161.886 265.589L161.576 276.213C153.967 274.755 145.888 273.246 137.084 272.223C145.4 270.926 154.027 268.797 161.886 265.589ZM40.7546 225.941L29.5953 92.3347H39.6745L38.9598 82.3201H37.0593C35.2843 82.3201 33.8671 80.9201 33.8671 79.1414V76.8641C29.9901 76.5227 26.3749 75.8174 26.1947 71.0734C26.1363 69.5107 26.1311 69.1641 26.1963 67.6107C26.4161 62.8627 29.9849 62.3347 33.8671 61.964V59.6214C33.8671 57.8401 35.2863 56.4401 37.0593 56.4401H67.5015C69.2749 56.4401 70.6937 57.8467 70.6937 59.6214V61.964C74.5781 62.3347 78.1426 62.8627 78.3645 67.6107C78.4298 69.1641 78.4245 69.5107 78.3658 71.0734C78.1843 75.8174 74.5707 76.5227 70.6937 76.8641V79.1414C70.6937 80.9201 69.2765 82.3201 67.5015 82.3201H65.1155L65.4067 92.3347H103.215L103.018 82.3201H100.868C99.0938 82.3201 97.6765 80.9201 97.6765 79.1414V76.8641C93.7991 76.5227 90.1831 75.8174 90.0045 71.0734C89.9458 69.5107 89.9405 69.1641 90.0045 67.6107C90.2258 62.8627 93.7925 62.3347 97.6765 61.964V59.6214C97.6765 57.8401 99.0951 56.4401 100.868 56.4401H131.46C133.235 56.4401 134.652 57.8401 134.652 59.6214V61.964C138.536 62.3347 142.103 62.8627 142.324 67.6107C142.39 69.1641 142.383 69.5107 142.324 71.0734C142.144 75.8174 138.528 76.5227 134.652 76.8641V79.1414C134.652 80.9201 133.235 82.3201 131.46 82.3201H129.31L129.114 92.3347H166.912L167.203 82.3201H164.818C163.043 82.3201 161.628 80.9201 161.628 79.1414V76.8641C157.748 76.5227 154.135 75.8174 153.952 71.0734C153.895 69.5107 153.89 69.1641 153.955 67.6107C154.176 62.8627 157.743 62.3347 161.628 61.964V59.6214C161.628 57.8467 163.044 56.4401 164.818 56.4401H195.26C197.034 56.4401 198.451 57.8401 198.451 59.6214V61.964C202.335 62.3347 205.903 62.8627 206.123 67.6107C206.188 69.1641 206.183 69.5107 206.124 71.0734C205.944 75.8174 202.328 76.5227 198.451 76.8641V79.1414C198.451 80.9201 197.035 82.3201 195.26 82.3201H193.36L192.647 92.3347H202.724L191.567 225.941C202.934 220.439 213.214 219.028 225.972 221.369C218.243 229.736 214.132 234.859 210.812 246.235C220.954 249.965 233.06 255.717 232.286 267.804C231.651 277.992 228.546 290.015 224.367 299.387C214.244 322.111 197.86 322.522 176.484 319.206L176.134 324.14C178.479 322.887 183.139 324.306 186.343 323.17C188.726 335.509 178.318 329.476 178.858 336.085C179.11 339.248 177.186 341.128 174.226 341.371C171.623 347.704 160.352 346.708 158.886 340.032C155.954 339.263 154.452 337.059 155.244 334.017C156.93 327.581 146.791 331.862 149.839 320.02C152.471 321.421 157.819 320.5 160.222 322.909L160.411 316.294C148.358 313.985 136.732 312.028 124.44 311.397L124.332 316.759C126.699 315.556 131.766 316.178 134.358 314.822C137.68 327.09 127.016 321.913 127.994 328.327C128.45 331.523 127.022 333.574 123.856 334.114C121.814 340.628 110.506 340.628 108.463 334.114C105.296 333.574 103.87 331.523 104.326 328.327C105.304 321.913 94.6391 327.09 97.9618 314.822C100.554 316.178 105.62 315.556 107.986 316.759L107.882 311.396C95.6004 312.03 83.9525 313.987 71.9082 316.294L72.0973 322.909C74.4999 320.5 79.8484 321.421 82.4804 320.02C85.5284 331.862 75.389 327.581 77.0749 334.017C77.8661 337.059 76.3661 339.263 73.4358 340.032C71.9666 346.708 60.6963 347.704 58.0958 341.371C55.1327 341.128 53.2087 339.248 53.4614 336.085C54.0015 329.476 43.5937 335.509 45.9759 323.17C49.1806 324.306 53.8415 322.887 56.1858 324.14L55.8349 319.206C34.4582 322.522 18.0745 322.111 7.95206 299.387C3.77446 290.015 0.668196 277.992 0.0353962 267.804C-0.73967 255.717 11.365 249.965 21.5078 246.235C18.1874 234.859 14.077 229.736 6.3478 221.369C19.1057 219.028 29.3863 220.439 40.7546 225.941Z" fill="white"/>
<path d="M290.412 118.157C299.467 119.52 310.522 119.521 319.576 118.157C318.36 131.999 316.882 146.759 316.882 160.636C316.882 183.717 315.806 209.308 317.902 232.113C320.559 261.012 334.33 275.244 364.039 275.244C410.062 275.244 416.671 248.676 416.671 208.872V167.701C416.671 151.205 416.271 134.513 413.974 118.157C420.51 119.428 429.027 119.561 435.539 118.157C432.646 137.335 432.354 158.364 432.354 177.751V219.615C432.354 267.72 406.427 288.725 359.872 288.725C307.084 288.725 293.11 265.185 293.11 217.451V160.309C293.11 146.159 292.39 132.177 290.412 118.157ZM710.334 285.538C716.091 256.253 720.994 227.333 725.036 198.824C729.12 170.276 732.306 142.336 734.636 114.971H743.948C756.65 140.58 768.659 164.312 780.054 186.245C791.408 208.137 802.232 228.479 812.526 247.308C823.431 227.457 834.501 206.545 845.649 184.569C856.843 162.596 868.236 139.396 879.878 114.971H889.23C891.682 144.583 894.623 173.583 897.972 201.971C901.319 230.399 905.119 258.255 909.326 285.538C899.07 282.848 891.595 283.055 881.349 285.538C880.531 265.197 879.182 244.653 877.264 223.904C875.344 203.156 872.892 182.12 869.83 160.797L834.784 229.623C825.546 247.66 816.622 266.44 809.788 285.538C808.296 284.793 805.322 284.923 803.783 285.538C793.982 264.3 783.852 243.427 773.398 222.923C762.939 202.42 752.199 182.281 741.211 162.475L734.144 230.315C732.272 248.725 731.162 267.044 730.672 285.538C722.644 284.001 718.351 283.906 710.334 285.538ZM589.791 248.779L591.956 248.287C598.876 266.717 613.316 277.452 633.17 277.452C653.73 277.452 669.194 265.957 669.194 244.407C669.194 221.924 650.427 214.955 632.228 207.851C609.339 198.917 588.567 189.489 588.567 161.779C588.567 129.608 611.718 114.725 641.787 114.725C656.53 114.725 670.296 118.24 683.038 125.223L683.163 125.348C679.442 132.788 676.826 141.101 675.32 149.28H672.908C669.446 131.772 656.335 124.284 639.296 124.284C621.659 124.284 608.416 134.653 608.416 152.999C608.416 173.084 627.967 179.881 643.952 185.755C668.523 194.781 690.514 204.217 690.514 233.828C690.514 268.203 662.518 288.97 629.819 288.97C613.867 288.97 597.536 285.359 585.134 274.795C587.722 266.288 589.303 257.661 589.791 248.779ZM496.144 202.705C496.144 230.204 495.726 258.111 497.615 285.538C489.242 283.761 477.587 283.894 469.187 285.538C471.655 257.749 472.374 229.857 472.374 201.971C472.374 174.18 472.078 145.811 469.187 118.157C484.951 118.392 500.719 118.648 516.486 118.648C530.943 118.648 545.407 118.505 559.862 118.157C558.766 124.584 559.179 128.695 559.862 135.068C546.487 132.328 533.118 130.9 519.467 130.9H496.39C496.12 150.839 496.144 170.759 496.144 190.696H520.895C532.215 190.696 543.722 189.804 554.96 188.491C554.091 194.42 554.838 199.151 554.838 204.912C543.45 203.86 531.634 202.705 520.203 202.705H496.144Z" fill="white"/>
<line x1="1007" y1="87" x2="1007" y2="332" stroke="white" stroke-width="6"/>
</svg>
