<svg width="1983" height="349" viewBox="0 0 1983 349" fill="none" xmlns="http://www.w3.org/2000/svg">
<path d="M1182.85 198.196C1194.27 199.114 1205.1 200.585 1215.21 202.736C1225.35 204.894 1234.77 207.741 1243.34 211.397C1255.66 216.654 1266.2 223.557 1274.58 232.447C1282.99 241.359 1289.2 252.256 1292.83 265.468L1303.9 197.196C1304.57 193.071 1305.57 189.597 1306.82 186.742C1308.23 183.522 1309.97 181.031 1311.91 179.219C1313.35 177.879 1314.9 176.876 1316.53 176.204C1318.22 175.498 1320 175.148 1321.83 175.134C1323.52 175.122 1325.18 175.399 1326.77 175.944C1328.36 176.489 1329.9 177.308 1331.38 178.37C1333.76 180.092 1335.99 182.538 1337.89 185.558C1339.67 188.375 1341.18 191.735 1342.28 195.512L1356.02 242.75C1357.15 246.629 1358.3 249.83 1359.44 252.329L1359.45 252.338C1359.96 253.469 1360.47 254.444 1360.96 255.261C1361.29 254.528 1361.63 253.677 1361.96 252.704C1362.8 250.262 1363.58 247.156 1364.29 243.379L1381.73 150.673C1382.73 145.351 1384.47 140.645 1386.65 136.732C1389.05 132.419 1392.03 129.032 1395.2 126.792C1396.76 125.688 1398.38 124.832 1400.01 124.249C1401.68 123.66 1403.4 123.335 1405.13 123.3C1407.04 123.262 1408.91 123.567 1410.7 124.232C1412.43 124.882 1414.08 125.86 1415.57 127.179C1417.91 129.238 1419.92 132.195 1421.4 136.103C1422.7 139.542 1423.6 143.747 1423.94 148.759L1429.81 233.868L1431.61 259.899C1431.88 263.862 1432.47 267.109 1433.27 269.634C1433.84 271.463 1434.5 272.863 1435.2 273.838C1435.76 272.96 1436.29 271.729 1436.76 270.138C1437.47 267.731 1438 264.595 1438.23 260.712C1438.92 249.251 1440.57 239.684 1443 231.723C1445.47 223.632 1448.75 217.181 1452.7 212.062C1456.86 206.65 1461.7 202.735 1467.04 199.968C1471.83 197.479 1477.02 195.928 1482.48 195.048V194.713H1485.16H1560.36H1563.04V197.392V207.058V209.739H1560.36H1485.54C1481.4 210.353 1477.5 211.461 1473.98 213.284C1470.46 215.113 1467.27 217.685 1464.55 221.224C1461.57 225.098 1459.05 230.167 1457.13 236.715C1455.16 243.399 1453.81 251.598 1453.2 261.592C1452.86 267.227 1451.92 271.994 1450.58 275.87C1449.04 280.323 1446.94 283.655 1444.58 285.847C1443.21 287.116 1441.72 288.074 1440.16 288.714C1438.55 289.379 1436.85 289.698 1435.13 289.679C1433.44 289.656 1431.78 289.304 1430.2 288.635H1430.19C1428.66 287.988 1427.2 287.035 1425.84 285.786H1425.83C1423.36 283.523 1421.15 280.068 1419.5 275.497C1418.05 271.501 1417.03 266.615 1416.64 260.898L1414.84 234.864L1408.97 149.757C1408.76 146.587 1408.3 144.066 1407.68 142.142C1407.1 140.323 1406.4 139.113 1405.65 138.454V138.443C1405.56 138.359 1405.47 138.299 1405.4 138.275C1405.3 138.277 1405.11 138.325 1404.89 138.416L1404.88 138.408C1404.58 138.527 1404.22 138.733 1403.82 139.013L1403.82 139.007C1402.28 140.098 1400.77 141.939 1399.46 144.43C1398.18 146.867 1397.13 149.897 1396.47 153.429L1379.02 246.138C1378.1 251.041 1376.99 255.198 1375.73 258.594C1374.38 262.271 1372.82 265.14 1371.12 267.19C1369.82 268.772 1368.37 269.992 1366.81 270.834C1365.18 271.714 1363.43 272.18 1361.59 272.232C1359.8 272.284 1358.07 271.933 1356.4 271.175C1354.81 270.453 1353.29 269.363 1351.86 267.918C1349.92 265.953 1348.04 263.131 1346.28 259.485V259.474C1344.64 256.052 1343.07 251.857 1341.64 246.921L1327.89 199.678C1327.24 197.427 1326.4 195.474 1325.46 193.885C1324.56 192.367 1323.58 191.224 1322.61 190.52L1322.61 190.514C1322.43 190.389 1322.27 190.284 1322.11 190.207C1321.48 190.803 1320.85 191.824 1320.27 193.322C1319.64 194.933 1319.1 196.995 1318.69 199.544L1307.13 270.855C1306.58 274.25 1305.9 277.058 1305.13 279.321C1304.25 281.897 1303.22 283.874 1302.09 285.304C1300.89 286.815 1299.54 287.89 1298.09 288.565H1298.08C1296.52 289.286 1294.85 289.549 1293.1 289.381C1291.66 289.245 1290.3 288.809 1289.05 288.107C1287.83 287.422 1286.69 286.47 1285.65 285.284L1285.64 285.29C1284.22 283.677 1282.87 281.425 1281.64 278.703C1280.45 276.068 1279.35 272.908 1278.39 269.41C1275.45 258.693 1270.37 249.844 1263.48 242.593C1256.56 235.305 1247.77 229.59 1237.46 225.193C1229.75 221.901 1221.17 219.321 1211.87 217.348C1202.52 215.37 1192.45 214.001 1181.78 213.142C1180.49 213.133 1166.2 213.293 1149.85 213.475C1126.54 213.737 1099.05 214.044 1098.38 213.967L1096 213.689V211.307V201.714V199.076L1098.66 199.043L1108.01 198.934C1129.38 198.682 1179.94 198.078 1182.85 198.196Z" fill="black"/>
<path d="M1667.11 116.926V135.446H1596.29V192.339H1667.11V210.859H1596.29V267.752H1667.11V286.272H1575.1V116.926H1667.11ZM1767.78 197.599L1751.41 152.558L1735.26 197.599H1767.78ZM1760.82 116.926L1822.01 286.272H1800.08L1774.6 215.896H1728.52L1702.52 286.272H1680.14L1742.3 116.926H1760.82ZM1967.26 248.936L1982 262.196C1962.96 279.531 1942 288.198 1919.11 288.198C1894.51 288.198 1873.55 279.531 1856.73 262.64C1839.62 245.824 1831.17 225.304 1831.17 201.451C1831.17 178.116 1839.62 157.596 1856.73 140.557C1873.55 123.445 1894.51 115 1919.11 115C1942 115 1962.96 123.667 1982 141.002L1967.26 154.262C1951.63 140.557 1935.7 133.742 1919.11 133.742C1901.03 133.742 1885.4 140.261 1872.36 153.299C1859.1 166.559 1852.58 182.709 1852.58 201.451C1852.58 220.711 1859.1 236.861 1872.36 249.899C1885.4 262.937 1901.03 269.678 1919.11 269.678C1935.7 269.678 1951.63 262.64 1967.26 248.936Z" fill="black" stroke="black" stroke-width="0.378" stroke-miterlimit="22.9256"/>
<path fill-rule="evenodd" clip-rule="evenodd" d="M40.7562 228.817L29.5974 95.2067H39.6759L38.9625 85.192H37.0609C35.2869 85.192 33.8697 83.7907 33.8697 82.012V79.736C29.9921 79.396 26.377 78.6907 26.1969 73.9453C26.1379 72.3827 26.1317 72.0347 26.1983 70.4827C26.4193 65.736 29.9863 65.2067 33.8697 64.8347V62.492C33.8697 60.7134 35.2879 59.3107 37.0609 59.3107H67.5046C69.2781 59.3107 70.6958 60.7174 70.6958 62.492V64.8347C74.5802 65.2067 78.1463 65.736 78.3677 70.4827C78.433 72.0347 78.4277 72.3827 78.3703 73.9453C78.1879 78.6907 74.5729 79.396 70.6958 79.736V82.012C70.6958 83.7907 69.2791 85.192 67.5046 85.192H65.1187L65.4098 95.2067H103.218L103.022 85.192H100.872C99.097 85.192 97.681 83.7907 97.681 82.012V79.736C93.8036 79.396 90.1877 78.6907 90.0063 73.9453C89.949 72.3827 89.9423 72.0347 90.0077 70.4827C90.229 65.736 93.7957 65.2067 97.681 64.8347V62.492C97.681 60.7134 99.0983 59.3107 100.872 59.3107H131.465C133.24 59.3107 134.656 60.7134 134.656 62.492V64.8347C138.541 65.2067 142.108 65.736 142.329 70.4827C142.394 72.0347 142.389 72.3827 142.33 73.9453C142.149 78.6907 138.534 79.396 134.656 79.736V82.012C134.656 83.7907 133.24 85.192 131.465 85.192H129.316L129.118 95.2067H166.917L167.209 85.192H164.824C163.049 85.192 161.632 83.7907 161.632 82.012V79.736C157.754 79.396 154.14 78.6907 153.958 73.9453C153.9 72.3827 153.894 72.0347 153.96 70.4827C154.181 65.736 157.748 65.2067 161.632 64.8347V62.492C161.632 60.7174 163.049 59.3107 164.824 59.3107H195.266C197.04 59.3107 198.458 60.7134 198.458 62.492V64.8347C202.341 65.2067 205.908 65.736 206.129 70.4827C206.196 72.0347 206.189 72.3827 206.13 73.9453C205.95 78.6907 202.336 79.396 198.458 79.736V82.012C198.458 83.7907 197.041 85.192 195.266 85.192H193.365L192.652 95.2067H202.73L191.572 228.817C202.94 223.313 213.22 221.903 225.978 224.245C218.249 232.611 214.14 237.735 210.818 249.111C220.961 252.84 233.068 258.593 232.292 270.679C231.658 280.868 228.553 292.891 224.374 302.264C214.252 324.988 197.866 325.398 176.49 322.084L176.138 327.017C178.484 325.764 183.145 327.184 186.349 326.047C188.732 338.387 178.322 332.353 178.864 338.963C179.116 342.126 177.193 344.007 174.23 344.248C171.629 350.583 160.358 349.586 158.889 342.91C155.958 342.14 154.458 339.936 155.249 336.895C156.936 330.458 146.796 334.739 149.845 322.897C152.476 324.299 157.825 323.376 160.226 325.786L160.417 319.172C148.361 316.862 136.737 314.905 124.444 314.274L124.337 319.635C126.704 318.434 131.769 319.055 134.362 317.699C137.685 329.968 127.021 324.789 127.998 331.204C128.456 334.398 127.026 336.45 123.861 336.99C121.818 343.506 110.509 343.506 108.466 336.99C105.301 336.45 103.873 334.398 104.329 331.204C105.306 324.789 94.6437 329.968 97.965 317.699C100.558 319.055 105.624 318.434 107.99 319.635L107.885 314.273C95.6023 314.906 83.957 316.864 71.9109 319.172L72.101 325.786C74.5035 323.376 79.8517 324.299 82.4823 322.897C85.5317 334.739 75.3921 330.458 77.0786 336.895C77.8687 339.936 76.3693 342.14 73.4379 342.91C71.9697 349.586 60.6983 350.583 58.0974 344.248C55.1354 344.007 53.2114 342.126 53.4635 338.963C54.0046 332.353 43.5953 338.387 45.9791 326.047C49.1827 327.184 53.8431 325.764 56.1885 327.017L55.8379 322.084C34.4614 325.398 18.0759 324.988 7.95299 302.264C3.77499 292.891 0.668725 280.868 0.0353918 270.679C-0.739675 258.593 11.3666 252.84 21.5087 249.111C18.1885 237.735 14.0786 232.611 6.34886 224.245C19.1078 221.903 29.3885 223.313 40.7562 228.817ZM161.892 268.465L161.582 279.089C153.973 277.631 145.894 276.121 137.089 275.1C145.404 273.802 154.033 271.673 161.892 268.465ZM179.329 282.235L180.929 259.757C188.6 264.359 203.009 272.674 203.78 282.604C195.728 283.883 187.725 283.43 179.329 282.235ZM67.0515 27.1534C65.8969 29.0534 66.5417 29.3827 68.5963 28.5787C70.6969 27.756 71.6535 25.4493 72.639 23.0734C74.1551 19.4187 75.0921 17.208 79.0703 15.9187C79.2797 18.8867 79.761 21.3774 80.4517 24.2587C81.6997 29.4587 82.689 33.5947 78.461 40.3534C73.913 47.624 76.0483 54.456 65.1499 56.776C62.2245 52.0507 62.2619 47.8707 63.5421 42.6427C60.2603 45.7 58.5677 51.2707 57.2942 55.452C52.7478 48.5533 51.0963 42.8853 52.7781 34.7054C47.5578 41.04 46.5874 47.9587 46.5411 55.8894C42.2302 51.4534 39.9103 49.5894 39.1297 43.2894C37.2526 48.0294 38.4109 52.3014 39.6901 56.9907C28.3207 52.9294 23.6926 42.0867 29.6567 31.6587C34.0593 23.964 39.3469 24.3947 45.1354 19.484C50.4374 14.9867 52.8478 7.41068 59.0141 3.77335C65.3901 0.00933838 75.3931 1.34134 82.9943 0C67.4906 13.7333 74.7437 14.4893 67.0515 27.1534ZM130.861 27.1534C129.706 29.0534 130.35 29.3827 132.405 28.5787C134.505 27.756 135.464 25.4493 136.449 23.0734C137.962 19.4187 138.901 17.208 142.878 15.9187C143.089 18.8867 143.569 21.3774 144.262 24.2587C145.508 29.4587 146.497 33.5947 142.27 40.3534C137.722 47.624 139.858 54.456 128.958 56.776C126.033 52.0507 126.07 47.8707 127.35 42.6427C124.069 45.7 122.377 51.2707 121.104 55.452C116.556 48.5533 114.906 42.8853 116.586 34.7054C111.366 41.04 110.396 47.9587 110.349 55.8894C106.038 51.4534 103.718 49.5894 102.938 43.2894C101.061 48.0294 102.22 52.3014 103.498 56.9907C92.1303 52.9294 87.501 42.0867 93.465 31.6587C97.8677 23.964 103.156 24.3947 108.945 19.484C114.246 14.9867 116.657 7.41068 122.822 3.77335C129.198 0.00933838 139.204 1.34134 146.804 0C131.298 13.7333 138.553 14.4893 130.861 27.1534ZM194.82 27.1534C193.665 29.0534 194.308 29.3827 196.364 28.5787C198.464 27.756 199.422 25.4493 200.408 23.0734C201.922 19.4187 202.86 17.208 206.837 15.9187C207.046 18.8867 207.53 21.3774 208.22 24.2587C209.466 29.4574 210.454 33.5947 206.228 40.3534C201.681 47.6227 203.817 54.456 192.917 56.776C189.992 52.0507 190.029 47.8707 191.309 42.6427C188.028 45.7 186.334 51.2707 185.061 55.452C180.516 48.5533 178.864 42.8853 180.545 34.7054C175.325 41.04 174.354 47.9587 174.309 55.8894C169.997 51.4534 167.677 49.5894 166.897 43.2894C165.02 48.0294 166.177 52.3014 167.457 56.9907C156.089 52.9294 151.46 42.0854 157.424 31.6587C161.825 23.964 167.116 24.3947 172.904 19.484C178.205 14.9867 180.614 7.41068 186.781 3.77335C193.157 0.00933838 203.161 1.34134 210.762 0C195.257 13.7333 202.512 14.4893 194.82 27.1534ZM70.4363 268.465L70.7453 279.089C78.3557 277.631 86.433 276.121 95.237 275.1C86.9237 273.802 78.2957 271.673 70.4363 268.465ZM52.9989 282.235L51.3978 259.757C43.7275 264.359 29.3182 272.674 28.5469 282.604C36.5994 283.883 44.6026 283.43 52.9989 282.235Z" fill="#231F20"/>
<path d="M110.698 314.167L110.774 318.097C112.21 316.437 114.093 315.391 116.173 314.755C118.253 315.391 120.136 316.437 121.572 318.097L121.648 314.167C118 314.042 114.346 314.042 110.698 314.167ZM131.761 64.72V62.492C131.761 62.272 131.628 62.136 131.393 62.136H100.944C100.709 62.136 100.577 62.272 100.577 62.492V64.72C110.969 64.456 121.368 64.456 131.761 64.72ZM125.041 77.2494C128.068 77.2494 133.592 77.1494 136.248 76.696C138.498 76.3134 139.374 75.744 139.438 74.0227C139.494 72.4774 139.537 72.6653 139.462 71.0533C139.42 70.096 139.465 68.7147 137.456 68.1294C134.781 67.3534 126.465 67.2533 124.969 67.2533H107.368C105.872 67.2533 97.5556 67.3534 94.881 68.1294C92.8716 68.7147 92.9183 70.096 92.8743 71.0533C92.801 72.6653 92.8423 72.4774 92.8983 74.0227C92.9623 75.744 93.8397 76.3134 96.089 76.696C98.745 77.1494 104.268 77.2494 107.296 77.2494H125.041ZM131.393 82.368C131.628 82.368 131.761 82.2334 131.761 82.012V79.7854C121.368 80.0467 110.969 80.0467 100.577 79.7854V82.012C100.577 82.2334 100.709 82.368 100.944 82.368H131.393ZM126.232 95.2067L126.429 85.192H105.908L106.105 95.2067H126.232ZM164.684 267.236L164.325 279.625C168.498 280.426 172.533 281.188 176.472 281.814L178.094 259.04C174.197 262.28 169.632 264.989 164.684 267.236ZM163.161 319.708L163.034 324.05C164.546 322.675 166.42 321.848 168.441 321.435C170.406 322.215 172.12 323.382 173.392 325.066L173.637 321.632C170.22 321.057 166.738 320.396 163.161 319.708ZM171.853 341.922C172.342 336.335 162.006 335.432 161.52 341.016C161.03 346.596 171.366 347.5 171.853 341.922ZM184.032 329.049C180.773 329.588 178.817 327.711 175.408 331.044L171.928 334.44L170.908 333.799L172.785 329.957C174.153 327.15 170.425 324.04 168.285 323.19C166.03 323.655 161.817 326.07 162.677 329.071L163.861 333.182L162.744 333.636L159.908 329.687C157.126 325.813 154.876 327.321 151.761 326.226C150.644 331.121 160.038 329.513 157.916 337.601C157.454 339.374 158.45 339.966 159.914 340.272C161.194 333.305 173.513 334.388 173.565 341.465C175.056 341.421 176.14 341.009 175.994 339.183C175.308 330.848 184.281 334.064 184.032 329.049ZM121.368 334.868C121.368 340.469 110.98 340.469 110.98 334.868C110.98 329.258 121.368 329.258 121.368 334.868ZM116.173 316.522C118.377 317.186 122.372 319.953 121.252 322.866L119.718 326.86L120.789 327.409L123.958 323.721C127.068 320.105 129.177 321.803 132.377 320.983C133.062 325.957 123.844 323.536 125.253 331.779C125.557 333.584 124.517 334.088 123.034 334.264C122.366 327.221 109.98 327.221 109.313 334.264C107.829 334.088 106.789 333.584 107.094 331.779C108.502 323.536 99.2836 325.957 99.969 320.983C103.17 321.803 105.28 320.105 108.388 323.721L111.558 327.409L112.628 326.86L111.094 322.866C109.974 319.953 113.968 317.186 116.173 316.522ZM164.901 62.136C164.669 62.136 164.533 62.2733 164.533 62.492V64.72C174.906 64.456 185.336 64.456 195.709 64.72V62.492C195.709 62.272 195.574 62.136 195.342 62.136H164.901ZM67.6578 267.236L68.0166 279.625C63.8426 280.426 59.8083 281.188 55.8693 281.814L54.2463 259.04C58.1437 262.28 62.7103 264.989 67.6578 267.236ZM69.1807 319.708L69.3073 324.05C67.7947 322.675 65.9223 321.848 63.901 321.435C61.9354 322.215 60.2223 323.382 58.9499 325.066L58.7051 321.632C62.1223 321.057 65.6026 320.396 69.1807 319.708ZM60.4879 341.922C59.9989 336.335 70.3354 335.432 70.8223 341.016C71.3114 346.596 60.9745 347.5 60.4879 341.922ZM48.3103 329.049C51.5687 329.588 53.5239 327.711 56.9343 331.044L60.4135 334.44L61.4332 333.799L59.5562 329.957C58.1879 327.15 61.9166 324.04 64.0562 323.19C66.3114 323.655 70.525 326.07 69.6635 329.071L68.4817 333.182L69.5974 333.636L72.4343 329.687C75.2155 325.813 77.4655 327.321 80.581 326.226C81.697 331.121 72.303 329.513 74.4254 337.601C74.8869 339.374 73.8911 339.966 72.4275 340.272C71.1474 333.305 58.828 334.388 58.777 341.465C57.2854 341.421 56.2015 341.009 56.3478 339.183C57.0332 330.848 48.0608 334.064 48.3103 329.049ZM62.3734 85.192L62.665 95.2067H42.5739L41.8619 85.192H62.3734ZM37.1343 82.368C36.9005 82.368 36.7671 82.2334 36.7671 82.012V79.7854C47.139 80.0467 57.5702 80.0467 67.9421 79.7854V82.012C67.9421 82.2334 67.8098 82.368 67.575 82.368H37.1343ZM43.5593 67.2533C42.0619 67.2533 33.7463 67.3534 31.0713 68.1294C29.0619 68.7147 29.1083 70.096 29.0641 71.0533C28.9906 72.6653 29.0327 72.4774 29.0895 74.0227C29.1526 75.744 30.0291 76.3134 32.2797 76.696C34.9354 77.1494 40.4587 77.2494 43.4859 77.2494H61.2234C64.2505 77.2494 69.7739 77.1494 72.4302 76.696C74.6811 76.3134 75.5567 75.744 75.6207 74.0227C75.6764 72.4774 75.7187 72.6653 75.6453 71.0533C75.601 70.096 75.6474 68.7147 73.6379 68.1294C70.963 67.3534 62.6499 67.2533 61.151 67.2533H43.5593ZM37.1343 62.136C36.9005 62.136 36.7671 62.272 36.7671 62.492V64.72C47.139 64.456 57.5702 64.456 67.9421 64.72V62.492C67.9421 62.272 67.8098 62.136 67.575 62.136H37.1343ZM170.102 85.192L169.812 95.2067H189.901L190.614 85.192H170.102ZM195.342 82.368C195.576 82.368 195.709 82.2334 195.709 82.012V79.7854C185.336 80.0467 174.906 80.0467 164.533 79.7854V82.012C164.533 82.232 164.666 82.368 164.901 82.368H195.342ZM188.917 67.1267C190.414 67.1267 198.73 67.2267 201.405 68.0027C203.414 68.5853 203.369 69.968 203.412 70.9253C203.485 72.536 203.442 72.3494 203.386 73.8947C203.324 75.616 202.446 76.1867 200.196 76.568C197.541 77.02 192.017 77.1227 188.99 77.1227H171.253C168.226 77.1227 162.702 77.02 160.046 76.568C157.796 76.1867 156.917 75.6174 156.856 73.8947C156.8 72.3507 156.758 72.536 156.832 70.9253C156.874 69.968 156.829 68.5853 158.838 68.0027C161.513 67.2267 169.826 67.1267 171.325 67.1267H188.917Z" stroke="#1E1200" stroke-width="0.580819" stroke-miterlimit="10" stroke-linejoin="round"/>
<path fill-rule="evenodd" clip-rule="evenodd" d="M110.698 314.167L110.774 318.097C112.21 316.437 114.093 315.391 116.173 314.755C118.253 315.391 120.136 316.437 121.572 318.097L121.648 314.167C118 314.042 114.346 314.042 110.698 314.167ZM131.761 64.72V62.492C131.761 62.272 131.628 62.136 131.393 62.136H100.944C100.709 62.136 100.577 62.272 100.577 62.492V64.72C110.969 64.456 121.368 64.456 131.761 64.72ZM125.041 77.2494C128.068 77.2494 133.592 77.1494 136.248 76.696C138.498 76.3134 139.374 75.744 139.438 74.0227C139.494 72.4774 139.537 72.6653 139.462 71.0533C139.42 70.096 139.465 68.7147 137.456 68.1294C134.781 67.3534 126.465 67.2534 124.969 67.2534H107.368C105.872 67.2534 97.5556 67.3534 94.881 68.1294C92.8716 68.7147 92.9183 70.096 92.8743 71.0533C92.801 72.6653 92.8423 72.4774 92.8983 74.0227C92.9623 75.744 93.8397 76.3134 96.089 76.696C98.745 77.1494 104.268 77.2494 107.296 77.2494H125.041ZM131.393 82.368C131.628 82.368 131.761 82.2333 131.761 82.012V79.7854C121.368 80.0467 110.969 80.0467 100.577 79.7854V82.012C100.577 82.2333 100.709 82.368 100.944 82.368H131.393ZM126.232 95.2067L126.429 85.192H105.908L106.105 95.2067H126.232ZM164.684 267.236L164.325 279.625C168.498 280.426 172.533 281.188 176.472 281.814L178.094 259.04C174.197 262.28 169.632 264.989 164.684 267.236ZM163.161 319.708L163.034 324.05C164.546 322.675 166.42 321.848 168.441 321.435C170.406 322.215 172.12 323.382 173.392 325.066L173.637 321.632C170.22 321.057 166.738 320.396 163.161 319.708ZM171.853 341.922C172.342 336.335 162.006 335.432 161.52 341.016C161.03 346.596 171.366 347.5 171.853 341.922ZM184.032 329.049C180.773 329.588 178.817 327.711 175.408 331.044L171.928 334.44L170.908 333.799L172.785 329.957C174.153 327.15 170.425 324.04 168.285 323.19C166.03 323.655 161.817 326.07 162.677 329.071L163.861 333.182L162.744 333.636L159.908 329.687C157.126 325.813 154.876 327.321 151.761 326.226C150.644 331.121 160.038 329.513 157.916 337.601C157.454 339.374 158.45 339.966 159.914 340.272C161.194 333.305 173.513 334.388 173.565 341.465C175.056 341.421 176.14 341.009 175.994 339.183C175.308 330.848 184.281 334.064 184.032 329.049ZM121.368 334.868C121.368 340.469 110.98 340.469 110.98 334.868C110.98 329.258 121.368 329.258 121.368 334.868ZM116.173 316.522C118.377 317.186 122.372 319.953 121.252 322.866L119.718 326.86L120.789 327.409L123.958 323.721C127.068 320.105 129.177 321.803 132.377 320.983C133.062 325.957 123.844 323.536 125.253 331.779C125.557 333.584 124.517 334.088 123.034 334.264C122.366 327.221 109.98 327.221 109.313 334.264C107.829 334.088 106.789 333.584 107.094 331.779C108.502 323.536 99.2836 325.957 99.969 320.983C103.17 321.803 105.28 320.105 108.388 323.721L111.558 327.409L112.628 326.86L111.094 322.866C109.974 319.953 113.968 317.186 116.173 316.522ZM164.901 62.136C164.669 62.136 164.533 62.2733 164.533 62.492V64.72C174.906 64.456 185.336 64.456 195.709 64.72V62.492C195.709 62.272 195.574 62.136 195.342 62.136H164.901ZM67.6578 267.236L68.0166 279.625C63.8426 280.426 59.8083 281.188 55.8693 281.814L54.2463 259.04C58.1437 262.28 62.7103 264.989 67.6578 267.236ZM69.1807 319.708L69.3073 324.05C67.7947 322.675 65.9223 321.848 63.901 321.435C61.9354 322.215 60.2223 323.382 58.9499 325.066L58.7051 321.632C62.1223 321.057 65.6026 320.396 69.1807 319.708ZM60.4879 341.922C59.9989 336.335 70.3354 335.432 70.8223 341.016C71.3114 346.596 60.9745 347.5 60.4879 341.922ZM48.3103 329.049C51.5687 329.588 53.5239 327.711 56.9343 331.044L60.4135 334.44L61.4332 333.799L59.5562 329.957C58.1879 327.15 61.9166 324.04 64.0562 323.19C66.3114 323.655 70.525 326.07 69.6635 329.071L68.4817 333.182L69.5974 333.636L72.4343 329.687C75.2155 325.813 77.4655 327.321 80.581 326.226C81.697 331.121 72.303 329.513 74.4254 337.601C74.8869 339.374 73.8911 339.966 72.4275 340.272C71.1474 333.305 58.828 334.388 58.777 341.465C57.2854 341.421 56.2015 341.009 56.3478 339.183C57.0332 330.848 48.0608 334.064 48.3103 329.049ZM62.3734 85.192L62.665 95.2067H42.5739L41.8619 85.192H62.3734ZM37.1343 82.368C36.9005 82.368 36.7671 82.2333 36.7671 82.012V79.7854C47.139 80.0467 57.5702 80.0467 67.9421 79.7854V82.012C67.9421 82.2333 67.8098 82.368 67.575 82.368H37.1343ZM43.5592 67.2534C42.0619 67.2534 33.7463 67.3534 31.0713 68.1294C29.0619 68.7147 29.1083 70.096 29.0641 71.0533C28.9906 72.6653 29.0327 72.4774 29.0895 74.0227C29.1526 75.744 30.0291 76.3134 32.2797 76.696C34.9354 77.1494 40.4587 77.2494 43.4859 77.2494H61.2234C64.2505 77.2494 69.7739 77.1494 72.4302 76.696C74.6811 76.3134 75.5567 75.744 75.6207 74.0227C75.6764 72.4774 75.7187 72.6653 75.6453 71.0533C75.601 70.096 75.6474 68.7147 73.6379 68.1294C70.963 67.3534 62.6499 67.2534 61.151 67.2534H43.5592ZM37.1343 62.136C36.9005 62.136 36.7671 62.272 36.7671 62.492V64.72C47.139 64.456 57.5702 64.456 67.9421 64.72V62.492C67.9421 62.272 67.8098 62.136 67.575 62.136H37.1343ZM170.102 85.192L169.812 95.2067H189.901L190.614 85.192H170.102ZM195.342 82.368C195.576 82.368 195.709 82.2333 195.709 82.012V79.7854C185.336 80.0467 174.906 80.0467 164.533 79.7854V82.012C164.533 82.232 164.666 82.368 164.901 82.368H195.342ZM188.917 67.1267C190.414 67.1267 198.73 67.2267 201.405 68.0027C203.414 68.5853 203.369 69.968 203.412 70.9254C203.485 72.536 203.442 72.3494 203.386 73.8947C203.324 75.616 202.446 76.1867 200.196 76.568C197.541 77.02 192.017 77.1227 188.99 77.1227H171.253C168.226 77.1227 162.702 77.02 160.046 76.568C157.796 76.1867 156.917 75.6174 156.856 73.8947C156.8 72.3507 156.758 72.536 156.832 70.9254C156.874 69.968 156.829 68.5853 158.838 68.0027C161.513 67.2267 169.826 67.1267 171.325 67.1267H188.917Z" fill="#CE9209"/>
<path fill-rule="evenodd" clip-rule="evenodd" d="M171.757 86.7066L171.486 95.2066H174.92L175.261 86.7066H171.757ZM178.184 86.7066L177.777 95.2066H181.209L181.684 86.7066H178.184ZM184.609 86.7066L184.084 95.2066H187.52L188.112 86.7066H184.609ZM111.646 86.7066L111.716 95.2066H108.45L108.314 86.7066H111.646ZM117.757 86.7066L117.714 95.2066H114.452L114.428 86.7066H117.757ZM123.87 86.7066L123.698 95.2066H120.433L120.54 86.7066H123.87ZM47.7223 86.7066L48.2463 95.2066H44.8125L44.2188 86.7066H47.7223ZM54.1499 86.7066L54.5567 95.2066H51.1213L50.6474 86.7066H54.1499ZM60.575 86.7066L60.8469 95.2066H57.413L57.0729 86.7066H60.575ZM165.592 279.868L167.506 280.231L168.094 265.581C167.41 265.936 166.717 266.28 166.017 266.615L165.592 279.868ZM168.94 280.5L170.854 280.852L171.824 263.487C171.125 263.911 170.416 264.321 169.693 264.723L168.94 280.5ZM172.62 281.167L174.536 281.497L175.986 260.695C175.27 261.223 174.538 261.739 173.789 262.237L172.62 281.167ZM66.7494 279.868L64.8363 280.231L64.2469 265.581C64.9311 265.936 65.6239 266.28 66.3254 266.615L66.7494 279.868ZM63.4015 280.5L61.4869 280.852L60.5182 263.487C61.2166 263.911 61.9265 264.321 62.6483 264.723L63.4015 280.5ZM59.7223 281.167L57.8057 281.497L56.3562 260.695C57.0713 261.223 57.8035 261.739 58.5526 262.237L59.7223 281.167Z" fill="#A16409"/>
<path d="M3.30566 275.639C39.339 298.832 66.4879 276.674 116.166 276.674C165.844 276.674 192.992 298.832 229.025 275.639C227.37 284.863 225.629 292.541 221.808 301.115C215.562 315.133 206.825 321.098 191.978 320.766C170.44 320.284 147.901 311.239 116.166 311.239C84.4317 311.239 61.8911 320.284 40.3541 320.766C25.5062 321.098 16.7693 315.133 10.5229 301.115C6.70206 292.541 4.96193 284.863 3.30566 275.639ZM11.8797 226.084C21.9338 225.035 32.0655 227.553 41.0302 232.1L41.3114 235.473C41.4937 237.652 41.8759 239.723 42.4322 241.692C39.4693 243.156 35.2254 244.531 30.6625 246.009C28.539 246.697 26.3515 247.407 24.1697 248.163C21.8734 240.369 17.853 232.149 11.8797 226.084ZM44.125 235.241L32.6641 98.0307H199.672L188.21 235.241C183.904 286.836 48.4333 286.842 44.125 235.241ZM153.51 248.86C152.916 250.645 151.508 252.3 149.94 253.325C145.922 255.952 141.201 254.089 136.568 252.273C128.898 249.259 126.722 248.021 121.933 254.559C120.241 250.808 119.09 247.281 122.55 243.833C125.801 240.593 133.64 241.188 137.234 238.431C140.269 236.105 136.132 230.949 134.557 228.899L124.734 225.955L122.465 215.883C115.456 211.468 98.225 201.428 90.9717 209.177C86.5863 213.871 88.9477 217.723 91.6823 222.18C97.0943 231.012 98.0557 235.044 94.281 244.685C86.577 233.844 83.5263 233.329 71.3958 228.5C58.7119 223.447 43.8775 217.724 48.7598 200.843C54.2963 181.549 84.6863 182.835 100.097 186.459L86.6837 174.113C84.4223 175.991 82.1677 176.831 79.501 174.256C77.5213 175.713 75.4723 176.887 73.2526 175.228C71.6791 173.944 70.1947 172.504 69.1155 170.769C67.6833 168.488 69.0521 166.463 70.5713 164.677C67.8609 161.451 69.5161 159.061 72.0963 156.653L87.913 141.908C90.4917 139.501 92.9903 138.017 96.0197 140.944C97.9077 139.555 100.025 138.329 102.197 139.919C103.853 141.116 105.186 142.697 106.358 144.356C107.858 146.685 106.545 148.649 104.953 150.524C107.334 153.363 106.34 155.553 104.309 157.675L115.688 171.919C113.224 156.215 113.886 125.939 133.632 121.708C150.894 118.063 155.449 133.143 159.628 146.217C163.162 157.288 164.417 162.911 173.898 169.968C164.533 173.583 159.844 171.676 151.909 166.016C147.652 162.977 143.974 160.353 138.988 164.401C130.734 171.108 139.584 188.968 143.48 196.288L153.372 199.252L155.62 209.257C157.557 210.971 162.41 215.457 164.941 212.593C167.942 209.196 167.897 201.339 171.358 198.323C175.034 195.108 178.474 196.504 182.097 198.453C175.244 202.777 176.328 205.032 178.797 212.895C180.289 217.641 181.816 222.483 178.916 226.305C177.784 227.799 176.034 229.088 174.21 229.557C177.141 235.221 176.506 245.004 176.158 252.395C168.761 252.227 158.957 252.177 153.51 248.86ZM67.1734 111.383C72.1917 108.68 72.7515 106.275 74.4499 101.292C80.3237 107.465 82.3143 111.085 75.8041 117.595C73.7193 119.676 71.3515 122.045 71.625 126.356C71.7499 128.341 73.4453 128.548 74.0109 126.955C75.0458 123.964 76.9838 122.544 78.9037 121.139C82.5797 118.448 82.4517 117.432 83.181 113.343C89.7677 118.533 90.9623 122.568 87.881 130.257C86.077 134.768 86.313 135.623 86.6397 140.125C82.7383 139.659 80.369 138.341 78.1395 134.911C76.7489 139.2 78.9277 141.607 80.9303 145.133C75.1677 144.523 72.5958 143.375 68.9307 138.579C68.3974 144.696 71.8754 146.756 75.9114 150.328C71.1671 150.865 68.6671 151.149 64.3958 148.709C65.5874 152.916 67.4974 153.62 71.015 155.548C62.9343 159.225 54.2171 159.589 48.0338 152.413C44.7171 148.564 42.8655 142.025 44.7999 137.209C46.151 133.837 49.1619 131.235 53.2254 128.653C57.9322 125.655 59.0483 124.741 60.8239 119.393C62.2817 115.017 63.0119 113.625 67.1734 111.383ZM220.452 226.084C210.398 225.035 200.265 227.553 191.301 232.1L191.02 235.473C190.837 237.652 190.456 239.723 189.898 241.692C192.862 243.156 197.106 244.531 201.67 246.009C203.792 246.697 205.98 247.407 208.161 248.163C210.458 240.369 214.478 232.149 220.452 226.084Z" stroke="#000916" stroke-width="0.580819" stroke-miterlimit="10" stroke-linejoin="round"/>
<path fill-rule="evenodd" clip-rule="evenodd" d="M3.30566 275.639C39.339 298.832 66.4879 276.674 116.166 276.674C165.844 276.674 192.992 298.832 229.025 275.639C227.37 284.863 225.629 292.541 221.808 301.115C215.562 315.133 206.825 321.098 191.978 320.766C170.44 320.284 147.901 311.239 116.166 311.239C84.4317 311.239 61.8911 320.284 40.3541 320.766C25.5062 321.098 16.7693 315.133 10.5229 301.115C6.70206 292.541 4.96193 284.863 3.30566 275.639ZM11.8797 226.084C21.9338 225.035 32.0655 227.553 41.0302 232.1L41.3114 235.473C41.4937 237.652 41.8759 239.723 42.4322 241.692C39.4693 243.156 35.2254 244.531 30.6625 246.009C28.539 246.697 26.3515 247.407 24.1697 248.163C21.8734 240.369 17.853 232.149 11.8797 226.084ZM44.125 235.241L32.6641 98.0307H199.672L188.21 235.241C183.904 286.836 48.4333 286.842 44.125 235.241ZM153.51 248.86C152.916 250.645 151.508 252.3 149.94 253.325C145.922 255.952 141.201 254.089 136.568 252.273C128.898 249.259 126.722 248.021 121.933 254.559C120.241 250.808 119.09 247.281 122.55 243.833C125.801 240.593 133.64 241.188 137.234 238.431C140.269 236.105 136.132 230.949 134.557 228.899L124.734 225.955L122.465 215.883C115.456 211.468 98.225 201.428 90.9717 209.177C86.5863 213.871 88.9477 217.723 91.6823 222.18C97.0943 231.012 98.0556 235.044 94.281 244.685C86.577 233.844 83.5263 233.329 71.3958 228.5C58.7119 223.447 43.8775 217.724 48.7598 200.843C54.2963 181.549 84.6863 182.835 100.097 186.459L86.6837 174.113C84.4223 175.991 82.1677 176.831 79.501 174.256C77.5213 175.713 75.4723 176.887 73.2526 175.228C71.6791 173.944 70.1947 172.504 69.1155 170.769C67.6833 168.488 69.0521 166.463 70.5713 164.677C67.8609 161.451 69.5161 159.061 72.0963 156.653L87.913 141.908C90.4917 139.501 92.9903 138.017 96.0197 140.944C97.9077 139.555 100.025 138.329 102.197 139.919C103.853 141.116 105.186 142.697 106.358 144.356C107.858 146.685 106.545 148.649 104.953 150.524C107.334 153.363 106.34 155.553 104.309 157.675L115.688 171.919C113.224 156.215 113.886 125.939 133.632 121.708C150.894 118.063 155.449 133.143 159.628 146.217C163.162 157.288 164.417 162.911 173.898 169.968C164.533 173.583 159.844 171.676 151.909 166.016C147.652 162.977 143.974 160.353 138.988 164.401C130.734 171.108 139.584 188.968 143.48 196.288L153.372 199.252L155.62 209.257C157.557 210.971 162.41 215.457 164.941 212.593C167.942 209.196 167.897 201.339 171.358 198.323C175.034 195.108 178.474 196.504 182.097 198.453C175.244 202.777 176.328 205.032 178.797 212.895C180.289 217.641 181.816 222.483 178.916 226.305C177.784 227.799 176.034 229.088 174.21 229.557C177.141 235.221 176.506 245.004 176.158 252.395C168.761 252.227 158.957 252.177 153.51 248.86ZM67.1734 111.383C72.1917 108.68 72.7515 106.275 74.4499 101.292C80.3237 107.465 82.3143 111.085 75.8041 117.595C73.7193 119.676 71.3515 122.045 71.625 126.356C71.7499 128.341 73.4453 128.548 74.0109 126.955C75.0458 123.964 76.9838 122.544 78.9037 121.139C82.5797 118.448 82.4517 117.432 83.181 113.343C89.7677 118.533 90.9623 122.568 87.881 130.257C86.077 134.768 86.313 135.623 86.6397 140.125C82.7383 139.659 80.369 138.341 78.1395 134.911C76.7489 139.2 78.9277 141.607 80.9303 145.133C75.1677 144.523 72.5958 143.375 68.9307 138.579C68.3974 144.696 71.8754 146.756 75.9114 150.328C71.1671 150.865 68.6671 151.149 64.3958 148.709C65.5874 152.916 67.4974 153.62 71.015 155.548C62.9343 159.225 54.2171 159.589 48.0338 152.413C44.7171 148.564 42.8655 142.025 44.7999 137.209C46.151 133.837 49.1619 131.235 53.2254 128.653C57.9322 125.655 59.0483 124.741 60.8239 119.393C62.2817 115.017 63.0119 113.625 67.1734 111.383ZM220.452 226.084C210.398 225.035 200.265 227.553 191.301 232.1L191.02 235.473C190.837 237.652 190.456 239.723 189.898 241.692C192.862 243.156 197.106 244.531 201.67 246.009C203.792 246.697 205.98 247.407 208.161 248.163C210.458 240.369 214.478 232.149 220.452 226.084Z" fill="#0B4E82"/>
<path fill-rule="evenodd" clip-rule="evenodd" d="M83.9823 168.248C82.029 170.069 80.2623 171.575 78.1338 173.125C75.9625 174.473 75.3551 174.667 74.2307 173.813C73.0469 172.936 71.4369 171.208 70.6442 169.967C69.8702 168.785 70.1051 168.192 71.6015 166.12C73.2974 164.104 74.9213 162.448 76.8745 160.627L91.5397 146.952C93.4917 145.131 95.2583 143.627 97.3863 142.075C99.5583 140.728 100.166 140.533 101.29 141.388C102.474 142.265 104.084 143.993 104.876 145.235C105.65 146.415 105.416 147.008 103.92 149.08C102.222 151.095 100.6 152.752 98.6463 154.575L83.9823 168.248ZM229.296 272.082C232.098 254.248 201.821 250.504 189.012 244.385C187.252 249.001 184.48 253.016 180.972 256.495C190.346 262.156 205.429 270.651 206.562 282.095C215.41 280.259 222.356 276.683 229.296 272.082ZM3.03593 272.082C0.233262 254.247 30.515 250.504 43.3234 244.385C45.0833 249.001 47.8541 253.016 51.3609 256.495C41.9863 262.156 26.9021 270.651 25.7693 282.095C16.9213 280.259 9.97699 276.683 3.03593 272.082ZM75.1005 104.463C72.1587 113.079 66.8791 111.949 64.2573 115.603C62.413 118.169 62.2155 122.432 59.6587 125.612C55.1641 131.207 44.4223 132.173 45.9718 143.741C47.1754 152.733 56.1885 158.965 67.3021 155.465C63.3807 153.317 62.1515 148.375 62.1797 144.667C64.0625 147.232 68.8947 149.319 71.9521 149.115C67.0307 145.495 66.1697 139.699 68.315 134.089C69.4874 137.485 74.1453 142.404 77.8265 143.127C75.3431 139.644 75.2739 135.613 78.4343 130.596C78.297 133.669 82.1863 137.472 84.8303 138.243C83.2943 129.855 92.7743 125.375 84.3397 116.276C83.2223 122.517 77.3286 122.057 75.5302 127.575C74.6311 130.343 70.2202 130.699 69.9567 126.563C69.2177 114.929 84.1517 115.937 75.1005 104.463ZM142.04 223.325C147.893 229.649 147.649 240.769 152.65 246.004C157.11 250.671 168.477 250.387 174.477 250.593C174.69 244.592 175.766 233.273 171.424 228.5C166.549 223.144 155.44 222.612 149.538 216.332L142.04 223.325ZM124.113 215.38L142.865 197.895L150.958 200.321L125.968 223.624L124.113 215.38ZM141.706 196.619C137.382 188.448 128.782 170.472 137.902 163.069C149.55 153.616 154.289 173.695 170.382 169.492C154.344 158.565 159.922 119.185 134.938 123.211C115.236 126.395 114.456 158.38 117.968 174.773L138.104 199.977L141.689 196.635L141.706 196.619ZM127.785 209.601L87.9677 172.957L103.066 158.88L136.842 201.155L127.785 209.601ZM122.92 214.137C115.072 209.252 97.7396 199.419 89.7183 208.001C79.477 218.961 99.1743 225.089 93.8597 240.852C84.0797 224.089 44.4035 226.907 50.1645 202.264C54.7135 182.832 86.6743 184.284 102.785 188.932L126.524 210.777L122.938 214.12L122.92 214.137Z" fill="#E9E9E9"/>
<path fill-rule="evenodd" clip-rule="evenodd" d="M73.2707 157.916C71.3989 159.661 69.853 161.197 71.9265 163.623C72.1989 163.332 73.3702 162.023 75.9417 159.625L90.605 145.952C93.177 143.553 94.5637 142.477 94.873 142.225C92.5983 139.987 90.9583 141.423 89.0863 143.168L73.2707 157.916ZM86.4343 172.032C84.5623 173.777 82.9223 175.213 80.6477 172.976C80.957 172.724 82.3437 171.647 84.9157 169.249L99.5797 155.575C102.15 153.177 103.322 151.868 103.594 151.577C105.668 154.003 104.122 155.539 102.249 157.285L86.4343 172.032ZM135.238 227.311L153.989 209.825L152.133 201.581L127.144 224.885L135.238 227.311ZM122.92 214.137C115.072 209.252 97.7397 199.42 89.7183 208.001C79.4757 218.961 99.1743 225.089 93.8597 240.852C92.8503 220.817 65.0702 221.776 73.2885 205.844C83.1423 186.741 114.433 199.609 126.522 210.777L122.92 214.137ZM141.706 196.619C137.382 188.448 128.782 170.472 137.902 163.069C149.55 153.616 154.289 173.695 170.384 169.492C150.468 167.087 153.362 139.441 136.896 146.529C117.153 155.025 127.806 187.139 138.105 199.977L141.706 196.619ZM173.236 228.009C175.116 227.803 177.71 225.94 178.548 223.285C180.814 216.629 170.061 203.781 178.846 198.799C176.386 197.812 174.073 198.229 172.488 199.613C167.95 203.565 169.681 223.923 155.132 211.116L150.794 215.161C156.564 221.295 168.364 221.597 173.236 228.009ZM152.036 247.78C151.698 249.64 149.658 252.099 146.953 252.748C140.154 254.545 128.089 242.921 122.505 251.337C121.692 248.815 122.269 246.537 123.761 245.052C128.02 240.803 148.206 243.948 136.445 228.541L140.784 224.496C146.501 230.68 145.978 242.471 152.036 247.78Z" fill="#BDBCBC"/>
<path d="M32.7327 294.669C32.8952 297.181 33.1927 300.204 33.3531 302.715C34.504 302.86 35.6551 302.975 36.8062 303.008C38.8874 303.067 39.0988 302.225 39.064 300.309C39.2818 300.305 39.502 300.297 39.7212 300.292C39.8728 302.639 40.0103 304.856 40.1598 307.205C39.9406 307.212 39.7234 307.219 39.5067 307.223C39.1635 305.332 39.0479 304.372 36.8734 304.298C35.7291 304.258 34.5832 304.15 33.4379 304.01C33.5734 306.126 33.6984 308.139 33.84 310.251C33.9244 311.534 34.1379 312.367 35.2598 312.444C36.2318 312.511 37.116 312.49 38.0244 312.525C40.5484 312.622 41.5062 311.312 42.2911 308.756L42.9603 308.839C42.5927 310.948 42.3942 311.827 41.9062 313.509C37.0484 313.8 33.0447 313.762 29.2655 312.991C29.2484 312.734 29.2343 312.476 29.216 312.216C31.1452 312.587 31.4812 312.151 31.351 310.129C31.0775 305.869 30.6108 300.699 30.3515 296.437C30.2406 294.624 29.7895 294.078 27.8827 293.621C27.8671 293.361 27.8499 293.101 27.8374 292.837C32.4635 293.6 35.6338 293.72 40.5264 293.641C40.6859 295.143 40.8416 296.65 40.9999 298.151C40.7718 298.158 40.5436 298.169 40.3155 298.179C39.7734 295.832 39.1755 294.951 37.0234 294.902C35.5682 294.868 34.2239 294.817 32.7327 294.669ZM26.5494 292.675C26.5859 294.65 26.6264 296.057 26.8302 298.323L26.1734 298.153C25.4416 295.216 23.051 292.42 19.9531 292.046C17.3119 291.726 16.94 294.806 19.0416 296.514C21.478 298.496 26.7583 301.259 28.3526 304.245C30.8322 308.886 27.5598 313.578 23.566 311.399C22.3968 310.762 21.1067 309.655 20.1427 308.732C19.4416 308.059 19.1275 308.212 19.5474 309.157L18.9124 308.721C18.2608 307.137 17.4906 304.527 17.1051 302.592L17.8442 302.957C19.1135 306.076 21.0931 308.737 23.6764 310.378C25.8687 311.772 27.666 309.725 26.3974 306.994C24.9983 303.983 20.5094 301.976 17.7931 299.079C15.0884 296.197 15.126 291.406 18.8223 290.889C20.9223 290.596 22.9422 291.697 24.576 292.861C25.4958 293.516 25.8447 293.732 25.8822 292.523L26.5494 292.675ZM82.9343 287.12C83.0516 289.426 83.157 291.246 83.2796 293.552C83.073 293.6 82.8663 293.65 82.661 293.699C82.3436 291.9 81.7036 290.093 79.8343 289.403C76.7468 288.266 73.2187 291.706 75.3744 294.104C76.7932 295.684 80.8823 297.264 82.8116 298.526C85.541 300.313 85.6023 303.108 83.8463 305.552C82.145 307.92 79.001 308.235 76.7526 307.603C75.3484 307.21 74.5395 306.825 74.4359 308.487L73.7963 308.624C73.6854 306.356 73.7791 305.257 73.6796 302.989L74.3468 302.796C74.728 304.646 74.9432 305.562 76.8416 306.327C78.4983 306.994 81.0223 306.738 82.105 305.282C83.3183 303.644 82.4863 302.403 80.7703 301.3C78.537 299.863 74.6979 298.697 73.2802 296.138C70.7671 291.606 75.7936 286.81 80.4423 288.032C81.685 288.358 82.161 288.57 82.3223 287.281C82.5276 287.228 82.7303 287.175 82.9343 287.12ZM62.8671 292.369C62.9802 294.962 63.0932 297.085 63.2083 299.677C64.4051 299.495 65.601 299.294 66.7952 299.078C68.7676 298.723 69.2594 297.884 69.2515 296.093C69.4614 296.048 69.675 295.997 69.8864 295.949C69.9832 298.329 70.0468 299.863 70.1436 302.243C69.9348 302.288 69.728 302.337 69.5203 302.382C69.2379 300.645 68.6302 300.036 66.8515 300.348C65.6578 300.557 64.4599 300.772 63.2671 300.95C63.3666 303.135 63.4536 304.907 63.5452 307.088C63.5979 308.372 63.4103 309.293 64.9338 309.034C65.8698 308.876 66.8155 308.687 67.7499 308.484C70.8182 307.812 71.5807 305.911 72.3916 303.342L73.0708 303.133C72.7614 305.06 72.2031 307.157 71.7739 309.013C67.639 309.767 63.6103 310.604 58.7411 311.382C58.7286 311.134 58.7166 310.889 58.7078 310.641C60.9952 310.335 61.0947 309.547 60.9963 307.384C60.7952 303.01 60.5786 299.362 60.3807 294.988C60.2802 292.77 59.8542 292.397 57.8594 292.547C57.8479 292.295 57.8354 292.045 57.8266 291.795C62.2739 291.078 66.0802 290.305 70.9176 289.403C71.0656 290.939 71.225 292.253 71.366 293.744C71.149 293.801 70.9348 293.855 70.7212 293.902C70.2004 291.481 69.8384 290.957 67.3655 291.484C65.887 291.798 64.6488 292.029 62.8671 292.369ZM48.0452 311.295C49.0822 311.451 49.8739 311.465 50.5598 311.382C52.5536 311.135 53.9332 310.095 54.9296 308.402C56.6004 305.562 56.4348 301.827 55.326 298.832C54.2968 296.049 52.2796 293.861 49.2302 294.355C48.5239 294.469 47.7671 294.576 46.8791 294.977C47.2494 300.495 47.6608 305.778 48.0452 311.295ZM43.2322 313.418C43.2166 313.167 43.213 312.928 43.228 312.656C45.4963 312.538 45.4916 311.817 45.3562 309.653C45.0906 305.424 44.7755 301.408 44.516 297.178C44.378 294.917 44.2488 294.35 42.0374 294.477C42.0239 294.223 42.002 293.872 41.9895 293.613C44.2775 293.487 46.4682 293.441 48.725 293.081C52.313 292.509 55.2474 292.86 57.3936 296.332C59.5895 299.884 59.6927 304.909 57.587 308.552C56.0911 311.143 53.5884 312.273 50.6942 312.627C48.2056 312.932 45.737 313.263 43.2322 313.418ZM124.002 294.418C125.518 294.849 126.873 294.956 128.117 293.583C129.309 292.264 129.43 289.801 128.838 288.185C128.34 286.821 127.365 285.891 125.881 285.786C125.468 285.758 125.013 285.786 124.341 285.923C124.225 288.601 124.106 291.738 124.002 294.418ZM101.801 284.732C101.846 286.994 101.884 288.707 101.932 290.968C101.713 290.992 101.497 291.015 101.281 291.039C100.944 288.769 99.9863 286.786 97.7663 286.434C96.477 286.228 95.173 286.577 94.3036 287.591C92.709 289.454 93.5463 291.077 95.3756 292.179C97.2196 293.288 99.6036 293.97 101.3 295.214C104.31 297.424 103.361 302.053 100.644 304.189C98.757 305.672 96.941 305.436 94.665 304.932C93.241 304.615 92.597 304.08 92.4063 305.672L91.737 305.757C91.6863 303.513 91.677 301.957 91.629 299.713L92.277 299.571C92.6436 301.524 93.0263 302.658 94.9343 303.566C96.4903 304.306 98.537 304.314 99.689 302.988C101.08 301.388 100.994 299.055 99.3156 297.893C97.4796 296.62 95.113 296.044 93.2876 294.693C90.7676 292.83 90.669 289.428 92.6783 287.102C93.9596 285.62 95.8863 284.922 97.8183 285.123C99.509 285.298 100.772 286.937 101.153 284.801C101.369 284.777 101.585 284.753 101.801 284.732ZM138.594 304.697L138.521 305.501C135.912 305.188 133.826 304.973 131.026 304.75L131.11 303.913C133.425 303.935 133.536 303.694 133.746 301.309C134.125 297.052 134.513 292.951 134.914 288.695C135.132 286.393 135.096 285.854 132.682 285.695C132.706 285.426 132.725 285.204 132.753 284.929C135.378 285.096 137.993 285.578 140.532 285.824C140.505 286.098 140.477 286.37 140.449 286.64C138.321 286.371 137.896 286.641 137.658 289.001C137.233 293.265 136.834 297.321 136.433 301.585C136.209 303.973 136.334 304.389 138.594 304.697ZM147.502 288.226C147.222 290.725 146.945 293.224 146.668 295.723C147.861 295.924 149.054 296.126 150.241 296.351C152.3 296.744 152.76 296.203 153.092 294.194C153.298 294.243 153.512 294.285 153.722 294.333C153.45 296.649 153.236 298.594 152.97 300.911C152.761 300.866 152.553 300.822 152.342 300.774C152.348 299.026 152.18 297.995 150.128 297.582C148.934 297.341 147.729 297.152 146.53 296.949C146.284 299.213 146.056 300.677 145.821 302.941C145.68 304.307 145.414 304.996 146.913 305.257C147.841 305.417 148.997 305.613 149.932 305.753C152.632 306.159 153.325 305.356 154.85 302.952C155.072 303.008 155.29 303.069 155.514 303.126C154.822 304.682 154.228 306.179 153.541 307.733C148.733 306.863 144.862 306.339 140.597 305.757C140.621 305.524 140.646 305.175 140.67 304.937C142.834 305.107 143.104 304.878 143.341 302.667C143.809 298.295 144.222 294.42 144.694 290.048C144.944 287.722 144.682 287.291 142.586 286.942C142.613 286.705 142.658 286.364 142.684 286.123C147.129 286.772 151.394 287.52 155.846 288.324C155.733 289.828 155.566 290.942 155.458 292.444C155.237 292.394 155.016 292.344 154.797 292.289C154.745 290.157 154.356 289.45 152.086 288.993C150.592 288.691 149.058 288.455 147.502 288.226ZM157.474 288.628C158.914 288.902 160.353 289.175 161.782 289.45C164.25 294.787 166.837 299.572 169.378 304.875C169.809 301.242 170.161 298.261 170.582 294.628C170.832 292.475 170.597 291.879 168.724 291.547C168.753 291.294 168.782 291.041 168.81 290.785C170.606 291.115 172.421 291.471 174.348 291.769C174.318 292.026 174.293 292.284 174.262 292.537C172.364 292.233 172.058 292.539 171.813 294.673C171.176 300.206 170.593 305.2 169.937 310.735C169.742 310.706 169.544 310.674 169.346 310.645C166.594 304.94 163.805 299.772 161.125 294.033C160.638 297.915 160.132 301.489 159.713 305.376C159.477 307.576 159.713 307.928 161.532 308.353L161.389 309.15C159.549 308.779 157.625 308.488 155.753 308.117C155.796 307.869 155.882 307.577 155.926 307.325C157.716 307.617 158.253 307.267 158.48 305.153C158.965 300.632 159.576 296.429 160.144 291.915C159.469 290.517 158.993 289.676 157.373 289.378C157.406 289.128 157.44 288.881 157.474 288.628ZM188.849 293.509C188.73 295.189 188.545 296.767 188.426 298.446C188.214 298.445 187.998 298.44 187.782 298.427C187.81 296.499 187.641 294.811 185.353 294.564C184.618 294.485 183.792 294.389 183.04 294.326C182.45 299.464 181.969 303.945 181.374 309.079C181.113 311.325 181.308 311.905 183.421 312.114C183.392 312.362 183.361 312.603 183.334 312.844C180.924 312.584 178.241 312.14 175.997 311.785C176.025 311.544 176.056 311.301 176.086 311.06C178.084 311.363 178.517 311.098 178.802 308.709C179.413 303.612 179.91 299.116 180.514 294.014C179.877 293.939 179.237 293.852 178.605 293.778C176.225 293.493 175.438 294.589 174.986 296.924C174.773 296.898 174.558 296.867 174.342 296.839C174.61 295.223 174.852 293.52 175.12 291.897C179.434 292.59 184.237 293.277 188.849 293.509ZM204.248 294.431C203.261 297.028 202.328 299.961 201.513 302.617C202.552 302.397 203.594 302.173 204.642 301.928C204.546 300.147 204.328 296.184 204.248 294.431ZM187.624 313.298L187.704 312.493C189.781 312.6 190.036 311.969 190.301 309.848C190.852 305.448 191.276 301.598 191.884 297.207C192.209 294.856 191.612 294.662 189.844 294.531L189.913 293.583C192.822 293.737 195.194 293.679 197.553 293.578L197.441 294.533C195.441 294.674 194.888 295.112 194.522 297.467C193.845 301.841 193.386 305.681 192.777 310.064C192.536 311.801 192.51 312.926 194.349 312.929C195.79 312.932 196.46 312.517 197.248 310.237C199.157 304.715 201.134 298.52 203.11 293.047C207.21 292.488 209.941 291.74 212.901 290.826C212.989 292.22 212.976 292.739 213.062 294.109L212.465 294.417C212.262 292.938 211.797 292.305 210.21 292.811C209.076 293.172 207.332 293.607 206.21 293.831C206.334 296.294 206.517 298.944 206.624 301.407C207.498 301.156 208.377 300.9 209.258 300.6C210.936 300.031 211.077 299.269 211.086 297.608C211.28 297.535 211.474 297.464 211.669 297.39C211.721 299.577 211.762 301.176 211.804 303.364C211.613 303.452 211.428 303.526 211.242 303.603C211.076 302.176 211.09 301.198 209.317 301.808C208.437 302.111 207.552 302.381 206.677 302.638C206.756 304.631 206.821 306.623 206.894 308.601C206.928 309.504 206.702 310.671 207.85 310.239C208.525 309.985 209.464 309.625 210.14 309.329C211.49 308.743 212.442 307.553 213.185 305.088C213.392 304.979 213.594 304.873 213.801 304.764C213.425 306.538 213.301 307.31 212.937 309.083C210.136 310.99 206.418 312.348 203.416 312.922L203.402 312.183C205.234 311.644 205.048 310.749 204.973 308.965C204.892 307.039 204.794 305.105 204.701 303.16C203.446 303.471 202.202 303.761 200.961 304.033C200.168 306.231 199.417 308.474 198.633 310.641C197.954 312.519 198.265 313.111 200.297 312.675L200.346 313.403C195.692 313.893 191.392 313.651 187.624 313.298ZM112.772 296.353C111.848 293.872 110.92 291.391 109.986 288.912C109.086 291.473 108.297 294.027 107.402 296.589C109.23 296.497 110.946 296.421 112.772 296.353ZM123.96 295.439C123.878 297.304 123.822 298.874 123.744 300.737C123.646 303.058 123.77 303.453 126.037 303.627C126.028 303.867 125.994 304.169 125.986 304.407C121.608 304.148 117.644 304.142 113.026 304.16C113.025 303.924 113.021 303.688 113.017 303.449C114.141 303.35 115.009 302.902 114.684 301.73C114.357 300.549 113.569 298.593 113.198 297.595C111.085 297.673 109.077 297.764 106.968 297.875C106.654 298.778 105.892 300.827 105.546 302.044C105.189 303.313 106.273 303.62 107.35 303.644L107.356 304.355C105.698 304.444 103.762 304.547 101.928 304.7L101.92 304.005C103.176 303.657 103.482 303.385 103.944 302.236C105.698 297.867 109.368 287.201 110.341 284.033C110.525 284.025 110.713 284.016 110.902 284.008C111.782 286.344 115.824 297.535 117.461 301.458C117.916 302.551 118.344 303.263 119.662 303.299C120.972 303.334 121.125 302 121.193 300.606C121.398 296.372 121.529 292.006 121.698 287.771C121.794 285.406 121.692 285.01 119.405 284.88C119.413 284.64 119.422 284.4 119.43 284.158C121.521 284.261 123.604 284.257 125.692 284.403C128.074 284.572 130.089 285.186 131.398 287.337C132.686 289.459 132.413 292.797 130.612 294.547C128.828 296.279 126.108 296.112 123.96 295.439Z" stroke="#1170B8" stroke-width="0.580679" stroke-miterlimit="22.9256" stroke-linejoin="round"/>
<path fill-rule="evenodd" clip-rule="evenodd" d="M32.7328 294.669C32.8953 297.181 33.1926 300.204 33.353 302.715C34.5041 302.86 35.6552 302.975 36.8062 303.008C38.8874 303.068 39.0989 302.225 39.0641 300.309C39.2817 300.305 39.5021 300.297 39.7213 300.292C39.8729 302.639 40.0104 304.856 40.1598 307.205C39.9406 307.212 39.7234 307.219 39.5068 307.223C39.1636 305.332 39.0478 304.372 36.8734 304.298C35.7292 304.258 34.5833 304.15 33.438 304.01C33.5734 306.126 33.6984 308.139 33.8401 310.251C33.9245 311.534 34.138 312.368 35.2598 312.444C36.2317 312.511 37.1161 312.49 38.0245 312.525C40.5484 312.622 41.5062 311.312 42.2912 308.756L42.9604 308.839C42.5926 310.948 42.3942 311.827 41.9062 313.509C37.0484 313.8 33.0448 313.762 29.2656 312.991C29.2484 312.734 29.2344 312.476 29.2161 312.216C31.1453 312.587 31.4812 312.151 31.351 310.13C31.0776 305.869 30.6109 300.699 30.3516 296.437C30.2406 294.624 29.7896 294.078 27.8828 293.621C27.8672 293.361 27.85 293.101 27.8374 292.837C32.4636 293.6 35.6338 293.72 40.5265 293.641C40.686 295.143 40.8417 296.65 41 298.151C40.7718 298.158 40.5437 298.169 40.3156 298.179C39.7734 295.832 39.1754 294.951 37.0234 294.902C35.5682 294.868 34.224 294.816 32.7328 294.669ZM26.5494 292.675C26.586 294.65 26.6265 296.057 26.8302 298.323L26.1734 298.153C25.4417 295.216 23.051 292.42 19.953 292.046C17.312 291.726 16.9401 294.806 19.0417 296.514C21.4781 298.496 26.7584 301.259 28.3526 304.245C30.8322 308.886 27.5598 313.578 23.5661 311.399C22.3969 310.762 21.1068 309.655 20.1426 308.732C19.4417 308.059 19.1276 308.212 19.5474 309.157L18.9125 308.721C18.2609 307.137 17.4906 304.527 17.1052 302.592L17.8442 302.957C19.1136 306.076 21.0932 308.737 23.6765 310.378C25.8688 311.772 27.6661 309.725 26.3974 306.994C24.9984 303.983 20.5093 301.976 17.7932 299.08C15.0885 296.197 15.126 291.406 18.8224 290.889C20.9224 290.596 22.9421 291.697 24.576 292.861C25.4958 293.516 25.8448 293.732 25.8822 292.523L26.5494 292.675ZM82.9344 287.12C83.0517 289.426 83.157 291.246 83.2797 293.552C83.073 293.6 82.8664 293.65 82.661 293.699C82.3437 291.9 81.7037 290.093 79.8344 289.404C76.7469 288.266 73.2188 291.706 75.3745 294.104C76.7932 295.684 80.8824 297.264 82.8117 298.526C85.541 300.313 85.6024 303.108 83.8464 305.552C82.145 307.92 79.001 308.235 76.7526 307.604C75.3484 307.21 74.5396 306.825 74.436 308.487L73.7964 308.624C73.6854 306.356 73.7792 305.257 73.6797 302.989L74.3469 302.796C74.7281 304.646 74.9432 305.562 76.8417 306.327C78.4984 306.994 81.0224 306.738 82.105 305.282C83.3184 303.644 82.4864 302.404 80.7704 301.3C78.537 299.863 74.6978 298.697 73.2802 296.138C70.7672 291.606 75.7937 286.81 80.4424 288.032C81.685 288.358 82.161 288.57 82.3224 287.281C82.5277 287.228 82.7304 287.175 82.9344 287.12ZM62.8672 292.369C62.9802 294.962 63.0932 297.085 63.2084 299.677C64.4052 299.495 65.601 299.294 66.7953 299.078C68.7677 298.723 69.2593 297.884 69.2516 296.093C69.4614 296.048 69.675 295.997 69.8864 295.949C69.9833 298.33 70.0469 299.863 70.1437 302.243C69.9349 302.288 69.7281 302.337 69.5202 302.382C69.238 300.645 68.6302 300.036 66.8516 300.348C65.6578 300.557 64.4598 300.772 63.2672 300.95C63.3666 303.135 63.4536 304.907 63.5453 307.088C63.5978 308.372 63.4104 309.293 64.9338 309.034C65.8697 308.876 66.8156 308.687 67.75 308.484C70.8182 307.812 71.5808 305.911 72.3917 303.342L73.0708 303.133C72.7614 305.06 72.203 307.157 71.774 309.013C67.639 309.767 63.6104 310.604 58.7412 311.382C58.7286 311.134 58.7166 310.889 58.7078 310.642C60.9953 310.335 61.0948 309.547 60.9964 307.384C60.7953 303.01 60.5786 299.362 60.3808 294.988C60.2802 292.77 59.8541 292.397 57.8593 292.547C57.8478 292.295 57.8354 292.045 57.8265 291.795C62.274 291.078 66.0802 290.305 70.9177 289.404C71.0656 290.939 71.225 292.254 71.3661 293.744C71.1489 293.801 70.9349 293.855 70.7213 293.902C70.2005 291.481 69.8385 290.957 67.3656 291.484C65.8869 291.798 64.6489 292.029 62.8672 292.369ZM48.0453 311.295C49.0822 311.451 49.874 311.465 50.5598 311.382C52.5536 311.135 53.9333 310.095 54.9297 308.402C56.6005 305.562 56.4349 301.827 55.326 298.832C54.2969 296.049 52.2797 293.861 49.2302 294.355C48.524 294.469 47.7672 294.576 46.8792 294.977C47.2494 300.495 47.6609 305.778 48.0453 311.295ZM43.2322 313.418C43.2166 313.168 43.213 312.928 43.2281 312.656C45.4964 312.538 45.4917 311.818 45.3562 309.653C45.0906 305.424 44.7754 301.408 44.5161 297.178C44.3781 294.917 44.2489 294.35 42.0374 294.477C42.024 294.223 42.0021 293.872 41.9896 293.613C44.2776 293.487 46.4682 293.442 48.725 293.081C52.313 292.509 55.2474 292.86 57.3937 296.332C59.5896 299.884 59.6926 304.909 57.5869 308.552C56.0912 311.143 53.5885 312.273 50.6942 312.627C48.2057 312.932 45.7369 313.263 43.2322 313.418ZM124.002 294.418C125.518 294.849 126.873 294.956 128.117 293.583C129.309 292.264 129.429 289.801 128.838 288.185C128.34 286.821 127.365 285.892 125.881 285.786C125.468 285.758 125.013 285.786 124.341 285.923C124.225 288.601 124.106 291.738 124.002 294.418ZM101.801 284.732C101.846 286.994 101.884 288.707 101.932 290.968C101.713 290.992 101.496 291.016 101.281 291.039C100.944 288.769 99.9864 286.786 97.7663 286.434C96.477 286.228 95.173 286.577 94.3037 287.592C92.709 289.454 93.5464 291.077 95.3757 292.179C97.2197 293.288 99.6037 293.97 101.3 295.214C104.31 297.424 103.361 302.054 100.644 304.189C98.757 305.672 96.941 305.436 94.665 304.932C93.241 304.616 92.597 304.08 92.4064 305.672L91.737 305.757C91.6864 303.513 91.677 301.957 91.629 299.713L92.277 299.571C92.6437 301.524 93.0264 302.658 94.9344 303.566C96.4904 304.306 98.537 304.314 99.689 302.988C101.08 301.388 100.994 299.055 99.3157 297.893C97.4797 296.62 95.113 296.044 93.2877 294.693C90.7677 292.83 90.669 289.428 92.6784 287.102C93.9597 285.62 95.8864 284.922 97.817 285.123C99.509 285.298 100.772 286.937 101.153 284.801C101.369 284.777 101.585 284.754 101.801 284.732ZM138.594 304.697L138.521 305.501C135.912 305.188 133.826 304.973 131.026 304.75L131.11 303.913C133.425 303.935 133.536 303.694 133.746 301.309C134.125 297.052 134.513 292.951 134.914 288.695C135.132 286.393 135.096 285.854 132.682 285.695C132.706 285.426 132.725 285.204 132.753 284.93C135.378 285.096 137.993 285.578 140.532 285.824C140.505 286.098 140.477 286.37 140.449 286.64C138.321 286.371 137.896 286.642 137.658 289.001C137.233 293.265 136.834 297.321 136.433 301.585C136.209 303.973 136.334 304.389 138.594 304.697ZM147.502 288.226C147.222 290.725 146.945 293.224 146.668 295.723C147.861 295.924 149.054 296.126 150.241 296.351C152.3 296.744 152.76 296.204 153.092 294.194C153.298 294.243 153.512 294.285 153.722 294.333C153.45 296.649 153.236 298.594 152.97 300.911C152.761 300.866 152.553 300.822 152.342 300.774C152.348 299.026 152.18 297.995 150.128 297.582C148.934 297.341 147.729 297.152 146.53 296.949C146.284 299.213 146.056 300.677 145.821 302.941C145.68 304.307 145.414 304.996 146.913 305.257C147.841 305.418 148.997 305.613 149.932 305.753C152.632 306.159 153.325 305.356 154.85 302.952C155.072 303.008 155.29 303.069 155.514 303.126C154.822 304.682 154.228 306.179 153.541 307.733C148.733 306.863 144.862 306.339 140.597 305.757C140.621 305.524 140.646 305.175 140.67 304.937C142.834 305.107 143.104 304.878 143.341 302.666C143.809 298.295 144.222 294.42 144.694 290.048C144.944 287.722 144.682 287.291 142.586 286.942C142.613 286.705 142.658 286.364 142.684 286.123C147.129 286.772 151.394 287.52 155.846 288.324C155.733 289.828 155.566 290.942 155.458 292.444C155.237 292.394 155.016 292.344 154.797 292.289C154.745 290.157 154.356 289.45 152.086 288.993C150.592 288.691 149.058 288.455 147.502 288.226ZM157.474 288.628C158.914 288.902 160.353 289.175 161.782 289.45C164.25 294.787 166.837 299.572 169.378 304.875C169.809 301.242 170.161 298.261 170.582 294.628C170.832 292.475 170.597 291.879 168.724 291.547C168.753 291.294 168.782 291.042 168.81 290.785C170.606 291.115 172.421 291.471 174.348 291.769C174.318 292.026 174.293 292.284 174.262 292.537C172.362 292.233 172.058 292.539 171.813 294.673C171.176 300.206 170.593 305.2 169.937 310.735C169.742 310.706 169.544 310.674 169.346 310.645C166.594 304.94 163.805 299.772 161.125 294.033C160.638 297.915 160.132 301.489 159.713 305.376C159.477 307.576 159.713 307.928 161.532 308.354L161.389 309.15C159.549 308.78 157.625 308.488 155.753 308.116C155.796 307.869 155.882 307.577 155.926 307.325C157.716 307.617 158.253 307.267 158.48 305.154C158.965 300.632 159.576 296.43 160.144 291.915C159.469 290.516 158.993 289.676 157.373 289.378C157.406 289.128 157.44 288.881 157.474 288.628ZM188.849 293.509C188.729 295.189 188.545 296.767 188.426 298.446C188.214 298.445 187.998 298.44 187.782 298.427C187.81 296.499 187.641 294.811 185.353 294.564C184.618 294.485 183.792 294.389 183.04 294.326C182.45 299.464 181.969 303.945 181.374 309.079C181.113 311.325 181.308 311.905 183.421 312.114C183.392 312.362 183.361 312.603 183.334 312.844C180.924 312.584 178.241 312.14 175.996 311.785C176.025 311.544 176.056 311.301 176.086 311.06C178.084 311.363 178.517 311.098 178.802 308.709C179.413 303.612 179.91 299.116 180.514 294.014C179.877 293.939 179.237 293.852 178.605 293.778C176.225 293.493 175.438 294.589 174.986 296.924C174.773 296.898 174.558 296.868 174.342 296.839C174.61 295.223 174.852 293.52 175.12 291.897C179.434 292.59 184.237 293.277 188.849 293.509ZM204.248 294.431C203.261 297.028 202.328 299.961 201.513 302.617C202.55 302.397 203.594 302.173 204.642 301.928C204.546 300.147 204.328 296.184 204.248 294.431ZM187.624 313.298L187.704 312.493C189.781 312.6 190.036 311.969 190.301 309.848C190.852 305.448 191.274 301.598 191.884 297.207C192.209 294.856 191.612 294.662 189.844 294.531L189.913 293.583C192.822 293.737 195.194 293.68 197.553 293.578L197.441 294.533C195.441 294.674 194.888 295.112 194.522 297.468C193.845 301.841 193.386 305.681 192.777 310.064C192.536 311.801 192.51 312.926 194.349 312.929C195.79 312.932 196.46 312.517 197.248 310.237C199.157 304.715 201.134 298.52 203.11 293.047C207.21 292.488 209.941 291.74 212.901 290.826C212.989 292.22 212.974 292.739 213.062 294.109L212.465 294.417C212.262 292.938 211.797 292.305 210.21 292.811C209.076 293.172 207.332 293.607 206.21 293.831C206.334 296.294 206.517 298.944 206.624 301.407C207.498 301.156 208.377 300.9 209.258 300.6C210.936 300.031 211.077 299.269 211.086 297.608C211.28 297.535 211.474 297.464 211.669 297.39C211.721 299.577 211.762 301.176 211.804 303.364C211.613 303.452 211.428 303.526 211.241 303.604C211.076 302.176 211.09 301.198 209.317 301.808C208.437 302.111 207.552 302.381 206.677 302.638C206.756 304.631 206.821 306.623 206.894 308.601C206.928 309.504 206.702 310.671 207.85 310.239C208.525 309.985 209.464 309.625 210.14 309.33C211.49 308.743 212.441 307.553 213.185 305.088C213.392 304.979 213.594 304.873 213.801 304.764C213.425 306.538 213.301 307.31 212.937 309.083C210.136 310.99 206.418 312.348 203.416 312.922L203.402 312.183C205.234 311.644 205.048 310.749 204.973 308.965C204.892 307.039 204.794 305.105 204.701 303.16C203.446 303.471 202.202 303.761 200.961 304.033C200.168 306.231 199.417 308.474 198.633 310.642C197.954 312.519 198.265 313.111 200.297 312.675L200.346 313.404C195.692 313.893 191.392 313.651 187.624 313.298ZM112.772 296.354C111.848 293.872 110.92 291.391 109.986 288.912C109.086 291.473 108.297 294.027 107.402 296.589C109.23 296.497 110.946 296.421 112.772 296.354ZM123.96 295.439C123.878 297.304 123.822 298.874 123.744 300.737C123.646 303.058 123.77 303.453 126.037 303.627C126.028 303.868 125.994 304.169 125.986 304.407C121.608 304.148 117.644 304.142 113.026 304.16C113.025 303.924 113.021 303.688 113.017 303.449C114.141 303.35 115.009 302.902 114.684 301.73C114.357 300.549 113.569 298.593 113.198 297.595C111.084 297.673 109.077 297.764 106.968 297.875C106.654 298.778 105.892 300.827 105.546 302.044C105.189 303.313 106.273 303.62 107.35 303.644L107.356 304.355C105.698 304.444 103.762 304.547 101.928 304.7L101.92 304.005C103.176 303.657 103.482 303.385 103.944 302.236C105.698 297.868 109.368 287.201 110.341 284.033C110.525 284.025 110.713 284.016 110.902 284.008C111.782 286.344 115.824 297.535 117.461 301.458C117.916 302.551 118.344 303.263 119.662 303.299C120.972 303.334 121.125 302 121.193 300.606C121.398 296.372 121.529 292.006 121.698 287.771C121.794 285.406 121.692 285.01 119.405 284.88C119.413 284.64 119.422 284.4 119.43 284.158C121.521 284.261 123.604 284.257 125.692 284.404C128.074 284.572 130.089 285.186 131.398 287.337C132.686 289.459 132.413 292.797 130.612 294.547C128.828 296.279 126.108 296.112 123.96 295.439Z" fill="#E9E9E9"/>
<path d="M204.498 2.87068C198.092 3.76801 191.07 3.0187 186.418 7.16137C182.186 10.9334 179.069 17.5547 174.516 21.42C168.656 26.392 163.306 25.8027 159.157 33.72C155.836 40.0587 157.544 48.396 164.122 53.0733C162.525 48.3813 163.586 39.744 169.27 36.2854C168.646 40.156 169.666 46.856 172.09 50.0333C171.673 42.3907 177.114 31.6853 185.776 27.064C184.63 29.8933 179.896 38.5054 184.525 49.6187C185.933 43.492 190.178 38.944 196.082 37.004C193.916 40.6253 191.638 49.2347 194.113 54.2387C201.362 51.5413 199.816 45.7787 204.049 39.012C209.032 31.0494 205.421 27.4067 204.777 20.1413C202.174 23.5267 203.062 29.412 195.65 31.3093C192.148 32.2053 190.601 29.0413 192.322 26.3347C198.877 16.0293 194.506 12.612 204.498 2.87068ZM76.7557 2.87068C70.3505 3.76801 63.3281 3.01737 58.677 7.16137C54.4437 10.9334 51.3286 17.5547 46.7745 21.42C40.9141 26.3947 35.5636 25.8014 31.415 33.72C28.0932 40.0587 29.803 48.396 36.3802 53.0733C34.7838 48.3813 35.8432 39.744 41.5286 36.2854C40.9036 40.156 41.9234 46.856 44.3494 50.0333C43.9297 42.3907 49.3734 31.6853 58.0333 27.064C56.8896 29.8933 52.1541 38.5054 56.7822 49.6187C58.1901 43.492 62.4364 38.944 68.3412 37.004C66.174 40.6253 63.8953 49.2347 66.3718 54.2387C73.6193 51.5413 72.0718 45.7787 76.3062 39.012C81.289 31.048 77.6792 27.4067 77.0344 20.1413C74.4333 23.5267 75.3213 29.4107 67.9073 31.3093C64.4052 32.2053 62.8578 29.0413 64.5792 26.3347C71.136 16.028 66.7645 12.612 76.7557 2.87068ZM140.565 2.87068C134.16 3.76801 127.137 3.01737 122.486 7.16137C118.253 10.9334 115.137 17.5547 110.584 21.42C104.722 26.3947 99.373 25.8014 95.2237 33.72C91.901 40.0587 93.6117 48.396 100.19 53.0733C98.593 48.3813 99.6517 39.744 105.337 36.2854C104.713 40.156 105.732 46.856 108.157 50.0333C107.738 42.3907 113.182 31.6853 121.842 27.064C120.697 29.8933 115.962 38.5054 120.592 49.6187C121.998 43.492 126.246 38.944 132.149 37.004C129.982 40.6253 127.704 49.2347 130.18 54.2387C137.428 51.5413 135.881 45.7787 140.116 39.012C145.098 31.048 141.488 27.4067 140.844 20.1413C138.242 23.5267 139.129 29.4107 131.716 31.3093C128.213 32.2053 126.666 29.0413 128.389 26.3347C134.944 16.028 130.573 12.612 140.565 2.87068Z" stroke="#200A00" stroke-width="0.580819" stroke-miterlimit="10" stroke-linejoin="round"/>
<path fill-rule="evenodd" clip-rule="evenodd" d="M204.498 2.87068C198.092 3.76801 191.07 3.0187 186.418 7.16137C182.186 10.9334 179.069 17.5547 174.516 21.42C168.656 26.392 163.306 25.8027 159.157 33.72C155.836 40.0587 157.544 48.396 164.122 53.0733C162.525 48.3813 163.586 39.744 169.27 36.2854C168.646 40.156 169.666 46.856 172.09 50.0333C171.673 42.3907 177.114 31.6853 185.776 27.064C184.63 29.8933 179.896 38.5054 184.525 49.6187C185.933 43.492 190.178 38.944 196.082 37.004C193.916 40.6253 191.638 49.2347 194.113 54.2387C201.362 51.5413 199.816 45.7787 204.049 39.012C209.032 31.0494 205.421 27.4067 204.777 20.1413C202.174 23.5267 203.062 29.412 195.65 31.3093C192.148 32.2053 190.601 29.0413 192.322 26.3347C198.877 16.0293 194.506 12.612 204.498 2.87068ZM76.7557 2.87068C70.3505 3.76801 63.3281 3.01737 58.677 7.16137C54.4437 10.9334 51.3286 17.5547 46.7745 21.42C40.9141 26.3947 35.5636 25.8014 31.415 33.72C28.0932 40.0587 29.803 48.396 36.3802 53.0733C34.7838 48.3813 35.8432 39.744 41.5286 36.2854C40.9036 40.156 41.9234 46.856 44.3494 50.0333C43.9297 42.3907 49.3734 31.6853 58.0333 27.064C56.8896 29.8933 52.1541 38.5054 56.7822 49.6187C58.1901 43.492 62.4364 38.944 68.3412 37.004C66.174 40.6253 63.8953 49.2347 66.3718 54.2387C73.6193 51.5413 72.0718 45.7787 76.3062 39.012C81.289 31.048 77.6792 27.4067 77.0344 20.1413C74.4333 23.5267 75.3213 29.4107 67.9073 31.3093C64.4052 32.2053 62.8578 29.0413 64.5792 26.3347C71.136 16.028 66.7645 12.612 76.7557 2.87068ZM140.565 2.87068C134.16 3.76801 127.137 3.01737 122.486 7.16137C118.253 10.9334 115.137 17.5547 110.584 21.42C104.722 26.3947 99.373 25.8014 95.2237 33.72C91.901 40.0587 93.6117 48.396 100.19 53.0733C98.593 48.3813 99.6517 39.744 105.337 36.2854C104.713 40.156 105.732 46.856 108.157 50.0333C107.738 42.3907 113.182 31.6853 121.842 27.064C120.697 29.8933 115.962 38.5054 120.592 49.6187C121.998 43.492 126.246 38.944 132.149 37.004C129.982 40.6253 127.704 49.2347 130.18 54.2387C137.428 51.5413 135.881 45.7787 140.116 39.012C145.098 31.048 141.488 27.4067 140.844 20.1413C138.242 23.5267 139.129 29.4107 131.716 31.3093C128.213 32.2053 126.666 29.0413 128.389 26.3347C134.944 16.028 130.573 12.612 140.565 2.87068Z" fill="#F47216"/>
<path d="M290.413 119.595C299.466 120.959 310.521 120.959 319.577 119.595C318.361 133.437 316.88 148.197 316.88 162.075C316.88 185.157 315.804 210.747 317.901 233.553C320.558 262.452 334.329 276.683 364.038 276.683C410.062 276.683 416.67 250.115 416.67 210.311V169.14C416.67 152.644 416.27 135.952 413.973 119.595C420.509 120.867 429.028 121 435.54 119.595C432.645 138.773 432.353 159.803 432.353 179.189V221.053C432.353 269.159 406.426 290.163 359.872 290.163C307.085 290.163 293.11 266.625 293.11 218.889V161.748C293.11 147.597 292.389 133.616 290.413 119.595ZM710.333 286.978C716.092 257.692 720.994 228.772 725.037 200.263C729.12 171.715 732.306 143.775 734.637 116.409H743.949C756.65 142.019 768.66 165.751 780.054 187.684C791.409 209.577 802.233 229.919 812.526 248.747C823.432 228.897 834.501 207.984 845.649 186.008C856.844 164.035 868.237 140.835 879.878 116.409H889.23C891.682 146.021 894.624 175.021 897.973 203.411C901.32 231.839 905.12 259.695 909.326 286.978C899.07 284.287 891.596 284.494 881.349 286.978C880.532 266.636 879.182 246.093 877.265 225.343C875.345 204.595 872.893 183.559 869.83 162.236L834.785 231.061C825.546 249.099 816.622 267.879 809.789 286.978C808.297 286.232 805.322 286.362 803.784 286.978C793.982 265.739 783.853 244.865 773.398 224.361C762.94 203.859 752.2 183.72 741.212 163.913L734.145 231.755C732.273 250.164 731.162 268.483 730.673 286.978C722.645 285.439 718.352 285.345 710.333 286.978ZM589.792 250.219L591.957 249.725C598.876 268.156 613.317 278.891 633.17 278.891C653.729 278.891 669.194 267.397 669.194 245.847C669.194 223.363 650.428 216.393 632.229 209.289C609.34 200.356 588.568 190.928 588.568 163.217C588.568 131.047 611.717 116.164 641.786 116.164C656.53 116.164 670.297 119.679 683.038 126.661L683.164 126.787C679.442 134.227 676.826 142.54 675.321 150.719H672.909C669.446 133.209 656.336 125.721 639.296 125.721C621.658 125.721 608.417 136.092 608.417 154.437C608.417 174.523 627.968 181.32 643.952 187.193C668.524 196.22 690.514 205.656 690.514 235.268C690.514 269.641 662.518 290.409 629.818 290.409C613.868 290.409 597.536 286.798 585.134 276.234C587.721 267.728 589.304 259.1 589.792 250.219ZM496.144 204.144C496.144 231.643 495.725 259.549 497.616 286.978C489.242 285.2 477.588 285.334 469.188 286.978C471.654 259.189 472.373 231.296 472.373 203.411C472.373 175.619 472.078 147.249 469.188 119.595C484.952 119.831 500.72 120.085 516.485 120.085C530.944 120.085 545.406 119.944 559.862 119.595C558.766 126.023 559.18 130.133 559.862 136.505C546.488 133.767 533.118 132.339 519.468 132.339H496.389C496.12 152.277 496.144 172.197 496.144 192.135H520.896C532.216 192.135 543.722 191.243 554.961 189.929C554.09 195.859 554.837 200.589 554.837 206.351C543.45 205.299 531.634 204.144 520.204 204.144H496.144Z" fill="#231F20"/>
</svg>
