<svg width="1023" height="462" viewBox="0 0 1023 462" fill="none" xmlns="http://www.w3.org/2000/svg">
<path fill-rule="evenodd" clip-rule="evenodd" d="M95.8672 286.704L84.7084 153.093H94.7869L94.0735 143.079H92.1719C90.3979 143.079 88.9807 141.677 88.9807 139.899V137.623C85.1031 137.283 81.488 136.577 81.3079 131.832C81.2489 130.269 81.2427 129.921 81.3093 128.369C81.5303 123.623 85.0973 123.093 88.9807 122.721V120.379C88.9807 118.6 90.3989 117.197 92.1719 117.197H122.616C124.389 117.197 125.807 118.604 125.807 120.379V122.721C129.691 123.093 133.257 123.623 133.479 128.369C133.544 129.921 133.539 130.269 133.481 131.832C133.299 136.577 129.684 137.283 125.807 137.623V139.899C125.807 141.677 124.39 143.079 122.616 143.079H120.23L120.521 153.093H158.329L158.133 143.079H155.983C154.208 143.079 152.792 141.677 152.792 139.899V137.623C148.915 137.283 145.299 136.577 145.117 131.832C145.06 130.269 145.053 129.921 145.119 128.369C145.34 123.623 148.907 123.093 152.792 122.721V120.379C152.792 118.6 154.209 117.197 155.983 117.197H186.576C188.351 117.197 189.767 118.6 189.767 120.379V122.721C193.652 123.093 197.219 123.623 197.44 128.369C197.505 129.921 197.5 130.269 197.441 131.832C197.26 136.577 193.645 137.283 189.767 137.623V139.899C189.767 141.677 188.351 143.079 186.576 143.079H184.427L184.229 153.093H222.028L222.32 143.079H219.935C218.16 143.079 216.743 141.677 216.743 139.899V137.623C212.865 137.283 209.251 136.577 209.069 131.832C209.011 130.269 209.005 129.921 209.071 128.369C209.292 123.623 212.859 123.093 216.743 122.721V120.379C216.743 118.604 218.16 117.197 219.935 117.197H250.377C252.151 117.197 253.569 118.6 253.569 120.379V122.721C257.452 123.093 261.019 123.623 261.24 128.369C261.307 129.921 261.3 130.269 261.241 131.832C261.061 136.577 257.447 137.283 253.569 137.623V139.899C253.569 141.677 252.152 143.079 250.377 143.079H248.476L247.763 153.093H257.841L246.683 286.704C258.051 281.2 268.331 279.789 281.089 282.132C273.36 290.497 269.251 295.621 265.929 306.997C276.072 310.727 288.179 316.48 287.403 328.566C286.769 338.755 283.664 350.778 279.485 360.151C269.363 382.875 252.977 383.285 231.601 379.971L231.249 384.904C233.595 383.651 238.256 385.07 241.46 383.933C243.843 396.273 233.433 390.24 233.975 396.849C234.227 400.013 232.304 401.893 229.341 402.135C226.74 408.469 215.469 407.473 214 400.796C211.069 400.027 209.569 397.823 210.36 394.782C212.047 388.345 201.907 392.625 204.956 380.784C207.587 382.186 212.936 381.263 215.337 383.673L215.528 377.058C203.472 374.749 191.848 372.792 179.555 372.16L179.448 377.522C181.815 376.321 186.88 376.942 189.473 375.585C192.796 387.855 182.132 382.676 183.109 389.091C183.567 392.285 182.137 394.336 178.972 394.877C176.929 401.393 165.62 401.393 163.577 394.877C160.412 394.336 158.984 392.285 159.44 389.091C160.417 382.676 149.755 387.855 153.076 375.585C155.669 376.942 160.735 376.321 163.101 377.522L162.996 372.159C150.713 372.793 139.068 374.751 127.022 377.058L127.212 383.673C129.615 381.263 134.963 382.186 137.593 380.784C140.643 392.625 130.503 388.345 132.19 394.782C132.98 397.823 131.48 400.027 128.549 400.796C127.081 407.473 115.809 408.469 113.208 402.135C110.246 401.893 108.322 400.013 108.575 396.849C109.116 390.24 98.7063 396.273 101.09 383.933C104.294 385.07 108.954 383.651 111.299 384.904L110.949 379.971C89.5724 383.285 73.1869 382.875 63.064 360.151C58.886 350.778 55.7797 338.755 55.1464 328.566C54.3713 316.48 66.4776 310.727 76.6197 306.997C73.2995 295.621 69.1896 290.497 61.4599 282.132C74.2188 279.789 84.4995 281.2 95.8672 286.704ZM217.003 326.352L216.693 336.975C209.084 335.517 201.005 334.007 192.2 332.986C200.515 331.689 209.144 329.559 217.003 326.352ZM234.44 340.121L236.04 317.644C243.711 322.245 258.12 330.561 258.891 340.491C250.839 341.769 242.836 341.317 234.44 340.121ZM122.163 85.0401C121.008 86.94 121.653 87.2694 123.707 86.4654C125.808 85.6427 126.765 83.336 127.75 80.96C129.266 77.3054 130.203 75.0947 134.181 73.8054C134.391 76.7734 134.872 79.2641 135.563 82.1454C136.811 87.3454 137.8 91.4814 133.572 98.24C129.024 105.511 131.159 112.343 120.261 114.663C117.335 109.937 117.373 105.757 118.653 100.529C115.371 103.587 113.679 109.157 112.405 113.339C107.859 106.44 106.207 100.772 107.889 92.592C102.669 98.9267 101.698 105.845 101.652 113.776C97.3412 109.34 95.0213 107.476 94.2407 101.176C92.3636 105.916 93.5219 110.188 94.8011 114.877C83.4317 110.816 78.8036 99.9734 84.7677 89.5454C89.1703 81.8507 94.4579 82.2814 100.246 77.3707C105.548 72.8734 107.959 65.2974 114.125 61.66C120.501 57.896 130.504 59.228 138.105 57.8867C122.602 71.62 129.855 72.3761 122.163 85.0401ZM185.972 85.0401C184.817 86.94 185.461 87.2694 187.516 86.4654C189.616 85.6427 190.575 83.336 191.56 80.96C193.073 77.3054 194.012 75.0947 197.989 73.8054C198.2 76.7734 198.68 79.2641 199.373 82.1454C200.619 87.3454 201.608 91.4814 197.381 98.24C192.833 105.511 194.969 112.343 184.069 114.663C181.144 109.937 181.181 105.757 182.461 100.529C179.18 103.587 177.488 109.157 176.215 113.339C171.667 106.44 170.017 100.772 171.697 92.592C166.477 98.9267 165.507 105.845 165.46 113.776C161.149 109.34 158.829 107.476 158.049 101.176C156.172 105.916 157.331 110.188 158.609 114.877C147.241 110.816 142.612 99.9734 148.576 89.5454C152.979 81.8507 158.267 82.2814 164.056 77.3707C169.357 72.8734 171.768 65.2974 177.933 61.66C184.309 57.896 194.315 59.228 201.915 57.8867C186.409 71.62 193.664 72.3761 185.972 85.0401ZM249.931 85.0401C248.776 86.94 249.419 87.2694 251.475 86.4654C253.575 85.6427 254.533 83.336 255.519 80.96C257.033 77.3054 257.971 75.0947 261.948 73.8054C262.157 76.7734 262.641 79.2641 263.331 82.1454C264.577 87.3441 265.565 91.4814 261.339 98.24C256.792 105.509 258.928 112.343 248.028 114.663C245.103 109.937 245.14 105.757 246.42 100.529C243.139 103.587 241.445 109.157 240.172 113.339C235.627 106.44 233.975 100.772 235.656 92.592C230.436 98.9267 229.465 105.845 229.42 113.776C225.108 109.34 222.788 107.476 222.008 101.176C220.131 105.916 221.288 110.188 222.568 114.877C211.2 110.816 206.571 99.9721 212.535 89.5454C216.936 81.8507 222.227 82.2814 228.015 77.3707C233.316 72.8734 235.725 65.2974 241.892 61.66C248.268 57.896 258.272 59.228 265.873 57.8867C250.368 71.62 257.623 72.3761 249.931 85.0401ZM125.547 326.352L125.856 336.975C133.467 335.517 141.544 334.007 150.348 332.986C142.035 331.689 133.407 329.559 125.547 326.352ZM108.11 340.121L106.509 317.644C98.8385 322.245 84.4292 330.561 83.6579 340.491C91.7104 341.769 99.7136 341.317 108.11 340.121Z" fill="#231F20"/>
<path d="M165.809 372.054L165.885 375.984C167.321 374.323 169.204 373.278 171.284 372.642C173.364 373.278 175.247 374.323 176.683 375.984L176.759 372.054C173.111 371.929 169.457 371.929 165.809 372.054ZM186.872 122.607V120.379C186.872 120.159 186.739 120.023 186.504 120.023H156.055C155.82 120.023 155.688 120.159 155.688 120.379V122.607C166.08 122.343 176.479 122.343 186.872 122.607ZM180.152 135.136C183.179 135.136 188.703 135.036 191.359 134.583C193.609 134.2 194.485 133.631 194.549 131.909C194.605 130.364 194.648 130.552 194.573 128.94C194.531 127.983 194.576 126.601 192.567 126.016C189.892 125.24 181.576 125.14 180.08 125.14H162.479C160.983 125.14 152.667 125.24 149.992 126.016C147.983 126.601 148.029 127.983 147.985 128.94C147.912 130.552 147.953 130.364 148.009 131.909C148.073 133.631 148.951 134.2 151.2 134.583C153.856 135.036 159.379 135.136 162.407 135.136H180.152ZM186.504 140.255C186.739 140.255 186.872 140.12 186.872 139.899V137.672C176.479 137.933 166.08 137.933 155.688 137.672V139.899C155.688 140.12 155.82 140.255 156.055 140.255H186.504ZM181.343 153.093L181.54 143.079H161.019L161.216 153.093H181.343ZM219.795 325.123L219.436 337.512C223.609 338.313 227.644 339.075 231.583 339.701L233.205 316.927C229.308 320.167 224.743 322.876 219.795 325.123ZM218.272 377.595L218.145 381.937C219.657 380.562 221.531 379.735 223.552 379.321C225.517 380.102 227.231 381.268 228.503 382.953L228.748 379.519C225.331 378.944 221.849 378.283 218.272 377.595ZM226.964 399.808C227.453 394.222 217.117 393.318 216.631 398.903C216.141 404.483 226.477 405.386 226.964 399.808ZM239.143 386.936C235.884 387.475 233.928 385.597 230.519 388.93L227.039 392.327L226.019 391.686L227.896 387.843C229.264 385.037 225.536 381.927 223.396 381.077C221.141 381.542 216.928 383.956 217.788 386.958L218.972 391.069L217.855 391.523L215.019 387.573C212.237 383.699 209.987 385.207 206.872 384.113C205.755 389.007 215.149 387.399 213.027 395.488C212.565 397.26 213.561 397.853 215.025 398.158C216.305 391.191 228.624 392.275 228.676 399.352C230.167 399.307 231.251 398.895 231.105 397.07C230.419 388.734 239.392 391.951 239.143 386.936ZM176.479 392.755C176.479 398.355 166.091 398.355 166.091 392.755C166.091 387.145 176.479 387.145 176.479 392.755ZM171.284 374.409C173.488 375.073 177.483 377.84 176.363 380.753L174.829 384.746L175.9 385.296L179.069 381.607C182.179 377.991 184.288 379.69 187.488 378.869C188.173 383.844 178.955 381.423 180.364 389.666C180.668 391.471 179.628 391.975 178.145 392.151C177.477 385.107 165.091 385.107 164.424 392.151C162.94 391.975 161.9 391.471 162.205 389.666C163.613 381.423 154.395 383.844 155.08 378.869C158.281 379.69 160.391 377.991 163.499 381.607L166.669 385.296L167.739 384.746L166.205 380.753C165.085 377.84 169.079 375.073 171.284 374.409ZM220.012 120.023C219.78 120.023 219.644 120.16 219.644 120.379V122.607C230.017 122.343 240.447 122.343 250.82 122.607V120.379C250.82 120.159 250.685 120.023 250.453 120.023H220.012ZM122.769 325.123L123.128 337.512C118.954 338.313 114.919 339.075 110.98 339.701L109.357 316.927C113.255 320.167 117.821 322.876 122.769 325.123ZM124.292 377.595L124.418 381.937C122.906 380.562 121.033 379.735 119.012 379.321C117.046 380.102 115.333 381.268 114.061 382.953L113.816 379.519C117.233 378.944 120.714 378.283 124.292 377.595ZM115.599 399.808C115.11 394.222 125.446 393.318 125.933 398.903C126.422 404.483 116.085 405.386 115.599 399.808ZM103.421 386.936C106.68 387.475 108.635 385.597 112.045 388.93L115.525 392.327L116.544 391.686L114.667 387.843C113.299 385.037 117.028 381.927 119.167 381.077C121.422 381.542 125.636 383.956 124.775 386.958L123.593 391.069L124.708 391.523L127.545 387.573C130.327 383.699 132.577 385.207 135.692 384.113C136.808 389.007 127.414 387.399 129.536 395.488C129.998 397.26 129.002 397.853 127.539 398.158C126.258 391.191 113.939 392.275 113.888 399.352C112.396 399.307 111.313 398.895 111.459 397.07C112.144 388.734 103.172 391.951 103.421 386.936ZM117.484 143.079L117.776 153.093H97.6849L96.9729 143.079H117.484ZM92.2453 140.255C92.0115 140.255 91.8781 140.12 91.8781 139.899V137.672C102.25 137.933 112.681 137.933 123.053 137.672V139.899C123.053 140.12 122.921 140.255 122.686 140.255H92.2453ZM98.6703 125.14C97.1729 125.14 88.8573 125.24 86.1823 126.016C84.1729 126.601 84.2193 127.983 84.1751 128.94C84.1016 130.552 84.1437 130.364 84.2005 131.909C84.2636 133.631 85.1401 134.2 87.3907 134.583C90.0464 135.036 95.5697 135.136 98.5969 135.136H116.334C119.361 135.136 124.885 135.036 127.541 134.583C129.792 134.2 130.668 133.631 130.732 131.909C130.787 130.364 130.83 130.552 130.756 128.94C130.712 127.983 130.758 126.601 128.749 126.016C126.074 125.24 117.761 125.14 116.262 125.14H98.6703ZM92.2453 120.023C92.0115 120.023 91.8781 120.159 91.8781 120.379V122.607C102.25 122.343 112.681 122.343 123.053 122.607V120.379C123.053 120.159 122.921 120.023 122.686 120.023H92.2453ZM225.213 143.079L224.923 153.093H245.012L245.725 143.079H225.213ZM250.453 140.255C250.687 140.255 250.82 140.12 250.82 139.899V137.672C240.447 137.933 230.017 137.933 219.644 137.672V139.899C219.644 140.119 219.777 140.255 220.012 140.255H250.453ZM244.028 125.013C245.525 125.013 253.841 125.113 256.516 125.889C258.525 126.472 258.48 127.855 258.523 128.812C258.596 130.423 258.553 130.236 258.497 131.781C258.435 133.503 257.557 134.073 255.307 134.455C252.652 134.907 247.128 135.009 244.101 135.009H226.364C223.337 135.009 217.813 134.907 215.157 134.455C212.907 134.073 212.028 133.504 211.967 131.781C211.911 130.237 211.869 130.423 211.943 128.812C211.985 127.855 211.94 126.472 213.949 125.889C216.624 125.113 224.937 125.013 226.436 125.013H244.028Z" stroke="#1E1200" stroke-width="0.580819" stroke-miterlimit="10" stroke-linejoin="round"/>
<path fill-rule="evenodd" clip-rule="evenodd" d="M165.809 372.054L165.885 375.984C167.321 374.323 169.204 373.278 171.284 372.642C173.364 373.278 175.247 374.323 176.683 375.984L176.759 372.054C173.111 371.929 169.457 371.929 165.809 372.054ZM186.872 122.607V120.379C186.872 120.159 186.739 120.023 186.504 120.023H156.055C155.82 120.023 155.688 120.159 155.688 120.379V122.607C166.08 122.343 176.479 122.343 186.872 122.607ZM180.152 135.136C183.179 135.136 188.703 135.036 191.359 134.583C193.609 134.2 194.485 133.631 194.549 131.909C194.605 130.364 194.648 130.552 194.573 128.94C194.531 127.983 194.576 126.601 192.567 126.016C189.892 125.24 181.576 125.14 180.08 125.14H162.479C160.983 125.14 152.667 125.24 149.992 126.016C147.983 126.601 148.029 127.983 147.985 128.94C147.912 130.552 147.953 130.364 148.009 131.909C148.073 133.631 148.951 134.2 151.2 134.583C153.856 135.036 159.379 135.136 162.407 135.136H180.152ZM186.504 140.255C186.739 140.255 186.872 140.12 186.872 139.899V137.672C176.479 137.933 166.08 137.933 155.688 137.672V139.899C155.688 140.12 155.82 140.255 156.055 140.255H186.504ZM181.343 153.093L181.54 143.079H161.019L161.216 153.093H181.343ZM219.795 325.123L219.436 337.512C223.609 338.313 227.644 339.075 231.583 339.701L233.205 316.927C229.308 320.167 224.743 322.876 219.795 325.123ZM218.272 377.595L218.145 381.937C219.657 380.562 221.531 379.735 223.552 379.321C225.517 380.102 227.231 381.268 228.503 382.953L228.748 379.519C225.331 378.944 221.849 378.283 218.272 377.595ZM226.964 399.808C227.453 394.222 217.117 393.318 216.631 398.903C216.141 404.483 226.477 405.386 226.964 399.808ZM239.143 386.936C235.884 387.475 233.928 385.597 230.519 388.93L227.039 392.327L226.019 391.686L227.896 387.843C229.264 385.037 225.536 381.927 223.396 381.077C221.141 381.542 216.928 383.956 217.788 386.958L218.972 391.069L217.855 391.523L215.019 387.573C212.237 383.699 209.987 385.207 206.872 384.113C205.755 389.007 215.149 387.399 213.027 395.488C212.565 397.26 213.561 397.853 215.025 398.158C216.305 391.191 228.624 392.275 228.676 399.352C230.167 399.307 231.251 398.895 231.105 397.07C230.419 388.734 239.392 391.951 239.143 386.936ZM176.479 392.755C176.479 398.355 166.091 398.355 166.091 392.755C166.091 387.145 176.479 387.145 176.479 392.755ZM171.284 374.409C173.488 375.073 177.483 377.84 176.363 380.753L174.829 384.746L175.9 385.296L179.069 381.607C182.179 377.991 184.288 379.69 187.488 378.869C188.173 383.844 178.955 381.423 180.364 389.666C180.668 391.471 179.628 391.975 178.145 392.151C177.477 385.107 165.091 385.107 164.424 392.151C162.94 391.975 161.9 391.471 162.205 389.666C163.613 381.423 154.395 383.844 155.08 378.869C158.281 379.69 160.391 377.991 163.499 381.607L166.669 385.296L167.739 384.746L166.205 380.753C165.085 377.84 169.079 375.073 171.284 374.409ZM220.012 120.023C219.78 120.023 219.644 120.16 219.644 120.379V122.607C230.017 122.343 240.447 122.343 250.82 122.607V120.379C250.82 120.159 250.685 120.023 250.453 120.023H220.012ZM122.769 325.123L123.128 337.512C118.954 338.313 114.919 339.075 110.98 339.701L109.357 316.927C113.255 320.167 117.821 322.876 122.769 325.123ZM124.292 377.595L124.418 381.937C122.906 380.562 121.033 379.735 119.012 379.321C117.046 380.102 115.333 381.268 114.061 382.953L113.816 379.519C117.233 378.944 120.714 378.283 124.292 377.595ZM115.599 399.808C115.11 394.222 125.446 393.318 125.933 398.903C126.422 404.483 116.085 405.386 115.599 399.808ZM103.421 386.936C106.68 387.475 108.635 385.597 112.045 388.93L115.525 392.327L116.544 391.686L114.667 387.843C113.299 385.037 117.028 381.927 119.167 381.077C121.422 381.542 125.636 383.956 124.775 386.958L123.593 391.069L124.708 391.523L127.545 387.573C130.327 383.699 132.577 385.207 135.692 384.113C136.808 389.007 127.414 387.399 129.536 395.488C129.998 397.26 129.002 397.853 127.539 398.158C126.258 391.191 113.939 392.275 113.888 399.352C112.396 399.307 111.313 398.895 111.459 397.07C112.144 388.734 103.172 391.951 103.421 386.936ZM117.484 143.079L117.776 153.093H97.6849L96.9729 143.079H117.484ZM92.2453 140.255C92.0115 140.255 91.8781 140.12 91.8781 139.899V137.672C102.25 137.933 112.681 137.933 123.053 137.672V139.899C123.053 140.12 122.921 140.255 122.686 140.255H92.2453ZM98.6703 125.14C97.1729 125.14 88.8573 125.24 86.1823 126.016C84.1729 126.601 84.2193 127.983 84.1751 128.94C84.1016 130.552 84.1437 130.364 84.2005 131.909C84.2636 133.631 85.1401 134.2 87.3907 134.583C90.0464 135.036 95.5697 135.136 98.5969 135.136H116.334C119.361 135.136 124.885 135.036 127.541 134.583C129.792 134.2 130.668 133.631 130.732 131.909C130.787 130.364 130.83 130.552 130.756 128.94C130.712 127.983 130.758 126.601 128.749 126.016C126.074 125.24 117.761 125.14 116.262 125.14H98.6703ZM92.2453 120.023C92.0115 120.023 91.8781 120.159 91.8781 120.379V122.607C102.25 122.343 112.681 122.343 123.053 122.607V120.379C123.053 120.159 122.921 120.023 122.686 120.023H92.2453ZM225.213 143.079L224.923 153.093H245.012L245.725 143.079H225.213ZM250.453 140.255C250.687 140.255 250.82 140.12 250.82 139.899V137.672C240.447 137.933 230.017 137.933 219.644 137.672V139.899C219.644 140.119 219.777 140.255 220.012 140.255H250.453ZM244.028 125.013C245.525 125.013 253.841 125.113 256.516 125.889C258.525 126.472 258.48 127.855 258.523 128.812C258.596 130.423 258.553 130.236 258.497 131.781C258.435 133.503 257.557 134.073 255.307 134.455C252.652 134.907 247.128 135.009 244.101 135.009H226.364C223.337 135.009 217.813 134.907 215.157 134.455C212.907 134.073 212.028 133.504 211.967 131.781C211.911 130.237 211.869 130.423 211.943 128.812C211.985 127.855 211.94 126.472 213.949 125.889C216.624 125.113 224.937 125.013 226.436 125.013H244.028Z" fill="#CE9209"/>
<path fill-rule="evenodd" clip-rule="evenodd" d="M226.868 144.593L226.597 153.093H230.031L230.372 144.593H226.868ZM233.295 144.593L232.888 153.093H236.32L236.795 144.593H233.295ZM239.72 144.593L239.195 153.093H242.631L243.223 144.593H239.72ZM166.757 144.593L166.827 153.093H163.561L163.425 144.593H166.757ZM172.868 144.593L172.825 153.093H169.563L169.539 144.593H172.868ZM178.981 144.593L178.809 153.093H175.544L175.651 144.593H178.981ZM102.833 144.593L103.357 153.093H99.9235L99.3297 144.593H102.833ZM109.261 144.593L109.668 153.093H106.232L105.758 144.593H109.261ZM115.686 144.593L115.958 153.093H112.524L112.184 144.593H115.686ZM220.703 337.755L222.617 338.117L223.205 323.468C222.521 323.823 221.828 324.167 221.128 324.501L220.703 337.755ZM224.051 338.387L225.965 338.739L226.935 321.373C226.236 321.797 225.527 322.208 224.804 322.609L224.051 338.387ZM227.731 339.054L229.647 339.383L231.097 318.581C230.381 319.109 229.649 319.625 228.9 320.124L227.731 339.054ZM121.86 337.755L119.947 338.117L119.358 323.468C120.042 323.823 120.735 324.167 121.436 324.501L121.86 337.755ZM118.513 338.387L116.598 338.739L115.629 321.373C116.328 321.797 117.037 322.208 117.759 322.609L118.513 338.387ZM114.833 339.054L112.917 339.383L111.467 318.581C112.182 319.109 112.915 319.625 113.664 320.124L114.833 339.054Z" fill="#A16409"/>
<path d="M58.4167 333.526C94.45 356.719 121.599 334.56 171.277 334.56C220.955 334.56 248.103 356.719 284.136 333.526C282.481 342.75 280.74 350.428 276.919 359.002C270.673 373.019 261.936 378.984 247.089 378.653C225.551 378.17 203.012 369.125 171.277 369.125C139.543 369.125 117.002 378.17 95.4651 378.653C80.6172 378.984 71.8803 373.019 65.6339 359.002C61.8131 350.428 60.0729 342.75 58.4167 333.526ZM66.9907 283.971C77.0448 282.921 87.1765 285.44 96.1412 289.987L96.4224 293.36C96.6047 295.539 96.9869 297.609 97.5432 299.579C94.5803 301.043 90.3364 302.417 85.7735 303.896C83.65 304.584 81.4625 305.293 79.2807 306.049C76.9844 298.256 72.964 290.036 66.9907 283.971ZM99.236 293.128L87.7751 155.917H254.783L243.321 293.128C239.015 344.722 103.544 344.729 99.236 293.128ZM208.621 306.747C208.027 308.532 206.619 310.187 205.051 311.212C201.033 313.839 196.312 311.976 191.679 310.16C184.009 307.145 181.833 305.908 177.044 312.445C175.352 308.695 174.201 305.168 177.661 301.72C180.912 298.48 188.751 299.075 192.345 296.317C195.38 293.992 191.243 288.836 189.668 286.785L179.845 283.841L177.576 273.769C170.567 269.355 153.336 259.315 146.083 267.064C141.697 271.757 144.059 275.609 146.793 280.067C152.205 288.899 153.167 292.931 149.392 302.572C141.688 291.731 138.637 291.216 126.507 286.387C113.823 281.333 98.9885 275.611 103.871 258.729C109.407 239.436 139.797 240.721 155.208 244.345L141.795 232C139.533 233.877 137.279 234.717 134.612 232.143C132.632 233.6 130.583 234.773 128.364 233.115C126.79 231.831 125.306 230.391 124.227 228.656C122.794 226.375 124.163 224.349 125.682 222.564C122.972 219.337 124.627 216.948 127.207 214.54L143.024 199.795C145.603 197.388 148.101 195.904 151.131 198.831C153.019 197.441 155.136 196.216 157.308 197.805C158.964 199.003 160.297 200.584 161.469 202.243C162.969 204.572 161.656 206.536 160.064 208.411C162.445 211.249 161.451 213.44 159.42 215.561L170.799 229.805C168.335 214.101 168.997 183.825 188.743 179.595C206.005 175.949 210.56 191.029 214.739 204.104C218.273 215.175 219.528 220.797 229.009 227.855C219.644 231.469 214.955 229.563 207.02 223.903C202.763 220.864 199.085 218.24 194.099 222.288C185.845 228.995 194.695 246.855 198.591 254.175L208.483 257.139L210.731 267.144C212.668 268.857 217.521 273.344 220.052 270.48C223.053 267.083 223.008 259.225 226.469 256.209C230.145 252.995 233.585 254.391 237.208 256.34C230.355 260.664 231.439 262.919 233.908 270.781C235.4 275.528 236.927 280.369 234.027 284.192C232.895 285.685 231.145 286.975 229.321 287.444C232.252 293.108 231.617 302.891 231.269 310.281C223.872 310.113 214.068 310.064 208.621 306.747ZM122.284 169.269C127.303 166.567 127.863 164.161 129.561 159.179C135.435 165.352 137.425 168.972 130.915 175.481C128.83 177.563 126.463 179.932 126.736 184.243C126.861 186.228 128.556 186.435 129.122 184.841C130.157 181.851 132.095 180.431 134.015 179.025C137.691 176.335 137.563 175.319 138.292 171.229C144.879 176.42 146.073 180.455 142.992 188.144C141.188 192.655 141.424 193.509 141.751 198.012C137.849 197.545 135.48 196.228 133.251 192.797C131.86 197.087 134.039 199.493 136.041 203.02C130.279 202.409 127.707 201.261 124.042 196.465C123.508 202.583 126.986 204.643 131.022 208.215C126.278 208.752 123.778 209.036 119.507 206.596C120.698 210.803 122.608 211.507 126.126 213.435C118.045 217.112 109.328 217.476 103.145 210.3C99.8281 206.451 97.9765 199.912 99.9109 195.096C101.262 191.724 104.273 189.121 108.336 186.54C113.043 183.541 114.159 182.628 115.935 177.28C117.393 172.904 118.123 171.512 122.284 169.269ZM275.563 283.971C265.509 282.921 255.376 285.44 246.412 289.987L246.131 293.36C245.948 295.539 245.567 297.609 245.009 299.579C247.973 301.043 252.217 302.417 256.781 303.896C258.903 304.584 261.091 305.293 263.272 306.049C265.569 298.256 269.589 290.036 275.563 283.971Z" stroke="#000916" stroke-width="0.580819" stroke-miterlimit="10" stroke-linejoin="round"/>
<path fill-rule="evenodd" clip-rule="evenodd" d="M58.4167 333.526C94.45 356.719 121.599 334.56 171.277 334.56C220.955 334.56 248.103 356.719 284.136 333.526C282.481 342.75 280.74 350.428 276.919 359.002C270.673 373.019 261.936 378.984 247.089 378.653C225.551 378.17 203.012 369.125 171.277 369.125C139.543 369.125 117.002 378.17 95.4651 378.653C80.6172 378.984 71.8803 373.019 65.6339 359.002C61.8131 350.428 60.0729 342.75 58.4167 333.526ZM66.9907 283.971C77.0448 282.921 87.1765 285.44 96.1412 289.987L96.4224 293.36C96.6047 295.539 96.9869 297.609 97.5432 299.579C94.5803 301.043 90.3364 302.417 85.7735 303.896C83.65 304.584 81.4625 305.293 79.2807 306.049C76.9844 298.256 72.964 290.036 66.9907 283.971ZM99.236 293.128L87.7751 155.917H254.783L243.321 293.128C239.015 344.722 103.544 344.729 99.236 293.128ZM208.621 306.747C208.027 308.532 206.619 310.187 205.051 311.212C201.033 313.839 196.312 311.976 191.679 310.16C184.009 307.145 181.833 305.908 177.044 312.445C175.352 308.695 174.201 305.168 177.661 301.72C180.912 298.48 188.751 299.075 192.345 296.317C195.38 293.992 191.243 288.836 189.668 286.785L179.845 283.841L177.576 273.769C170.567 269.355 153.336 259.315 146.083 267.064C141.697 271.757 144.059 275.609 146.793 280.067C152.205 288.899 153.167 292.931 149.392 302.572C141.688 291.731 138.637 291.216 126.507 286.387C113.823 281.333 98.9885 275.611 103.871 258.729C109.407 239.436 139.797 240.721 155.208 244.345L141.795 232C139.533 233.877 137.279 234.717 134.612 232.143C132.632 233.6 130.583 234.773 128.364 233.115C126.79 231.831 125.306 230.391 124.227 228.656C122.794 226.375 124.163 224.349 125.682 222.564C122.972 219.337 124.627 216.948 127.207 214.54L143.024 199.795C145.603 197.388 148.101 195.904 151.131 198.831C153.019 197.441 155.136 196.216 157.308 197.805C158.964 199.003 160.297 200.584 161.469 202.243C162.969 204.572 161.656 206.536 160.064 208.411C162.445 211.249 161.451 213.44 159.42 215.561L170.799 229.805C168.335 214.101 168.997 183.825 188.743 179.595C206.005 175.949 210.56 191.029 214.739 204.104C218.273 215.175 219.528 220.797 229.009 227.855C219.644 231.469 214.955 229.563 207.02 223.903C202.763 220.864 199.085 218.24 194.099 222.288C185.845 228.995 194.695 246.855 198.591 254.175L208.483 257.139L210.731 267.144C212.668 268.857 217.521 273.344 220.052 270.48C223.053 267.083 223.008 259.225 226.469 256.209C230.145 252.995 233.585 254.391 237.208 256.34C230.355 260.664 231.439 262.919 233.908 270.781C235.4 275.528 236.927 280.369 234.027 284.192C232.895 285.685 231.145 286.975 229.321 287.444C232.252 293.108 231.617 302.891 231.269 310.281C223.872 310.113 214.068 310.064 208.621 306.747ZM122.284 169.269C127.303 166.567 127.863 164.161 129.561 159.179C135.435 165.352 137.425 168.972 130.915 175.481C128.83 177.563 126.463 179.932 126.736 184.243C126.861 186.228 128.556 186.435 129.122 184.841C130.157 181.851 132.095 180.431 134.015 179.025C137.691 176.335 137.563 175.319 138.292 171.229C144.879 176.42 146.073 180.455 142.992 188.144C141.188 192.655 141.424 193.509 141.751 198.012C137.849 197.545 135.48 196.228 133.251 192.797C131.86 197.087 134.039 199.493 136.041 203.02C130.279 202.409 127.707 201.261 124.042 196.465C123.508 202.583 126.986 204.643 131.022 208.215C126.278 208.752 123.778 209.036 119.507 206.596C120.698 210.803 122.608 211.507 126.126 213.435C118.045 217.112 109.328 217.476 103.145 210.3C99.8281 206.451 97.9765 199.912 99.9109 195.096C101.262 191.724 104.273 189.121 108.336 186.54C113.043 183.541 114.159 182.628 115.935 177.28C117.393 172.904 118.123 171.512 122.284 169.269ZM275.563 283.971C265.509 282.921 255.376 285.44 246.412 289.987L246.131 293.36C245.948 295.539 245.567 297.609 245.009 299.579C247.973 301.043 252.217 302.417 256.781 303.896C258.903 304.584 261.091 305.293 263.272 306.049C265.569 298.256 269.589 290.036 275.563 283.971Z" fill="#0B4E82"/>
<path fill-rule="evenodd" clip-rule="evenodd" d="M139.093 226.135C137.14 227.956 135.373 229.461 133.245 231.012C131.073 232.36 130.466 232.553 129.342 231.7C128.158 230.823 126.548 229.095 125.755 227.853C124.981 226.672 125.216 226.079 126.713 224.007C128.408 221.991 130.032 220.335 131.985 218.513L146.651 204.839C148.603 203.017 150.369 201.513 152.497 199.961C154.669 198.615 155.277 198.42 156.401 199.275C157.585 200.152 159.195 201.88 159.987 203.121C160.761 204.301 160.527 204.895 159.031 206.967C157.333 208.981 155.711 210.639 153.757 212.461L139.093 226.135ZM284.407 329.968C287.209 312.135 256.932 308.391 244.123 302.272C242.363 306.888 239.591 310.903 236.083 314.381C245.457 320.043 260.54 328.537 261.673 339.982C270.521 338.145 277.467 334.569 284.407 329.968ZM58.1469 329.968C55.3443 312.133 85.626 308.391 98.4344 302.272C100.194 306.888 102.965 310.903 106.472 314.381C97.0973 320.043 82.0131 328.537 80.8803 339.982C72.0323 338.145 65.088 334.569 58.1469 329.968ZM130.211 162.349C127.27 170.965 121.99 169.836 119.368 173.489C117.524 176.056 117.327 180.319 114.77 183.499C110.275 189.093 99.5333 190.06 101.083 201.628C102.286 210.62 111.299 216.852 122.413 213.352C118.492 211.204 117.263 206.261 117.291 202.553C119.173 205.119 124.006 207.205 127.063 207.001C122.142 203.381 121.281 197.585 123.426 191.976C124.598 195.372 129.256 200.291 132.937 201.013C130.454 197.531 130.385 193.5 133.545 188.483C133.408 191.556 137.297 195.359 139.941 196.129C138.405 187.741 147.885 183.261 139.451 174.163C138.333 180.404 132.44 179.944 130.641 185.461C129.742 188.229 125.331 188.585 125.068 184.449C124.329 172.816 139.263 173.824 130.211 162.349ZM197.151 281.212C203.004 287.536 202.76 298.656 207.761 303.891C212.221 308.557 223.588 308.273 229.588 308.48C229.801 302.479 230.877 291.16 226.535 286.387C221.66 281.031 210.551 280.499 204.649 274.219L197.151 281.212ZM179.224 273.267L197.976 255.781L206.069 258.208L181.079 281.511L179.224 273.267ZM196.817 254.505C192.493 246.335 183.893 228.359 193.013 220.956C204.661 211.503 209.4 231.581 225.493 227.379C209.455 216.452 215.033 177.072 190.049 181.097C170.347 184.281 169.567 216.267 173.079 232.66L193.215 257.864L196.8 254.521L196.817 254.505ZM182.896 267.488L143.079 230.844L158.177 216.767L191.953 259.041L182.896 267.488ZM178.031 272.024C170.183 267.139 152.851 257.305 144.829 265.888C134.588 276.848 154.285 282.976 148.971 298.739C139.191 281.976 99.5145 284.793 105.275 260.151C109.825 240.719 141.785 242.171 157.896 246.819L181.635 268.664L178.049 272.007L178.031 272.024Z" fill="#E9E9E9"/>
<path fill-rule="evenodd" clip-rule="evenodd" d="M128.382 215.803C126.51 217.548 124.964 219.084 127.037 221.509C127.31 221.219 128.481 219.909 131.053 217.512L145.716 203.839C148.288 201.44 149.675 200.364 149.984 200.112C147.709 197.873 146.069 199.309 144.197 201.055L128.382 215.803ZM141.545 229.919C139.673 231.664 138.033 233.1 135.759 230.863C136.068 230.611 137.455 229.533 140.027 227.136L154.691 213.461C157.261 211.064 158.433 209.755 158.705 209.464C160.779 211.889 159.233 213.425 157.36 215.172L141.545 229.919ZM190.349 285.197L209.1 267.712L207.244 259.468L182.255 282.772L190.349 285.197ZM178.031 272.024C170.183 267.139 152.851 257.307 144.829 265.888C134.587 276.848 154.285 282.976 148.971 298.739C147.961 278.704 120.181 279.663 128.399 263.731C138.253 244.628 169.544 257.496 181.633 268.664L178.031 272.024ZM196.817 254.505C192.493 246.335 183.893 228.359 193.013 220.956C204.661 211.503 209.4 231.581 225.495 227.379C205.579 224.973 208.473 197.328 192.007 204.416C172.264 212.912 182.917 245.025 193.216 257.864L196.817 254.505ZM228.347 285.896C230.227 285.689 232.821 283.827 233.659 281.172C235.925 274.516 225.172 261.668 233.957 256.685C231.497 255.699 229.184 256.116 227.599 257.5C223.061 261.452 224.792 281.809 210.243 269.003L205.905 273.048C211.675 279.181 223.475 279.484 228.347 285.896ZM207.147 305.667C206.809 307.527 204.769 309.985 202.064 310.635C195.265 312.432 183.2 300.808 177.616 309.224C176.803 306.701 177.38 304.424 178.872 302.939C183.131 298.689 203.317 301.835 191.556 286.428L195.895 282.383C201.612 288.567 201.089 300.357 207.147 305.667Z" fill="#BDBCBC"/>
<path d="M87.8437 352.556C88.0063 355.067 88.3037 358.091 88.4641 360.602C89.6151 360.746 90.7661 360.862 91.9172 360.894C93.9984 360.954 94.2099 360.111 94.1751 358.196C94.3928 358.191 94.6131 358.183 94.8323 358.179C94.9839 360.526 95.1213 362.743 95.2708 365.091C95.0516 365.098 94.8344 365.105 94.6177 365.109C94.2745 363.218 94.1589 362.259 91.9844 362.184C90.8401 362.145 89.6943 362.037 88.5489 361.896C88.6844 364.013 88.8095 366.026 88.9511 368.138C89.0355 369.42 89.2489 370.254 90.3708 370.331C91.3428 370.398 92.2271 370.377 93.1355 370.411C95.6595 370.508 96.6172 369.199 97.4021 366.643L98.0713 366.726C97.7037 368.834 97.5052 369.714 97.0172 371.395C92.1595 371.687 88.1557 371.648 84.3765 370.878C84.3595 370.62 84.3453 370.363 84.3271 370.103C86.2563 370.473 86.5923 370.037 86.462 368.016C86.1885 363.755 85.7219 358.585 85.4625 354.324C85.3516 352.51 84.9005 351.965 82.9937 351.507C82.9781 351.248 82.9609 350.987 82.9484 350.723C87.5745 351.487 90.7448 351.607 95.6375 351.528C95.7969 353.029 95.9527 354.537 96.1109 356.037C95.8828 356.044 95.6547 356.056 95.4265 356.066C94.8844 353.718 94.2865 352.838 92.1344 352.789C90.6792 352.755 89.3349 352.703 87.8437 352.556ZM81.6604 350.562C81.6969 352.537 81.7375 353.943 81.9412 356.209L81.2844 356.04C80.5527 353.103 78.162 350.307 75.0641 349.932C72.4229 349.613 72.0511 352.693 74.1527 354.401C76.5891 356.382 81.8693 359.145 83.4636 362.132C85.9432 366.772 82.6708 371.465 78.6771 369.286C77.5079 368.649 76.2177 367.542 75.2537 366.619C74.5527 365.945 74.2385 366.099 74.6584 367.044L74.0235 366.607C73.3719 365.024 72.6016 362.414 72.2161 360.479L72.9552 360.844C74.2245 363.963 76.2041 366.623 78.7875 368.265C80.9797 369.659 82.7771 367.612 81.5084 364.88C80.1093 361.869 75.6204 359.863 72.9041 356.966C70.1995 354.083 70.2371 349.292 73.9333 348.776C76.0333 348.483 78.0532 349.584 79.6871 350.747C80.6068 351.403 80.9557 351.618 80.9932 350.409L81.6604 350.562ZM138.045 345.007C138.163 347.313 138.268 349.133 138.391 351.439C138.184 351.487 137.977 351.537 137.772 351.585C137.455 349.787 136.815 347.979 134.945 347.29C131.858 346.153 128.33 349.593 130.485 351.991C131.904 353.57 135.993 355.151 137.923 356.413C140.652 358.2 140.713 360.994 138.957 363.439C137.256 365.806 134.112 366.122 131.864 365.49C130.459 365.097 129.651 364.712 129.547 366.374L128.907 366.51C128.796 364.243 128.89 363.144 128.791 360.876L129.458 360.682C129.839 362.533 130.054 363.449 131.953 364.214C133.609 364.88 136.133 364.625 137.216 363.168C138.429 361.53 137.597 360.29 135.881 359.187C133.648 357.749 129.809 356.583 128.391 354.025C125.878 349.492 130.905 344.696 135.553 345.919C136.796 346.244 137.272 346.456 137.433 345.167C137.639 345.115 137.841 345.062 138.045 345.007ZM117.978 350.256C118.091 352.848 118.204 354.971 118.319 357.564C119.516 357.382 120.712 357.181 121.906 356.965C123.879 356.609 124.37 355.771 124.363 353.979C124.572 353.934 124.786 353.883 124.997 353.836C125.094 356.216 125.158 357.749 125.255 360.13C125.046 360.175 124.839 360.223 124.631 360.269C124.349 358.532 123.741 357.923 121.963 358.235C120.769 358.444 119.571 358.659 118.378 358.837C118.478 361.022 118.565 362.793 118.656 364.975C118.709 366.258 118.521 367.179 120.045 366.92C120.981 366.763 121.927 366.574 122.861 366.37C125.929 365.699 126.692 363.797 127.503 361.229L128.182 361.02C127.872 362.946 127.314 365.044 126.885 366.9C122.75 367.654 118.721 368.491 113.852 369.268C113.84 369.021 113.828 368.776 113.819 368.528C116.106 368.222 116.206 367.433 116.107 365.271C115.906 360.896 115.69 357.249 115.492 352.875C115.391 350.657 114.965 350.284 112.97 350.433C112.959 350.181 112.946 349.931 112.938 349.682C117.385 348.965 121.191 348.192 126.029 347.29C126.177 348.826 126.336 350.14 126.477 351.631C126.26 351.688 126.046 351.741 125.832 351.789C125.311 349.368 124.949 348.844 122.477 349.37C120.998 349.684 119.76 349.916 117.978 350.256ZM103.156 369.182C104.193 369.338 104.985 369.352 105.671 369.268C107.665 369.022 109.044 367.981 110.041 366.289C111.711 363.449 111.546 359.714 110.437 356.719C109.408 353.935 107.391 351.748 104.341 352.242C103.635 352.356 102.878 352.463 101.99 352.864C102.36 358.382 102.772 363.665 103.156 369.182ZM98.3432 371.305C98.3276 371.054 98.324 370.815 98.3391 370.542C100.607 370.425 100.603 369.704 100.467 367.54C100.202 363.311 99.8865 359.295 99.6271 355.065C99.4891 352.804 99.3599 352.237 97.1484 352.364C97.1349 352.109 97.1131 351.758 97.1005 351.499C99.3885 351.374 101.579 351.328 103.836 350.967C107.424 350.396 110.358 350.746 112.505 354.219C114.701 357.771 114.804 362.796 112.698 366.439C111.202 369.03 108.699 370.159 105.805 370.514C103.317 370.818 100.848 371.15 98.3432 371.305ZM179.113 352.305C180.629 352.735 181.984 352.843 183.228 351.469C184.42 350.151 184.541 347.688 183.949 346.071C183.451 344.708 182.476 343.778 180.992 343.673C180.579 343.644 180.124 343.673 179.452 343.81C179.336 346.488 179.217 349.625 179.113 352.305ZM156.912 342.619C156.957 344.88 156.995 346.593 157.043 348.855C156.824 348.879 156.608 348.902 156.392 348.926C156.055 346.655 155.097 344.672 152.877 344.32C151.588 344.115 150.284 344.464 149.415 345.478C147.82 347.341 148.657 348.964 150.487 350.066C152.331 351.175 154.715 351.857 156.411 353.101C159.421 355.311 158.472 359.94 155.755 362.076C153.868 363.558 152.052 363.322 149.776 362.818C148.352 362.502 147.708 361.967 147.517 363.558L146.848 363.643C146.797 361.399 146.788 359.844 146.74 357.6L147.388 357.458C147.755 359.411 148.137 360.544 150.045 361.453C151.601 362.193 153.648 362.201 154.8 360.875C156.191 359.275 156.105 356.942 154.427 355.779C152.591 354.507 150.224 353.931 148.399 352.58C145.879 350.717 145.78 347.315 147.789 344.989C149.071 343.507 150.997 342.808 152.929 343.009C154.62 343.185 155.883 344.824 156.264 342.687C156.48 342.664 156.696 342.64 156.912 342.619ZM193.705 362.583L193.632 363.387C191.023 363.075 188.937 362.86 186.137 362.637L186.221 361.799C188.536 361.822 188.647 361.58 188.857 359.195C189.236 354.939 189.624 350.837 190.025 346.582C190.243 344.28 190.207 343.741 187.793 343.581C187.817 343.313 187.836 343.091 187.864 342.816C190.489 342.983 193.104 343.465 195.643 343.711C195.616 343.984 195.588 344.257 195.56 344.527C193.432 344.258 193.007 344.528 192.769 346.888C192.344 351.152 191.945 355.207 191.544 359.472C191.32 361.859 191.445 362.276 193.705 362.583ZM202.613 346.113C202.333 348.612 202.056 351.111 201.779 353.61C202.972 353.811 204.165 354.013 205.352 354.238C207.411 354.63 207.871 354.09 208.203 352.08C208.409 352.13 208.623 352.172 208.833 352.219C208.561 354.535 208.347 356.481 208.081 358.798C207.872 358.753 207.664 358.708 207.453 358.661C207.459 356.913 207.291 355.882 205.239 355.468C204.045 355.228 202.84 355.039 201.641 354.835C201.395 357.099 201.167 358.564 200.932 360.828C200.791 362.194 200.525 362.883 202.024 363.144C202.952 363.304 204.108 363.499 205.043 363.64C207.743 364.045 208.436 363.242 209.961 360.839C210.183 360.894 210.401 360.956 210.625 361.013C209.933 362.569 209.339 364.066 208.652 365.619C203.844 364.75 199.973 364.226 195.708 363.643C195.732 363.41 195.757 363.061 195.781 362.824C197.945 362.993 198.215 362.765 198.452 360.553C198.92 356.181 199.333 352.306 199.805 347.934C200.055 345.609 199.793 345.178 197.697 344.829C197.724 344.591 197.769 344.251 197.795 344.009C202.24 344.659 206.505 345.407 210.957 346.211C210.844 347.715 210.677 348.829 210.569 350.33C210.348 350.281 210.127 350.231 209.908 350.176C209.856 348.044 209.467 347.337 207.197 346.879C205.703 346.578 204.169 346.341 202.613 346.113ZM212.585 346.515C214.025 346.789 215.464 347.062 216.893 347.337C219.361 352.673 221.948 357.459 224.489 362.762C224.92 359.129 225.272 356.147 225.693 352.515C225.943 350.362 225.708 349.766 223.835 349.433C223.864 349.18 223.893 348.928 223.921 348.672C225.717 349.002 227.532 349.358 229.459 349.656C229.429 349.913 229.404 350.171 229.373 350.424C227.475 350.119 227.169 350.426 226.924 352.559C226.287 358.093 225.704 363.087 225.048 368.622C224.853 368.592 224.655 368.56 224.457 368.532C221.705 362.827 218.916 357.659 216.236 351.92C215.749 355.802 215.243 359.376 214.824 363.263C214.588 365.463 214.824 365.815 216.643 366.24L216.5 367.037C214.66 366.666 212.736 366.375 210.864 366.003C210.907 365.755 210.993 365.464 211.037 365.211C212.827 365.504 213.364 365.154 213.591 363.04C214.076 358.518 214.687 354.316 215.255 349.802C214.58 348.403 214.104 347.563 212.484 347.265C212.517 347.015 212.551 346.767 212.585 346.515ZM243.96 351.395C243.841 353.076 243.656 354.654 243.537 356.333C243.325 356.332 243.109 356.327 242.893 356.314C242.921 354.386 242.752 352.697 240.464 352.451C239.729 352.372 238.903 352.276 238.151 352.213C237.561 357.351 237.08 361.832 236.485 366.966C236.224 369.211 236.419 369.791 238.532 370.001C238.503 370.248 238.472 370.49 238.445 370.731C236.035 370.47 233.352 370.027 231.108 369.671C231.136 369.431 231.167 369.187 231.197 368.946C233.195 369.25 233.628 368.984 233.913 366.596C234.524 361.499 235.021 357.003 235.625 351.901C234.988 351.826 234.348 351.739 233.716 351.665C231.336 351.38 230.549 352.476 230.097 354.811C229.884 354.784 229.669 354.754 229.453 354.726C229.721 353.109 229.963 351.407 230.231 349.783C234.545 350.477 239.348 351.164 243.96 351.395ZM259.359 352.317C258.372 354.915 257.439 357.847 256.624 360.504C257.663 360.283 258.705 360.06 259.753 359.815C259.657 358.034 259.439 354.071 259.359 352.317ZM242.735 371.185L242.815 370.38C244.892 370.487 245.147 369.856 245.412 367.735C245.963 363.335 246.387 359.484 246.995 355.093C247.32 352.742 246.723 352.549 244.955 352.418L245.024 351.469C247.933 351.624 250.305 351.566 252.664 351.465L252.552 352.419C250.552 352.56 249.999 352.999 249.633 355.354C248.956 359.728 248.497 363.568 247.888 367.951C247.647 369.687 247.621 370.813 249.46 370.816C250.901 370.818 251.571 370.404 252.359 368.124C254.268 362.602 256.245 356.406 258.221 350.934C262.321 350.375 265.052 349.627 268.012 348.713C268.1 350.107 268.087 350.626 268.173 351.995L267.576 352.304C267.373 350.825 266.908 350.191 265.321 350.697C264.187 351.059 262.443 351.494 261.321 351.718C261.445 354.18 261.628 356.831 261.735 359.294C262.609 359.043 263.488 358.787 264.369 358.487C266.047 357.918 266.188 357.155 266.197 355.494C266.391 355.422 266.585 355.351 266.78 355.277C266.832 357.464 266.873 359.063 266.915 361.251C266.724 361.339 266.539 361.413 266.353 361.49C266.187 360.063 266.201 359.084 264.428 359.695C263.548 359.997 262.663 360.268 261.788 360.525C261.867 362.518 261.932 364.51 262.005 366.487C262.039 367.391 261.813 368.557 262.961 368.126C263.636 367.872 264.575 367.511 265.251 367.216C266.601 366.629 267.553 365.44 268.296 362.975C268.503 362.866 268.705 362.759 268.912 362.651C268.536 364.425 268.412 365.196 268.048 366.969C265.247 368.877 261.529 370.235 258.527 370.809L258.513 370.069C260.345 369.53 260.159 368.635 260.084 366.852C260.003 364.926 259.905 362.991 259.812 361.047C258.557 361.358 257.313 361.648 256.072 361.919C255.279 364.117 254.528 366.36 253.744 368.528C253.065 370.406 253.376 370.998 255.408 370.561L255.457 371.29C250.803 371.779 246.503 371.538 242.735 371.185ZM167.883 354.24C166.959 351.758 166.031 349.278 165.097 346.799C164.197 349.36 163.408 351.914 162.513 354.476C164.341 354.384 166.057 354.308 167.883 354.24ZM179.071 353.326C178.989 355.191 178.933 356.76 178.855 358.623C178.757 360.944 178.881 361.34 181.148 361.514C181.139 361.754 181.105 362.056 181.097 362.293C176.719 362.034 172.755 362.029 168.137 362.047C168.136 361.811 168.132 361.575 168.128 361.336C169.252 361.237 170.12 360.789 169.795 359.617C169.468 358.436 168.68 356.479 168.309 355.482C166.196 355.56 164.188 355.651 162.079 355.762C161.765 356.665 161.003 358.714 160.657 359.931C160.3 361.199 161.384 361.507 162.461 361.53L162.467 362.241C160.809 362.33 158.873 362.433 157.039 362.587L157.031 361.891C158.287 361.544 158.593 361.272 159.055 360.123C160.809 355.754 164.479 345.088 165.452 341.919C165.636 341.911 165.824 341.903 166.013 341.895C166.893 344.231 170.935 355.422 172.572 359.344C173.027 360.438 173.455 361.15 174.773 361.186C176.083 361.221 176.236 359.887 176.304 358.493C176.509 354.258 176.64 349.892 176.809 345.658C176.905 343.292 176.803 342.896 174.516 342.767C174.524 342.527 174.533 342.287 174.541 342.045C176.632 342.148 178.715 342.143 180.803 342.29C183.185 342.458 185.2 343.073 186.509 345.224C187.797 347.345 187.524 350.684 185.723 352.434C183.939 354.166 181.219 353.998 179.071 353.326Z" stroke="#1170B8" stroke-width="0.580679" stroke-miterlimit="22.9256" stroke-linejoin="round"/>
<path fill-rule="evenodd" clip-rule="evenodd" d="M87.8437 352.556C88.0063 355.067 88.3036 358.091 88.464 360.602C89.6151 360.746 90.7661 360.862 91.9172 360.894C93.9984 360.954 94.2099 360.111 94.1751 358.196C94.3927 358.191 94.6131 358.183 94.8323 358.179C94.9839 360.526 95.1213 362.743 95.2708 365.091C95.0516 365.098 94.8344 365.105 94.6177 365.109C94.2745 363.218 94.1588 362.259 91.9844 362.184C90.8401 362.145 89.6943 362.036 88.5489 361.896C88.6844 364.013 88.8093 366.025 88.9511 368.138C89.0355 369.42 89.2489 370.254 90.3708 370.331C91.3427 370.398 92.2271 370.377 93.1355 370.411C95.6593 370.508 96.6172 369.199 97.4021 366.643L98.0713 366.726C97.7036 368.834 97.5052 369.714 97.0172 371.395C92.1593 371.686 88.1557 371.648 84.3765 370.878C84.3593 370.62 84.3453 370.363 84.3271 370.103C86.2563 370.473 86.5921 370.037 86.462 368.016C86.1885 363.755 85.7219 358.585 85.4625 354.324C85.3516 352.51 84.9005 351.965 82.9937 351.507C82.9781 351.248 82.9609 350.987 82.9484 350.723C87.5745 351.487 90.7448 351.607 95.6375 351.528C95.7969 353.029 95.9527 354.536 96.1109 356.037C95.8828 356.044 95.6547 356.056 95.4265 356.066C94.8844 353.718 94.2864 352.838 92.1344 352.789C90.6792 352.755 89.3349 352.703 87.8437 352.556ZM81.6604 350.562C81.6969 352.536 81.7375 353.943 81.9412 356.209L81.2844 356.04C80.5527 353.103 78.162 350.307 75.064 349.932C72.4229 349.613 72.0511 352.693 74.1527 354.401C76.5891 356.382 81.8693 359.145 83.4636 362.132C85.9432 366.772 82.6708 371.465 78.6771 369.286C77.5079 368.649 76.2177 367.542 75.2536 366.619C74.5527 365.945 74.2385 366.099 74.6584 367.044L74.0235 366.607C73.3719 365.024 72.6016 362.414 72.2161 360.479L72.9552 360.844C74.2245 363.963 76.2041 366.623 78.7875 368.265C80.9797 369.659 82.7771 367.612 81.5084 364.88C80.1093 361.869 75.6203 359.863 72.9041 356.966C70.1995 354.083 70.2369 349.292 73.9333 348.776C76.0333 348.483 78.0531 349.584 79.6869 350.747C80.6068 351.403 80.9557 351.618 80.9932 350.409L81.6604 350.562ZM138.045 345.007C138.163 347.313 138.268 349.133 138.391 351.439C138.184 351.487 137.977 351.537 137.772 351.585C137.455 349.787 136.815 347.979 134.945 347.29C131.858 346.153 128.33 349.593 130.485 351.991C131.904 353.57 135.993 355.151 137.923 356.413C140.652 358.2 140.713 360.994 138.957 363.439C137.256 365.806 134.112 366.122 131.864 365.49C130.459 365.097 129.651 364.712 129.547 366.374L128.907 366.51C128.796 364.243 128.89 363.144 128.791 360.875L129.458 360.682C129.839 362.533 130.054 363.449 131.953 364.214C133.609 364.88 136.133 364.625 137.216 363.168C138.429 361.53 137.597 360.29 135.881 359.186C133.648 357.749 129.809 356.583 128.391 354.025C125.878 349.492 130.905 344.696 135.553 345.919C136.796 346.244 137.272 346.456 137.433 345.167C137.639 345.115 137.841 345.062 138.045 345.007ZM117.978 350.256C118.091 352.848 118.204 354.971 118.319 357.564C119.516 357.382 120.712 357.181 121.906 356.965C123.879 356.609 124.37 355.771 124.363 353.979C124.572 353.934 124.786 353.883 124.997 353.836C125.094 356.216 125.158 357.749 125.255 360.13C125.046 360.175 124.839 360.223 124.631 360.269C124.349 358.532 123.741 357.923 121.963 358.235C120.769 358.444 119.571 358.659 118.378 358.837C118.478 361.022 118.565 362.793 118.656 364.975C118.709 366.258 118.521 367.179 120.045 366.92C120.981 366.763 121.927 366.574 122.861 366.37C125.929 365.699 126.692 363.797 127.503 361.229L128.182 361.02C127.872 362.946 127.314 365.044 126.885 366.9C122.75 367.654 118.721 368.491 113.852 369.268C113.84 369.021 113.828 368.775 113.819 368.528C116.106 368.222 116.206 367.433 116.107 365.271C115.906 360.896 115.69 357.249 115.492 352.875C115.391 350.657 114.965 350.284 112.97 350.433C112.959 350.181 112.946 349.931 112.937 349.682C117.385 348.965 121.191 348.192 126.029 347.29C126.177 348.825 126.336 350.14 126.477 351.631C126.26 351.688 126.046 351.741 125.832 351.789C125.311 349.368 124.949 348.844 122.477 349.37C120.998 349.684 119.76 349.916 117.978 350.256ZM103.156 369.182C104.193 369.338 104.985 369.352 105.671 369.268C107.665 369.022 109.044 367.981 110.041 366.289C111.711 363.449 111.546 359.714 110.437 356.719C109.408 353.935 107.391 351.748 104.341 352.242C103.635 352.356 102.878 352.463 101.99 352.864C102.36 358.382 102.772 363.665 103.156 369.182ZM98.3432 371.305C98.3276 371.054 98.324 370.815 98.3391 370.542C100.607 370.425 100.603 369.704 100.467 367.54C100.202 363.311 99.8864 359.295 99.6271 355.065C99.4891 352.804 99.3599 352.237 97.1484 352.364C97.1349 352.109 97.1131 351.758 97.1005 351.499C99.3885 351.374 101.579 351.328 103.836 350.967C107.424 350.396 110.358 350.746 112.505 354.219C114.701 357.771 114.804 362.796 112.698 366.439C111.202 369.03 108.699 370.159 105.805 370.514C103.317 370.818 100.848 371.15 98.3432 371.305ZM179.113 352.305C180.629 352.735 181.984 352.843 183.228 351.469C184.42 350.151 184.54 347.688 183.949 346.071C183.451 344.708 182.476 343.778 180.992 343.673C180.579 343.644 180.124 343.673 179.452 343.81C179.336 346.488 179.217 349.625 179.113 352.305ZM156.912 342.619C156.957 344.88 156.995 346.593 157.043 348.855C156.824 348.879 156.607 348.902 156.392 348.926C156.055 346.655 155.097 344.672 152.877 344.32C151.588 344.115 150.284 344.464 149.415 345.478C147.82 347.341 148.657 348.964 150.487 350.066C152.331 351.175 154.715 351.857 156.411 353.101C159.421 355.311 158.472 359.94 155.755 362.076C153.868 363.558 152.052 363.322 149.776 362.818C148.352 362.502 147.708 361.967 147.517 363.558L146.848 363.643C146.797 361.399 146.788 359.844 146.74 357.6L147.388 357.458C147.755 359.411 148.137 360.544 150.045 361.453C151.601 362.193 153.648 362.201 154.8 360.875C156.191 359.275 156.105 356.942 154.427 355.779C152.591 354.507 150.224 353.931 148.399 352.58C145.879 350.717 145.78 347.315 147.789 344.989C149.071 343.507 150.997 342.808 152.928 343.009C154.62 343.185 155.883 344.824 156.264 342.687C156.48 342.664 156.696 342.64 156.912 342.619ZM193.705 362.583L193.632 363.387C191.023 363.075 188.937 362.86 186.137 362.636L186.221 361.799C188.536 361.822 188.647 361.58 188.857 359.195C189.236 354.939 189.624 350.837 190.025 346.582C190.243 344.28 190.207 343.741 187.793 343.581C187.817 343.313 187.836 343.091 187.864 342.816C190.489 342.983 193.104 343.465 195.643 343.711C195.616 343.984 195.588 344.257 195.56 344.527C193.432 344.258 193.007 344.528 192.769 346.888C192.344 351.152 191.945 355.207 191.544 359.472C191.32 361.859 191.445 362.276 193.705 362.583ZM202.613 346.113C202.333 348.612 202.056 351.111 201.779 353.61C202.972 353.811 204.165 354.013 205.352 354.238C207.411 354.63 207.871 354.09 208.203 352.08C208.409 352.13 208.623 352.172 208.833 352.219C208.561 354.535 208.347 356.481 208.081 358.798C207.872 358.753 207.664 358.708 207.453 358.661C207.459 356.913 207.291 355.882 205.239 355.468C204.045 355.228 202.84 355.039 201.641 354.835C201.395 357.099 201.167 358.564 200.932 360.828C200.791 362.194 200.525 362.883 202.024 363.144C202.952 363.304 204.108 363.499 205.043 363.64C207.743 364.045 208.436 363.242 209.961 360.839C210.183 360.894 210.401 360.956 210.625 361.013C209.933 362.569 209.339 364.066 208.652 365.619C203.844 364.75 199.973 364.226 195.708 363.643C195.732 363.41 195.757 363.061 195.781 362.824C197.945 362.993 198.215 362.765 198.452 360.553C198.92 356.181 199.333 352.306 199.805 347.934C200.055 345.609 199.793 345.178 197.697 344.829C197.724 344.591 197.769 344.251 197.795 344.009C202.24 344.659 206.505 345.407 210.957 346.211C210.844 347.715 210.677 348.829 210.569 350.33C210.348 350.281 210.127 350.231 209.908 350.175C209.856 348.044 209.467 347.336 207.197 346.879C205.703 346.578 204.169 346.341 202.613 346.113ZM212.585 346.515C214.025 346.789 215.464 347.062 216.893 347.336C219.361 352.673 221.948 357.459 224.489 362.762C224.92 359.129 225.272 356.147 225.693 352.515C225.943 350.362 225.708 349.766 223.835 349.433C223.864 349.18 223.893 348.928 223.921 348.672C225.717 349.002 227.532 349.358 229.459 349.656C229.429 349.913 229.404 350.171 229.373 350.424C227.473 350.119 227.169 350.425 226.924 352.559C226.287 358.093 225.704 363.087 225.048 368.622C224.853 368.592 224.655 368.56 224.457 368.532C221.705 362.827 218.916 357.659 216.236 351.92C215.749 355.802 215.243 359.376 214.824 363.263C214.588 365.463 214.824 365.815 216.643 366.24L216.5 367.036C214.66 366.666 212.736 366.375 210.864 366.003C210.907 365.755 210.993 365.464 211.037 365.211C212.827 365.504 213.364 365.154 213.591 363.04C214.076 358.518 214.687 354.316 215.255 349.802C214.58 348.403 214.104 347.563 212.484 347.265C212.517 347.015 212.551 346.767 212.585 346.515ZM243.96 351.395C243.84 353.075 243.656 354.654 243.537 356.333C243.325 356.332 243.109 356.327 242.893 356.314C242.921 354.386 242.752 352.697 240.464 352.451C239.729 352.372 238.903 352.276 238.151 352.213C237.561 357.351 237.08 361.832 236.485 366.966C236.224 369.211 236.419 369.791 238.532 370.001C238.503 370.248 238.472 370.49 238.445 370.731C236.035 370.47 233.352 370.027 231.107 369.671C231.136 369.431 231.167 369.187 231.197 368.946C233.195 369.25 233.628 368.984 233.913 366.596C234.524 361.499 235.021 357.003 235.625 351.901C234.988 351.826 234.348 351.739 233.716 351.665C231.336 351.38 230.549 352.475 230.097 354.811C229.884 354.784 229.669 354.754 229.453 354.726C229.721 353.109 229.963 351.407 230.231 349.783C234.545 350.477 239.348 351.164 243.96 351.395ZM259.359 352.317C258.372 354.915 257.439 357.847 256.624 360.504C257.661 360.283 258.705 360.06 259.753 359.815C259.657 358.034 259.439 354.071 259.359 352.317ZM242.735 371.185L242.815 370.38C244.892 370.487 245.147 369.856 245.412 367.735C245.963 363.335 246.385 359.484 246.995 355.093C247.32 352.742 246.723 352.549 244.955 352.418L245.024 351.469C247.933 351.624 250.305 351.566 252.664 351.465L252.552 352.419C250.552 352.56 249.999 352.999 249.633 355.354C248.956 359.728 248.497 363.568 247.888 367.951C247.647 369.687 247.621 370.813 249.46 370.816C250.901 370.818 251.571 370.404 252.359 368.124C254.268 362.602 256.245 356.406 258.221 350.934C262.321 350.375 265.052 349.627 268.012 348.713C268.1 350.107 268.085 350.625 268.173 351.995L267.576 352.304C267.373 350.825 266.908 350.191 265.321 350.697C264.187 351.059 262.443 351.494 261.321 351.718C261.445 354.18 261.628 356.831 261.735 359.294C262.609 359.043 263.488 358.786 264.369 358.487C266.047 357.918 266.188 357.155 266.197 355.494C266.391 355.422 266.585 355.351 266.78 355.277C266.832 357.464 266.873 359.063 266.915 361.251C266.724 361.339 266.539 361.413 266.352 361.49C266.187 360.063 266.201 359.084 264.428 359.695C263.548 359.997 262.663 360.268 261.788 360.525C261.867 362.518 261.932 364.51 262.005 366.487C262.039 367.391 261.813 368.557 262.961 368.126C263.636 367.872 264.575 367.511 265.251 367.216C266.601 366.629 267.552 365.44 268.296 362.975C268.503 362.866 268.705 362.759 268.912 362.651C268.536 364.425 268.412 365.196 268.048 366.969C265.247 368.877 261.529 370.235 258.527 370.809L258.513 370.069C260.345 369.53 260.159 368.635 260.084 366.852C260.003 364.925 259.905 362.991 259.812 361.047C258.557 361.358 257.313 361.648 256.072 361.919C255.279 364.117 254.528 366.36 253.744 368.528C253.065 370.406 253.376 370.998 255.408 370.561L255.457 371.29C250.803 371.779 246.503 371.538 242.735 371.185ZM167.883 354.24C166.959 351.758 166.031 349.278 165.097 346.799C164.197 349.36 163.408 351.914 162.513 354.476C164.341 354.384 166.057 354.308 167.883 354.24ZM179.071 353.325C178.989 355.191 178.933 356.76 178.855 358.623C178.757 360.944 178.881 361.34 181.148 361.514C181.139 361.754 181.105 362.056 181.097 362.293C176.719 362.034 172.755 362.029 168.137 362.047C168.136 361.811 168.132 361.575 168.128 361.336C169.252 361.236 170.12 360.789 169.795 359.617C169.468 358.436 168.68 356.479 168.309 355.482C166.195 355.56 164.188 355.651 162.079 355.762C161.765 356.665 161.003 358.714 160.657 359.931C160.3 361.199 161.384 361.507 162.461 361.53L162.467 362.241C160.809 362.33 158.873 362.433 157.039 362.586L157.031 361.891C158.287 361.544 158.593 361.272 159.055 360.123C160.809 355.754 164.479 345.088 165.452 341.919C165.636 341.911 165.824 341.903 166.013 341.895C166.893 344.231 170.935 355.422 172.572 359.344C173.027 360.438 173.455 361.15 174.773 361.186C176.083 361.221 176.236 359.886 176.304 358.493C176.509 354.258 176.64 349.892 176.809 345.658C176.905 343.292 176.803 342.896 174.516 342.767C174.524 342.527 174.533 342.286 174.541 342.045C176.632 342.148 178.715 342.143 180.803 342.29C183.185 342.458 185.2 343.073 186.509 345.224C187.797 347.345 187.524 350.684 185.723 352.434C183.939 354.166 181.219 353.998 179.071 353.325Z" fill="#E9E9E9"/>
<path d="M259.609 60.7573C253.203 61.6547 246.181 60.9054 241.529 65.048C237.297 68.82 234.18 75.4414 229.627 79.3067C223.767 84.2787 218.417 83.6894 214.268 91.6067C210.947 97.9454 212.655 106.283 219.233 110.96C217.636 106.268 218.697 97.6307 224.381 94.172C223.757 98.0427 224.777 104.743 227.201 107.92C226.784 100.277 232.225 89.572 240.887 84.9507C239.741 87.78 235.007 96.392 239.636 107.505C241.044 101.379 245.289 96.8307 251.193 94.8907C249.027 98.512 246.749 107.121 249.224 112.125C256.473 109.428 254.927 103.665 259.16 96.8987C264.143 88.936 260.532 85.2933 259.888 78.028C257.285 81.4133 258.173 87.2987 250.761 89.196C247.259 90.092 245.712 86.928 247.433 84.2213C253.988 73.916 249.617 70.4987 259.609 60.7573ZM131.867 60.7573C125.461 61.6547 118.439 60.904 113.788 65.048C109.555 68.82 106.44 75.4414 101.885 79.3067C96.0251 84.2814 90.6745 83.688 86.526 91.6067C83.2041 97.9454 84.914 106.283 91.4912 110.96C89.8948 106.268 90.9541 97.6307 96.6396 94.172C96.0145 98.0427 97.0344 104.743 99.4604 107.92C99.0407 100.277 104.484 89.572 113.144 84.9507C112.001 87.78 107.265 96.392 111.893 107.505C113.301 101.379 117.547 96.8307 123.452 94.8907C121.285 98.512 119.006 107.121 121.483 112.125C128.73 109.428 127.183 103.665 131.417 96.8987C136.4 88.9347 132.79 85.2933 132.145 78.028C129.544 81.4133 130.432 87.2973 123.018 89.196C119.516 90.092 117.969 86.928 119.69 84.2213C126.247 73.9147 121.875 70.4987 131.867 60.7573ZM195.676 60.7573C189.271 61.6547 182.248 60.904 177.597 65.048C173.364 68.82 170.248 75.4414 165.695 79.3067C159.833 84.2814 154.484 83.688 150.335 91.6067C147.012 97.9454 148.723 106.283 155.301 110.96C153.704 106.268 154.763 97.6307 160.448 94.172C159.824 98.0427 160.843 104.743 163.268 107.92C162.849 100.277 168.293 89.572 176.953 84.9507C175.808 87.78 171.073 96.392 175.703 107.505C177.109 101.379 181.357 96.8307 187.26 94.8907C185.093 98.512 182.815 107.121 185.291 112.125C192.539 109.428 190.992 103.665 195.227 96.8987C200.209 88.9347 196.599 85.2933 195.955 78.028C193.353 81.4133 194.24 87.2973 186.827 89.196C183.324 90.092 181.777 86.928 183.5 84.2213C190.055 73.9147 185.684 70.4987 195.676 60.7573Z" stroke="#200A00" stroke-width="0.580819" stroke-miterlimit="10" stroke-linejoin="round"/>
<path fill-rule="evenodd" clip-rule="evenodd" d="M259.609 60.7573C253.203 61.6547 246.181 60.9054 241.529 65.048C237.297 68.82 234.18 75.4414 229.627 79.3067C223.767 84.2787 218.417 83.6894 214.268 91.6067C210.947 97.9454 212.655 106.283 219.233 110.96C217.636 106.268 218.697 97.6307 224.381 94.172C223.757 98.0427 224.777 104.743 227.201 107.92C226.784 100.277 232.225 89.572 240.887 84.9507C239.741 87.78 235.007 96.392 239.636 107.505C241.044 101.379 245.289 96.8307 251.193 94.8907C249.027 98.512 246.749 107.121 249.224 112.125C256.473 109.428 254.927 103.665 259.16 96.8987C264.143 88.936 260.532 85.2933 259.888 78.028C257.285 81.4133 258.173 87.2987 250.761 89.196C247.259 90.092 245.712 86.928 247.433 84.2213C253.988 73.916 249.617 70.4987 259.609 60.7573ZM131.867 60.7573C125.461 61.6547 118.439 60.904 113.788 65.048C109.555 68.82 106.44 75.4414 101.885 79.3067C96.0251 84.2814 90.6745 83.688 86.526 91.6067C83.2041 97.9454 84.914 106.283 91.4912 110.96C89.8948 106.268 90.9541 97.6307 96.6396 94.172C96.0145 98.0427 97.0344 104.743 99.4604 107.92C99.0407 100.277 104.484 89.572 113.144 84.9507C112.001 87.78 107.265 96.392 111.893 107.505C113.301 101.379 117.547 96.8307 123.452 94.8907C121.285 98.512 119.006 107.121 121.483 112.125C128.73 109.428 127.183 103.665 131.417 96.8987C136.4 88.9347 132.79 85.2933 132.145 78.028C129.544 81.4133 130.432 87.2973 123.018 89.196C119.516 90.092 117.969 86.928 119.69 84.2213C126.247 73.9147 121.875 70.4987 131.867 60.7573ZM195.676 60.7573C189.271 61.6547 182.248 60.904 177.597 65.048C173.364 68.82 170.248 75.4414 165.695 79.3067C159.833 84.2814 154.484 83.688 150.335 91.6067C147.012 97.9454 148.723 106.283 155.301 110.96C153.704 106.268 154.763 97.6307 160.448 94.172C159.824 98.0427 160.843 104.743 163.268 107.92C162.849 100.277 168.293 89.572 176.953 84.9507C175.808 87.78 171.073 96.392 175.703 107.505C177.109 101.379 181.357 96.8307 187.26 94.8907C185.093 98.512 182.815 107.121 185.291 112.125C192.539 109.428 190.992 103.665 195.227 96.8987C200.209 88.9347 196.599 85.2933 195.955 78.028C193.353 81.4133 194.24 87.2973 186.827 89.196C183.324 90.092 181.777 86.928 183.5 84.2213C190.055 73.9147 185.684 70.4987 195.676 60.7573Z" fill="#F47216"/>
<path d="M345.524 177.481C354.577 178.845 365.632 178.845 374.688 177.481C373.472 191.324 371.991 206.084 371.991 219.961C371.991 243.044 370.915 268.633 373.012 291.44C375.669 320.339 389.44 334.569 419.149 334.569C465.173 334.569 471.781 308.001 471.781 268.197V227.027C471.781 210.531 471.381 193.839 469.084 177.481C475.62 178.753 484.139 178.887 490.651 177.481C487.756 196.66 487.464 217.689 487.464 237.076V278.94C487.464 327.045 461.537 348.05 414.983 348.05C362.196 348.05 348.221 324.512 348.221 276.776V219.635C348.221 205.484 347.5 191.503 345.524 177.481ZM765.444 344.865C771.203 315.579 776.105 286.659 780.148 258.149C784.231 229.601 787.417 201.661 789.748 174.296H799.06C811.761 199.905 823.771 223.637 835.165 245.571C846.52 267.464 857.344 287.805 867.637 306.633C878.543 286.784 889.612 265.871 900.76 243.895C911.955 221.921 923.348 198.721 934.989 174.296H944.341C946.793 203.908 949.735 232.908 953.084 261.297C956.431 289.725 960.231 317.581 964.437 344.865C954.181 342.174 946.707 342.381 936.46 344.865C935.643 324.523 934.293 303.98 932.376 283.229C930.456 262.481 928.004 241.445 924.941 220.123L889.896 288.948C880.657 306.985 871.733 325.765 864.9 344.865C863.408 344.119 860.433 344.249 858.895 344.865C849.093 323.625 838.964 302.752 828.509 282.248C818.051 261.745 807.311 241.607 796.323 221.8L789.256 289.641C787.384 308.051 786.273 326.369 785.784 344.865C777.756 343.326 773.463 343.231 765.444 344.865ZM644.903 308.105L647.068 307.612C653.987 326.043 668.428 336.778 688.281 336.778C708.84 336.778 724.305 325.284 724.305 303.733C724.305 281.249 705.539 274.28 687.34 267.176C664.451 258.243 643.679 248.815 643.679 221.104C643.679 188.933 666.828 174.051 696.897 174.051C711.641 174.051 725.408 177.565 738.149 184.548L738.275 184.673C734.553 192.113 731.937 200.427 730.432 208.605H728.02C724.557 191.096 711.447 183.608 694.407 183.608C676.769 183.608 663.528 193.979 663.528 212.324C663.528 232.409 683.079 239.207 699.063 245.08C723.635 254.107 745.625 263.543 745.625 293.155C745.625 327.528 717.629 348.296 684.929 348.296C668.979 348.296 652.647 344.684 640.245 334.121C642.832 325.615 644.415 316.987 644.903 308.105ZM551.255 262.031C551.255 289.529 550.836 317.436 552.727 344.865C544.353 343.086 532.699 343.22 524.299 344.865C526.765 317.076 527.484 289.183 527.484 261.297C527.484 233.505 527.189 205.136 524.299 177.481C540.063 177.717 555.831 177.972 571.596 177.972C586.055 177.972 600.517 177.831 614.973 177.481C613.877 183.909 614.291 188.02 614.973 194.392C601.599 191.653 588.229 190.225 574.579 190.225H551.5C551.231 210.164 551.255 230.084 551.255 250.021H576.007C587.327 250.021 598.833 249.129 610.072 247.816C609.201 253.745 609.948 258.476 609.948 264.237C598.561 263.185 586.745 262.031 575.315 262.031H551.255Z" fill="#231F20"/>
</svg>
